<?xml version="1.0" encoding="utf-8" standalone="no"?>
<!DOCTYPE svg PUBLIC "-//W3C//DTD SVG 1.1//EN"
  "http://www.w3.org/Graphics/SVG/1.1/DTD/svg11.dtd">
<svg height="137.078297pt" version="1.1" viewBox="0 0 198.556172 137.078297" width="198.556172pt" xmlns="http://www.w3.org/2000/svg" xmlns:xlink="http://www.w3.org/1999/xlink">
 <metadata>
  <rdf:RDF xmlns:cc="http://creativecommons.org/ns#" xmlns:dc="http://purl.org/dc/elements/1.1/" xmlns:rdf="http://www.w3.org/1999/02/22-rdf-syntax-ns#">
   <cc:Work>
    <dc:type rdf:resource="http://purl.org/dc/dcmitype/StillImage"/>
    <dc:date>2022-09-08T15:37:17.412054</dc:date>
    <dc:format>image/svg+xml</dc:format>
    <dc:creator>
     <cc:Agent>
      <dc:title>Matplotlib v3.4.3, https://matplotlib.org/</dc:title>
     </cc:Agent>
    </dc:creator>
   </cc:Work>
  </rdf:RDF>
 </metadata>
 <defs>
  <style type="text/css">*{stroke-linecap:butt;stroke-linejoin:round;}</style>
 </defs>
 <g id="figure_1">
  <g id="patch_1">
   <path d="M 0 137.078297 
L 198.556172 137.078297 
L 198.556172 0 
L 0 0 
z
" style="fill:#ffffff;"/>
  </g>
  <g id="axes_1">
   <g id="patch_2">
    <path d="M 25.576172 116.424 
L 198.556172 116.424 
L 198.556172 0 
L 25.576172 0 
z
" style="fill:#ffffff;"/>
   </g>
   <g id="matplotlib.axis_1">
    <g id="xtick_1">
     <g id="line2d_1">
      <defs>
       <path d="M 0 0 
L 0 -3.5 
" id="mb415a3265b" style="stroke:#000000;stroke-width:0.8;"/>
      </defs>
      <g>
       <use style="stroke:#000000;stroke-width:0.8;" x="33.438899" xlink:href="#mb415a3265b" y="116.424"/>
      </g>
     </g>
     <g id="text_1">
      <!-- 0 -->
      <g transform="translate(31.563899 125.285328)scale(0.075 -0.075)">
       <defs>
        <path d="M 1600 4225 
Q 1250 4225 1012 3687 
Q 775 3150 775 2250 
Q 775 1300 1012 775 
Q 1250 250 1600 250 
Q 1975 250 2187 775 
Q 2400 1300 2400 2250 
Q 2400 3150 2200 3687 
Q 2000 4225 1600 4225 
z
M 1600 50 
Q 1050 50 675 625 
Q 300 1200 300 2250 
Q 300 3225 662 3825 
Q 1025 4425 1600 4425 
Q 2150 4425 2512 3850 
Q 2875 3275 2875 2250 
Q 2875 1225 2512 637 
Q 2150 50 1600 50 
z
" id="SimSun-30" transform="scale(0.015625)"/>
       </defs>
       <use xlink:href="#SimSun-30"/>
      </g>
     </g>
    </g>
    <g id="xtick_2">
     <g id="line2d_2">
      <g>
       <use style="stroke:#000000;stroke-width:0.8;" x="81.382358" xlink:href="#mb415a3265b" y="116.424"/>
      </g>
     </g>
     <g id="text_2">
      <!-- 50 -->
      <g transform="translate(77.632358 125.285328)scale(0.075 -0.075)">
       <defs>
        <path d="M 1725 2850 
Q 2200 2850 2500 2487 
Q 2800 2125 2800 1525 
Q 2800 850 2487 450 
Q 2175 50 1525 50 
Q 1075 50 725 312 
Q 375 575 375 950 
Q 375 1100 462 1212 
Q 550 1325 700 1325 
Q 850 1325 900 1225 
Q 950 1125 950 1050 
Q 950 900 875 825 
Q 800 725 800 625 
Q 800 425 1037 325 
Q 1275 225 1550 225 
Q 1950 225 2162 550 
Q 2375 875 2375 1475 
Q 2375 1975 2187 2287 
Q 2000 2600 1625 2600 
Q 1350 2600 1150 2500 
Q 950 2400 775 2075 
L 550 2100 
L 675 4375 
L 2725 4375 
L 2650 4000 
L 850 4000 
L 750 2350 
Q 1000 2700 1237 2775 
Q 1475 2850 1725 2850 
z
" id="SimSun-35" transform="scale(0.015625)"/>
       </defs>
       <use xlink:href="#SimSun-35"/>
       <use x="50" xlink:href="#SimSun-30"/>
      </g>
     </g>
    </g>
    <g id="xtick_3">
     <g id="line2d_3">
      <g>
       <use style="stroke:#000000;stroke-width:0.8;" x="129.325817" xlink:href="#mb415a3265b" y="116.424"/>
      </g>
     </g>
     <g id="text_3">
      <!-- 100 -->
      <g transform="translate(123.700817 125.285328)scale(0.075 -0.075)">
       <defs>
        <path d="M 1825 4450 
L 1825 650 
Q 1825 450 1950 350 
Q 2075 250 2300 250 
L 2550 250 
L 2550 100 
L 725 100 
L 725 250 
L 950 250 
Q 1200 250 1312 350 
Q 1425 450 1425 650 
L 1425 3675 
Q 1425 3775 1362 3837 
Q 1300 3900 1175 3900 
L 725 3900 
L 725 4050 
L 950 4050 
Q 1250 4050 1437 4150 
Q 1625 4250 1725 4450 
L 1825 4450 
z
" id="SimSun-31" transform="scale(0.015625)"/>
       </defs>
       <use xlink:href="#SimSun-31"/>
       <use x="50" xlink:href="#SimSun-30"/>
       <use x="100" xlink:href="#SimSun-30"/>
      </g>
     </g>
    </g>
    <g id="xtick_4">
     <g id="line2d_4">
      <g>
       <use style="stroke:#000000;stroke-width:0.8;" x="177.269276" xlink:href="#mb415a3265b" y="116.424"/>
      </g>
     </g>
     <g id="text_4">
      <!-- 150 -->
      <g transform="translate(171.644276 125.285328)scale(0.075 -0.075)">
       <use xlink:href="#SimSun-31"/>
       <use x="50" xlink:href="#SimSun-35"/>
       <use x="100" xlink:href="#SimSun-30"/>
      </g>
     </g>
    </g>
    <g id="text_5">
     <!-- 时间序列 -->
     <g transform="translate(97.066172 136.1115)scale(0.075 -0.075)">
      <defs>
       <path d="M 4500 3600 
Q 4500 4575 4475 5225 
L 5100 4900 
L 4850 4725 
L 4850 3600 
L 5225 3600 
L 5550 3925 
L 6025 3450 
L 4850 3450 
L 4850 100 
Q 4850 -375 4300 -575 
Q 4275 -200 3475 -25 
L 3475 100 
Q 4150 0 4325 25 
Q 4500 50 4500 325 
L 4500 3450 
L 3200 3450 
Q 2875 3450 2600 3375 
L 2375 3600 
L 4500 3600 
z
M 2875 2825 
Q 3525 2375 3637 2200 
Q 3750 2025 3750 1925 
Q 3750 1800 3637 1637 
Q 3525 1475 3475 1475 
Q 3400 1475 3325 1775 
Q 3200 2225 2800 2750 
L 2875 2825 
z
M 925 4150 
L 925 2650 
L 1950 2650 
L 1950 4150 
L 925 4150 
z
M 925 2500 
L 925 900 
L 1950 900 
L 1950 2500 
L 925 2500 
z
M 2300 2000 
Q 2300 800 2325 450 
L 1950 250 
L 1950 750 
L 925 750 
L 925 225 
L 550 25 
Q 575 825 575 2425 
Q 575 4025 550 4500 
L 950 4300 
L 1900 4300 
L 2100 4550 
L 2500 4225 
L 2300 4050 
L 2300 2000 
z
" id="SimSun-65f6" transform="scale(0.015625)"/>
       <path d="M 2150 525 
Q 2175 1325 2175 2112 
Q 2175 2900 2150 3675 
L 2525 3450 
L 3750 3450 
L 4000 3700 
L 4325 3375 
L 4125 3200 
Q 4125 1550 4150 775 
L 3800 575 
L 3800 975 
L 2500 975 
L 2500 700 
L 2150 525 
z
M 2500 3300 
L 2500 2325 
L 3800 2325 
L 3800 3300 
L 2500 3300 
z
M 2500 2175 
L 2500 1125 
L 3800 1125 
L 3800 2175 
L 2500 2175 
z
M 1275 5200 
Q 1850 4825 1950 4675 
Q 2050 4525 2050 4425 
Q 2050 4275 1950 4137 
Q 1850 4000 1825 4000 
Q 1750 4000 1675 4275 
Q 1550 4650 1200 5125 
L 1275 5200 
z
M 1125 425 
Q 1125 25 1150 -375 
L 750 -525 
Q 775 -150 775 1950 
Q 775 4050 750 4425 
L 1350 4125 
L 1125 3975 
L 1125 425 
z
M 4225 125 
Q 5025 0 5125 37 
Q 5225 75 5225 250 
L 5225 4450 
L 3225 4450 
Q 2900 4450 2625 4375 
L 2400 4600 
L 5175 4600 
L 5425 4850 
L 5775 4500 
L 5575 4350 
L 5575 225 
Q 5575 -100 5462 -250 
Q 5350 -400 5000 -550 
Q 4800 -125 4225 25 
L 4225 125 
z
" id="SimSun-95f4" transform="scale(0.015625)"/>
       <path d="M 1000 4575 
L 1375 4350 
L 5050 4350 
L 5425 4725 
L 5950 4200 
L 1375 4200 
Q 1375 3225 1350 2462 
Q 1325 1700 1112 962 
Q 900 225 300 -575 
L 225 -525 
Q 725 350 862 1087 
Q 1000 1825 1012 2687 
Q 1025 3550 1000 4575 
z
M 3000 5225 
Q 3450 5075 3625 4937 
Q 3800 4800 3762 4637 
Q 3725 4475 3612 4400 
Q 3500 4325 3400 4600 
Q 3275 4875 2950 5150 
L 3000 5225 
z
M 2675 0 
Q 3100 -50 3325 -50 
Q 3550 -50 3575 225 
L 3575 2050 
L 2325 2050 
Q 2000 2050 1725 1975 
L 1500 2200 
L 3625 2200 
Q 3625 2400 3400 2637 
Q 3175 2875 2925 3075 
L 2975 3150 
Q 3325 3050 3775 2800 
L 4750 3550 
L 2725 3550 
Q 2400 3550 2125 3475 
L 1900 3700 
L 4775 3700 
L 5050 3950 
L 5475 3425 
Q 5200 3425 4837 3262 
Q 4475 3100 3875 2725 
Q 4000 2575 3975 2450 
Q 3950 2325 3825 2200 
L 5325 2200 
L 5550 2475 
L 6025 2000 
Q 5600 2000 5100 1350 
L 5000 1400 
L 5350 2050 
L 3900 2050 
L 3900 125 
Q 3900 -375 3400 -600 
Q 3325 -275 2675 -125 
L 2675 0 
z
" id="SimSun-5e8f" transform="scale(0.015625)"/>
       <path d="M 550 4550 
L 3175 4550 
L 3500 4875 
L 3975 4400 
L 2325 4400 
Q 2125 3800 1925 3325 
L 2925 3325 
L 3150 3575 
L 3575 3200 
L 3325 3050 
Q 3075 2075 2787 1525 
Q 2500 975 1975 462 
Q 1450 -50 425 -525 
L 375 -450 
Q 1475 200 2062 1000 
Q 2650 1800 2975 3175 
L 1875 3175 
Q 1750 2925 1600 2650 
Q 2250 2125 2212 1850 
Q 2175 1575 2075 1500 
L 1950 1425 
Q 1850 1425 1825 1725 
Q 1775 2100 1550 2550 
Q 1100 1925 550 1375 
L 475 1450 
Q 1050 2225 1375 2925 
Q 1700 3625 1875 4400 
L 1375 4400 
Q 1050 4400 775 4325 
L 550 4550 
z
M 4100 650 
Q 4125 1525 4125 2475 
Q 4125 3425 4100 4100 
L 4650 3875 
L 4450 3675 
L 4450 1625 
Q 4450 1200 4475 800 
L 4100 650 
z
M 5325 3950 
Q 5325 4850 5300 5150 
L 5875 4900 
L 5675 4700 
L 5675 225 
Q 5700 -400 5050 -600 
Q 5025 -175 4125 0 
L 4125 100 
Q 4825 50 5075 37 
Q 5325 25 5325 350 
L 5325 3950 
z
" id="SimSun-5217" transform="scale(0.015625)"/>
      </defs>
      <use xlink:href="#SimSun-65f6"/>
      <use x="100" xlink:href="#SimSun-95f4"/>
      <use x="200" xlink:href="#SimSun-5e8f"/>
      <use x="300" xlink:href="#SimSun-5217"/>
     </g>
    </g>
   </g>
   <g id="matplotlib.axis_2">
    <g id="ytick_1">
     <g id="line2d_5">
      <defs>
       <path d="M 0 0 
L 3.5 0 
" id="m8c4a62b7a6" style="stroke:#000000;stroke-width:0.8;"/>
      </defs>
      <g>
       <use style="stroke:#000000;stroke-width:0.8;" x="25.576172" xlink:href="#m8c4a62b7a6" y="101.66461"/>
      </g>
     </g>
     <g id="text_6">
      <!-- -20 -->
      <g transform="translate(10.826172 104.345275)scale(0.075 -0.075)">
       <defs>
        <path d="M 200 2225 
L 200 2450 
L 2975 2450 
L 2975 2225 
L 200 2225 
z
" id="SimSun-2d" transform="scale(0.015625)"/>
        <path d="M 2325 3325 
Q 2325 3775 2125 4012 
Q 1925 4250 1525 4250 
Q 1225 4250 1012 4087 
Q 800 3925 800 3675 
Q 800 3525 900 3425 
Q 975 3325 975 3225 
Q 975 3100 912 3037 
Q 850 2975 725 2975 
Q 575 2975 487 3062 
Q 400 3150 400 3350 
Q 400 3875 775 4150 
Q 1150 4425 1575 4425 
Q 2175 4425 2462 4125 
Q 2750 3825 2750 3375 
Q 2750 3075 2612 2775 
Q 2475 2475 2175 2200 
Q 1450 1500 1062 1062 
Q 675 625 600 475 
L 2075 475 
Q 2300 475 2450 650 
Q 2600 825 2650 1175 
L 2800 1175 
L 2650 100 
L 325 100 
L 325 425 
Q 450 650 737 1000 
Q 1025 1350 1500 1825 
Q 1925 2250 2125 2625 
Q 2325 3000 2325 3325 
z
" id="SimSun-32" transform="scale(0.015625)"/>
       </defs>
       <use xlink:href="#SimSun-2d"/>
       <use x="50" xlink:href="#SimSun-32"/>
       <use x="100" xlink:href="#SimSun-30"/>
      </g>
     </g>
    </g>
    <g id="ytick_2">
     <g id="line2d_6">
      <g>
       <use style="stroke:#000000;stroke-width:0.8;" x="25.576172" xlink:href="#m8c4a62b7a6" y="74.614933"/>
      </g>
     </g>
     <g id="text_7">
      <!-- 0 -->
      <g transform="translate(18.326172 77.295598)scale(0.075 -0.075)">
       <use xlink:href="#SimSun-30"/>
      </g>
     </g>
    </g>
    <g id="ytick_3">
     <g id="line2d_7">
      <g>
       <use style="stroke:#000000;stroke-width:0.8;" x="25.576172" xlink:href="#m8c4a62b7a6" y="47.565257"/>
      </g>
     </g>
     <g id="text_8">
      <!-- 20 -->
      <g transform="translate(14.576172 50.245921)scale(0.075 -0.075)">
       <use xlink:href="#SimSun-32"/>
       <use x="50" xlink:href="#SimSun-30"/>
      </g>
     </g>
    </g>
    <g id="ytick_4">
     <g id="line2d_8">
      <g>
       <use style="stroke:#000000;stroke-width:0.8;" x="25.576172" xlink:href="#m8c4a62b7a6" y="20.51558"/>
      </g>
     </g>
     <g id="text_9">
      <!-- 40 -->
      <g transform="translate(14.576172 23.196244)scale(0.075 -0.075)">
       <defs>
        <path d="M 2300 575 
Q 2300 400 2400 325 
Q 2500 250 2675 250 
L 2900 250 
L 2900 100 
L 1250 100 
L 1250 250 
L 1525 250 
Q 1725 250 1812 325 
Q 1900 400 1900 575 
L 1900 1400 
L 225 1400 
L 225 1525 
L 2050 4425 
L 2300 4425 
L 2300 1550 
L 2975 1550 
L 2975 1400 
L 2300 1400 
L 2300 575 
z
M 1875 3800 
L 450 1550 
L 1900 1550 
L 1900 3800 
L 1875 3800 
z
" id="SimSun-34" transform="scale(0.015625)"/>
       </defs>
       <use xlink:href="#SimSun-34"/>
       <use x="50" xlink:href="#SimSun-30"/>
      </g>
     </g>
    </g>
    <g id="text_10">
     <!-- 延误时间 -->
     <g transform="translate(5.859375 73.212)rotate(-90)scale(0.075 -0.075)">
      <defs>
       <path d="M 500 4450 
L 1800 4450 
L 2050 4700 
L 2450 4300 
Q 2225 4275 1900 3775 
Q 1575 3250 1250 2750 
L 1975 2750 
L 2150 3000 
L 2525 2675 
L 2325 2525 
Q 2175 1550 1875 750 
Q 2500 250 3112 175 
Q 3725 100 4350 100 
Q 5175 100 6025 175 
L 6025 75 
Q 5525 -25 5525 -350 
Q 3800 -350 3100 -187 
Q 2400 -25 1725 525 
Q 1175 -150 325 -525 
L 275 -450 
Q 1025 0 1500 750 
Q 1175 1175 825 2025 
L 900 2050 
Q 1275 1350 1625 1000 
Q 1925 1775 2000 2600 
L 1200 2600 
L 1050 2425 
L 725 2725 
Q 1025 2925 1362 3462 
Q 1700 4000 1825 4300 
L 1000 4300 
L 700 4250 
L 500 4450 
z
M 2800 4200 
Q 3675 4300 4412 4500 
Q 5150 4700 5350 4850 
L 5775 4400 
Q 5500 4400 5162 4350 
Q 4825 4300 4500 4250 
L 4500 2800 
L 5050 2800 
L 5350 3100 
L 5800 2650 
L 4500 2650 
L 4500 1025 
L 5200 1025 
L 5500 1325 
L 5950 875 
L 3425 875 
L 3225 650 
L 2900 975 
L 3075 1125 
L 3075 2275 
Q 3075 2775 3050 3200 
L 3575 2950 
L 3400 2825 
L 3400 1025 
L 4175 1025 
L 4175 4225 
Q 3575 4150 2825 4100 
L 2800 4200 
z
" id="SimSun-5ef6" transform="scale(0.015625)"/>
       <path d="M 975 4900 
L 1050 4950 
Q 1525 4650 1650 4487 
Q 1775 4325 1750 4150 
Q 1725 3975 1637 3900 
Q 1550 3825 1525 3825 
Q 1425 3825 1375 4050 
Q 1300 4375 975 4900 
z
M 1625 600 
L 2475 1375 
L 2550 1325 
Q 2125 750 1900 450 
Q 1650 125 1525 -150 
L 1200 250 
Q 1300 375 1300 600 
L 1300 2775 
L 1025 2775 
Q 825 2775 550 2700 
L 325 2925 
L 1275 2925 
L 1450 3175 
L 1825 2850 
L 1625 2700 
L 1625 600 
z
M 3100 4650 
L 3100 3550 
L 4950 3550 
L 4950 4650 
L 3100 4650 
z
M 2750 3100 
Q 2775 3625 2775 4075 
Q 2775 4525 2750 5000 
L 3100 4800 
L 4925 4800 
L 5075 5025 
L 5450 4750 
L 5275 4600 
Q 5275 3800 5300 3325 
L 4950 3175 
L 4950 3400 
L 3100 3400 
L 3100 3225 
L 2750 3100 
z
M 2375 2725 
L 5050 2725 
L 5375 3050 
L 5825 2575 
L 4125 2575 
Q 4100 2100 4075 1675 
L 5275 1675 
L 5600 2000 
L 6050 1525 
L 4275 1525 
Q 4875 100 6075 -100 
L 6075 -200 
Q 5700 -200 5575 -500 
Q 4450 225 4175 1525 
L 4050 1525 
Q 3675 -50 1925 -600 
L 1875 -525 
Q 3425 250 3700 1525 
L 2750 1525 
Q 2500 1525 2225 1450 
L 2000 1675 
L 3725 1675 
Q 3775 2150 3775 2575 
L 3125 2575 
Q 2875 2575 2600 2500 
L 2375 2725 
z
" id="SimSun-8bef" transform="scale(0.015625)"/>
      </defs>
      <use xlink:href="#SimSun-5ef6"/>
      <use x="100" xlink:href="#SimSun-8bef"/>
      <use x="200" xlink:href="#SimSun-65f6"/>
      <use x="300" xlink:href="#SimSun-95f4"/>
     </g>
    </g>
   </g>
   <g id="line2d_9">
    <path clip-path="url(#p1c9dde4daa)" d="M 33.438899 77.319902 
L 34.397768 81.377353 
L 35.356638 73.26245 
L 36.315507 74.614934 
L 37.274376 74.614934 
L 39.192114 77.319902 
L 40.150983 75.967418 
L 41.109853 71.909966 
L 42.068722 73.26245 
L 43.027591 73.26245 
L 43.98646 70.557482 
L 45.904198 70.557482 
L 46.863068 69.204998 
L 47.821937 70.557482 
L 48.780806 67.852514 
L 50.698544 67.852514 
L 51.657414 66.50003 
L 52.616283 70.557482 
L 53.575152 65.147546 
L 54.534021 66.50003 
L 55.49289 65.147546 
L 56.451759 61.090095 
L 57.410629 66.50003 
L 58.369498 63.795063 
L 59.328367 67.852514 
L 60.287236 66.50003 
L 61.246105 61.090095 
L 62.204975 65.147546 
L 63.163844 61.090095 
L 64.122713 59.737611 
L 65.081582 54.327676 
L 66.040451 62.442579 
L 66.99932 57.032643 
L 67.95819 65.147546 
L 68.917059 58.385127 
L 69.875928 52.975189 
L 70.834797 44.860286 
L 71.793666 35.392899 
L 73.711405 13.753155 
L 74.670274 16.458128 
L 75.629143 21.868058 
L 76.588012 21.868058 
L 77.546881 35.392899 
L 78.505751 32.687932 
L 79.46462 32.687932 
L 80.423489 38.097867 
L 81.382358 40.802835 
L 82.341227 46.21277 
L 83.300096 50.270222 
L 84.258966 58.385127 
L 85.217835 57.032643 
L 86.176704 57.032643 
L 87.135573 62.442579 
L 89.053312 65.147546 
L 90.97105 65.147546 
L 92.888788 67.852514 
L 93.847657 62.442579 
L 94.806527 61.090095 
L 95.765396 63.795063 
L 96.724265 62.442579 
L 97.683134 63.795063 
L 98.642003 66.50003 
L 99.600873 67.852514 
L 100.559742 65.147546 
L 101.518611 65.147546 
L 102.47748 69.204998 
L 103.436349 66.50003 
L 104.395218 69.204998 
L 105.354088 66.50003 
L 107.271826 71.909966 
L 108.230695 73.26245 
L 109.189564 71.909966 
L 110.148434 75.967418 
L 111.107303 73.26245 
L 113.98391 77.319902 
L 114.942779 77.319902 
L 115.901649 78.672385 
L 116.860518 81.377353 
L 117.819387 88.139772 
L 119.737125 90.844742 
L 123.572602 90.844742 
L 125.49034 93.549707 
L 129.325817 93.549707 
L 130.284686 94.902191 
L 132.202425 94.902191 
L 134.120163 97.607159 
L 135.079032 97.607159 
L 136.037901 98.959643 
L 137.95564 98.959643 
L 138.914509 100.312129 
L 139.873378 100.312129 
L 140.832247 101.66461 
L 141.791116 101.66461 
L 142.749986 111.132 
L 143.708855 104.369581 
L 145.626593 104.369581 
L 146.585462 100.312129 
L 148.503201 100.312129 
L 149.46207 105.722062 
L 150.420939 96.254675 
L 151.379808 97.607159 
L 152.338677 97.607159 
L 153.297547 94.902191 
L 154.256416 97.607159 
L 155.215285 96.254675 
L 156.174154 92.197224 
L 157.133023 92.197224 
L 158.091892 96.254675 
L 160.009631 93.549707 
L 160.9685 93.549707 
L 161.927369 89.492256 
L 162.886238 84.082321 
L 163.845108 75.967418 
L 164.803977 74.614934 
L 165.762846 78.672385 
L 167.680584 73.26245 
L 168.639453 73.26245 
L 169.598323 71.909966 
L 170.557192 75.967418 
L 171.516061 74.614934 
L 172.47493 70.557482 
L 173.433799 69.204998 
L 174.392669 70.557482 
L 175.351538 74.614934 
L 176.310407 70.557482 
L 177.269276 70.557482 
L 178.228145 66.50003 
L 179.187014 67.852514 
L 180.145884 67.852514 
L 181.104753 66.50003 
L 183.022491 66.50003 
L 183.98136 67.852514 
L 184.94023 63.795063 
L 185.899099 55.68016 
L 186.857968 61.090095 
L 187.816837 55.68016 
L 188.775706 57.032643 
L 189.734575 50.270222 
L 190.693445 50.270222 
L 190.693445 50.270222 
" style="fill:none;stroke:#0000ff;stroke-linecap:square;stroke-width:0.8;"/>
   </g>
   <g id="line2d_10">
    <path clip-path="url(#p1c9dde4daa)" d="M 33.438899 87.200557 
L 34.397768 82.112081 
L 35.356638 79.377804 
L 36.315507 73.539762 
L 37.274376 70.713693 
L 38.233245 69.058939 
L 39.192114 68.505969 
L 40.150983 70.877194 
L 41.109853 72.946474 
L 42.068722 73.795088 
L 43.98646 73.120893 
L 44.945329 72.444353 
L 45.904198 70.552474 
L 46.863068 69.798109 
L 47.821937 68.470509 
L 48.780806 68.909006 
L 49.739675 68.421204 
L 50.698544 68.357503 
L 51.657414 67.757046 
L 52.616283 67.006077 
L 53.575152 69.467277 
L 54.534021 67.590307 
L 55.49289 67.310927 
L 56.451759 66.582771 
L 57.410629 63.120296 
L 58.369498 65.020251 
L 59.328367 64.087031 
L 60.287236 65.946193 
L 61.246105 66.710916 
L 62.204975 64.208194 
L 63.163844 65.615348 
L 65.081582 61.745862 
L 66.040451 56.772531 
L 66.99932 57.237056 
L 67.95819 55.643085 
L 68.917059 59.049841 
L 69.875928 58.825911 
L 70.834797 55.740059 
L 71.793666 47.811611 
L 72.752536 35.798556 
L 73.711405 21.657223 
L 74.670274 10.032308 
L 75.629143 5.292 
L 76.588012 6.211849 
L 77.546881 8.993402 
L 78.505751 21.32131 
L 80.423489 30.318647 
L 81.382358 36.713984 
L 83.300096 47.571902 
L 84.258966 50.961516 
L 85.217835 56.09032 
L 86.176704 59.0839 
L 87.135573 60.231089 
L 88.094442 63.763281 
L 89.053312 65.803523 
L 90.012181 67.189177 
L 90.97105 67.973798 
L 91.929919 68.168414 
L 93.847657 69.071271 
L 94.806527 67.852054 
L 95.765396 65.688835 
L 96.724265 64.689581 
L 97.683134 63.346632 
L 98.642003 63.259195 
L 100.559742 66.478639 
L 101.518611 66.576686 
L 102.47748 66.902158 
L 103.436349 69.163581 
L 104.395218 69.09949 
L 105.354088 69.84916 
L 106.312957 69.541643 
L 107.271826 70.016365 
L 109.189564 72.554051 
L 110.148434 73.365378 
L 111.107303 74.883281 
L 112.066172 75.28891 
L 113.98391 76.809263 
L 114.942779 77.991367 
L 115.901649 78.449777 
L 116.860518 79.301661 
L 117.819387 80.866441 
L 118.778256 84.369664 
L 120.695994 90.552096 
L 121.654864 92.593663 
L 122.613733 94.020286 
L 123.572602 94.877628 
L 124.531471 95.369336 
L 125.49034 95.316675 
L 126.44921 95.102146 
L 127.408079 94.712558 
L 130.284686 95.278272 
L 131.243555 95.766614 
L 132.202425 96.068403 
L 133.161294 96.174584 
L 134.120163 96.53334 
L 136.996771 98.791627 
L 137.95564 99.34832 
L 138.914509 99.649255 
L 141.791116 100.918413 
L 142.749986 101.151594 
L 143.708855 103.534427 
L 144.667724 103.878112 
L 145.626593 103.96887 
L 146.585462 103.907185 
L 147.544332 102.922178 
L 148.503201 101.735082 
L 149.46207 100.825651 
L 150.420939 101.267457 
L 151.379808 99.360271 
L 152.338677 97.901501 
L 153.297547 97.752468 
L 154.256416 96.574759 
L 155.215285 96.42153 
L 156.174154 96.388701 
L 157.133023 94.690432 
L 158.091892 93.314332 
L 159.050762 93.808236 
L 160.009631 94.866871 
L 160.9685 94.413568 
L 161.927369 94.295778 
L 162.886238 92.956897 
L 163.845108 89.373452 
L 165.762846 77.366348 
L 168.639453 66.894236 
L 169.598323 66.038492 
L 170.557192 65.637311 
L 171.516061 69.65294 
L 172.47493 72.699325 
L 173.433799 72.461254 
L 174.392669 70.29492 
L 175.351538 69.53414 
L 176.310407 72.09283 
L 177.269276 71.910496 
L 178.228145 71.546793 
L 179.187014 69.055615 
L 180.145884 67.517814 
L 181.104753 67.852668 
L 182.063622 67.312163 
L 183.022491 66.513346 
L 183.98136 65.559586 
L 184.94023 66.359463 
L 185.899099 65.750318 
L 186.857968 59.363749 
L 187.816837 58.969355 
L 188.775706 53.918539 
L 189.734575 52.072892 
L 190.693445 46.720287 
L 190.693445 46.720287 
" style="fill:none;stroke:#008000;stroke-dasharray:2.96,1.28;stroke-dashoffset:0;stroke-width:0.8;"/>
   </g>
   <g id="line2d_11">
    <path clip-path="url(#p1c9dde4daa)" d="M 33.438899 77.541641 
L 34.397768 77.907215 
L 35.356638 74.320638 
L 36.315507 71.361366 
L 37.274376 71.889331 
L 38.233245 72.860779 
L 39.192114 74.294557 
L 40.150983 73.827853 
L 41.109853 71.073518 
L 42.068722 70.48753 
L 43.027591 71.119244 
L 43.98646 69.958475 
L 44.945329 69.127117 
L 45.904198 69.053997 
L 46.863068 68.618452 
L 47.821937 68.801148 
L 48.780806 68.222183 
L 49.739675 67.452251 
L 50.698544 67.253096 
L 51.657414 66.577081 
L 52.616283 67.712701 
L 54.534021 65.979556 
L 55.49289 65.788928 
L 56.451759 63.607595 
L 57.410629 64.429382 
L 58.369498 64.644017 
L 59.328367 65.589603 
L 60.287236 66.1264 
L 61.246105 63.177116 
L 62.204975 62.777827 
L 63.163844 62.131488 
L 64.122713 60.187262 
L 65.081582 55.555449 
L 66.040451 57.516354 
L 66.99932 56.710914 
L 67.95819 58.398164 
L 68.917059 56.873179 
L 70.834797 41.926423 
L 72.752536 22.328073 
L 73.711405 14.745534 
L 74.670274 15.835951 
L 75.629143 21.38753 
L 76.588012 24.464804 
L 77.546881 31.695367 
L 78.505751 34.631957 
L 79.46462 33.50972 
L 80.423489 37.012238 
L 83.300096 51.004256 
L 84.258966 57.704967 
L 85.217835 60.507292 
L 86.176704 60.245568 
L 87.135573 62.511471 
L 88.094442 64.382184 
L 89.053312 65.20604 
L 90.012181 65.614874 
L 90.97105 65.707668 
L 91.929919 66.330486 
L 92.888788 67.176268 
L 93.847657 65.618301 
L 94.806527 63.431478 
L 95.765396 63.997797 
L 96.724265 64.418787 
L 97.683134 64.554368 
L 99.600873 67.136162 
L 100.559742 66.641727 
L 101.518611 65.992107 
L 102.47748 67.475769 
L 104.395218 67.790763 
L 105.354088 67.604404 
L 106.312957 67.944821 
L 107.271826 69.927356 
L 108.230695 71.39375 
L 109.189564 71.432508 
L 110.148434 72.803706 
L 111.107303 73.293924 
L 112.066172 73.131138 
L 113.98391 76.758814 
L 114.942779 77.737973 
L 115.901649 79.43512 
L 116.860518 82.720603 
L 117.819387 87.996939 
L 118.778256 91.378395 
L 119.737125 92.459046 
L 120.695994 92.958891 
L 122.613733 93.079829 
L 123.572602 93.215696 
L 124.531471 93.765949 
L 125.49034 94.627792 
L 126.44921 95.115968 
L 128.366948 95.429666 
L 129.325817 95.631968 
L 131.243555 96.599519 
L 132.202425 96.719927 
L 133.161294 97.220339 
L 134.120163 98.060441 
L 136.996771 99.467851 
L 137.95564 99.608927 
L 141.791116 101.398348 
L 142.749986 103.363395 
L 143.708855 104.300002 
L 144.667724 103.393353 
L 145.626593 103.343754 
L 147.544332 101.35969 
L 148.503201 101.019833 
L 149.46207 101.683612 
L 150.420939 100.699545 
L 151.379808 98.687471 
L 152.338677 98.729749 
L 153.297547 97.867944 
L 154.256416 97.709024 
L 155.215285 97.766215 
L 156.174154 96.110419 
L 157.133023 94.741885 
L 158.091892 95.507791 
L 159.050762 95.814351 
L 160.009631 94.706163 
L 160.9685 93.965239 
L 161.927369 91.907391 
L 162.886238 87.247455 
L 163.845108 77.978688 
L 164.803977 72.150354 
L 165.762846 73.589985 
L 166.721715 74.208887 
L 167.680584 71.462681 
L 168.639453 70.669122 
L 169.598323 70.341264 
L 170.557192 71.47664 
L 171.516061 72.323508 
L 172.47493 70.04724 
L 173.433799 68.495188 
L 174.392669 68.527239 
L 175.351538 70.539273 
L 176.310407 70.164436 
L 177.269276 68.905301 
L 178.228145 67.237308 
L 179.187014 66.567156 
L 180.145884 66.941886 
L 183.022491 65.630933 
L 183.98136 66.157759 
L 184.94023 64.812368 
L 185.899099 59.454113 
L 186.857968 58.652506 
L 187.816837 57.461718 
L 188.775706 54.493405 
L 189.734575 49.201797 
L 190.693445 45.268344 
L 190.693445 45.268344 
" style="fill:none;stroke:#ff0000;stroke-linecap:square;stroke-width:0.8;"/>
   </g>
   <g id="patch_3">
    <path d="M 25.576172 116.424 
L 25.576172 0 
" style="fill:none;stroke:#000000;stroke-linecap:square;stroke-linejoin:miter;stroke-width:0.8;"/>
   </g>
   <g id="patch_4">
    <path d="M 198.556172 116.424 
L 198.556172 0 
" style="fill:none;stroke:#000000;stroke-linecap:square;stroke-linejoin:miter;stroke-width:0.8;"/>
   </g>
   <g id="patch_5">
    <path d="M 25.576172 116.424 
L 198.556172 116.424 
" style="fill:none;stroke:#000000;stroke-linecap:square;stroke-linejoin:miter;stroke-width:0.8;"/>
   </g>
   <g id="patch_6">
    <path d="M 25.576172 0 
L 198.556172 0 
" style="fill:none;stroke:#000000;stroke-linecap:square;stroke-linejoin:miter;stroke-width:0.8;"/>
   </g>
   <g id="legend_1">
    <g id="patch_7">
     <path d="M 91.826484 37.826953 
L 193.306172 37.826953 
Q 194.806172 37.826953 194.806172 36.326953 
L 194.806172 5.25 
Q 194.806172 3.75 193.306172 3.75 
L 91.826484 3.75 
Q 90.326484 3.75 90.326484 5.25 
L 90.326484 36.326953 
Q 90.326484 37.826953 91.826484 37.826953 
z
" style="fill:#ffffff;opacity:0.8;stroke:#cccccc;stroke-linejoin:miter;"/>
    </g>
    <g id="line2d_12">
     <path d="M 93.326484 9.375 
L 108.326484 9.375 
" style="fill:none;stroke:#0000ff;stroke-linecap:square;stroke-width:0.8;"/>
    </g>
    <g id="line2d_13"/>
    <g id="text_11">
     <!-- Ground Truth -->
     <g transform="translate(114.326484 12)scale(0.075 -0.075)">
      <defs>
       <path d="M 3928 4334 
L 4038 2997 
L 3928 2997 
Q 3763 3497 3500 3750 
Q 3122 4116 2528 4116 
Q 1719 4116 1297 3475 
Q 944 2934 944 2188 
Q 944 1581 1178 1081 
Q 1413 581 1792 348 
Q 2172 116 2572 116 
Q 2806 116 3025 175 
Q 3244 234 3447 350 
L 3447 1575 
Q 3447 1894 3398 1992 
Q 3350 2091 3248 2142 
Q 3147 2194 2891 2194 
L 2891 2313 
L 4531 2313 
L 4531 2194 
L 4453 2194 
Q 4209 2194 4119 2031 
Q 4056 1916 4056 1575 
L 4056 278 
Q 3697 84 3347 -6 
Q 2997 -97 2569 -97 
Q 1341 -97 703 691 
Q 225 1281 225 2053 
Q 225 2613 494 3125 
Q 813 3734 1369 4063 
Q 1834 4334 2469 4334 
Q 2700 4334 2889 4296 
Q 3078 4259 3425 4131 
Q 3600 4066 3659 4066 
Q 3719 4066 3761 4120 
Q 3803 4175 3813 4334 
L 3928 4334 
z
" id="TimesNewRomanPSMT-47" transform="scale(0.015625)"/>
       <path d="M 1038 2947 
L 1038 2303 
Q 1397 2947 1775 2947 
Q 1947 2947 2059 2842 
Q 2172 2738 2172 2600 
Q 2172 2478 2090 2393 
Q 2009 2309 1897 2309 
Q 1788 2309 1652 2417 
Q 1516 2525 1450 2525 
Q 1394 2525 1328 2463 
Q 1188 2334 1038 2041 
L 1038 669 
Q 1038 431 1097 309 
Q 1138 225 1241 169 
Q 1344 113 1538 113 
L 1538 0 
L 72 0 
L 72 113 
Q 291 113 397 181 
Q 475 231 506 341 
Q 522 394 522 644 
L 522 1753 
Q 522 2253 501 2348 
Q 481 2444 426 2487 
Q 372 2531 291 2531 
Q 194 2531 72 2484 
L 41 2597 
L 906 2947 
L 1038 2947 
z
" id="TimesNewRomanPSMT-72" transform="scale(0.015625)"/>
       <path d="M 1600 2947 
Q 2250 2947 2644 2453 
Q 2978 2031 2978 1484 
Q 2978 1100 2793 706 
Q 2609 313 2286 112 
Q 1963 -88 1566 -88 
Q 919 -88 538 428 
Q 216 863 216 1403 
Q 216 1797 411 2186 
Q 606 2575 925 2761 
Q 1244 2947 1600 2947 
z
M 1503 2744 
Q 1338 2744 1170 2645 
Q 1003 2547 900 2300 
Q 797 2053 797 1666 
Q 797 1041 1045 587 
Q 1294 134 1700 134 
Q 2003 134 2200 384 
Q 2397 634 2397 1244 
Q 2397 2006 2069 2444 
Q 1847 2744 1503 2744 
z
" id="TimesNewRomanPSMT-6f" transform="scale(0.015625)"/>
       <path d="M 2709 2863 
L 2709 1128 
Q 2709 631 2732 520 
Q 2756 409 2807 365 
Q 2859 322 2928 322 
Q 3025 322 3147 375 
L 3191 266 
L 2334 -88 
L 2194 -88 
L 2194 519 
Q 1825 119 1631 15 
Q 1438 -88 1222 -88 
Q 981 -88 804 51 
Q 628 191 559 409 
Q 491 628 491 1028 
L 491 2306 
Q 491 2509 447 2587 
Q 403 2666 317 2708 
Q 231 2750 6 2747 
L 6 2863 
L 1009 2863 
L 1009 947 
Q 1009 547 1148 422 
Q 1288 297 1484 297 
Q 1619 297 1789 381 
Q 1959 466 2194 703 
L 2194 2325 
Q 2194 2569 2105 2655 
Q 2016 2741 1734 2747 
L 1734 2863 
L 2709 2863 
z
" id="TimesNewRomanPSMT-75" transform="scale(0.015625)"/>
       <path d="M 1034 2341 
Q 1538 2947 1994 2947 
Q 2228 2947 2397 2830 
Q 2566 2713 2666 2444 
Q 2734 2256 2734 1869 
L 2734 647 
Q 2734 375 2778 278 
Q 2813 200 2889 156 
Q 2966 113 3172 113 
L 3172 0 
L 1756 0 
L 1756 113 
L 1816 113 
Q 2016 113 2095 173 
Q 2175 234 2206 353 
Q 2219 400 2219 647 
L 2219 1819 
Q 2219 2209 2117 2386 
Q 2016 2563 1775 2563 
Q 1403 2563 1034 2156 
L 1034 647 
Q 1034 356 1069 288 
Q 1113 197 1189 155 
Q 1266 113 1500 113 
L 1500 0 
L 84 0 
L 84 113 
L 147 113 
Q 366 113 442 223 
Q 519 334 519 647 
L 519 1709 
Q 519 2225 495 2337 
Q 472 2450 423 2490 
Q 375 2531 294 2531 
Q 206 2531 84 2484 
L 38 2597 
L 900 2947 
L 1034 2947 
L 1034 2341 
z
" id="TimesNewRomanPSMT-6e" transform="scale(0.015625)"/>
       <path d="M 2222 322 
Q 2013 103 1813 7 
Q 1613 -88 1381 -88 
Q 913 -88 563 304 
Q 213 697 213 1313 
Q 213 1928 600 2439 
Q 988 2950 1597 2950 
Q 1975 2950 2222 2709 
L 2222 3238 
Q 2222 3728 2198 3840 
Q 2175 3953 2125 3993 
Q 2075 4034 2000 4034 
Q 1919 4034 1784 3984 
L 1744 4094 
L 2597 4444 
L 2738 4444 
L 2738 1134 
Q 2738 631 2761 520 
Q 2784 409 2836 365 
Q 2888 322 2956 322 
Q 3041 322 3181 375 
L 3216 266 
L 2366 -88 
L 2222 -88 
L 2222 322 
z
M 2222 541 
L 2222 2016 
Q 2203 2228 2109 2403 
Q 2016 2578 1861 2667 
Q 1706 2756 1559 2756 
Q 1284 2756 1069 2509 
Q 784 2184 784 1559 
Q 784 928 1059 592 
Q 1334 256 1672 256 
Q 1956 256 2222 541 
z
" id="TimesNewRomanPSMT-64" transform="scale(0.015625)"/>
       <path id="TimesNewRomanPSMT-20" transform="scale(0.015625)"/>
       <path d="M 3703 4238 
L 3750 3244 
L 3631 3244 
Q 3597 3506 3538 3619 
Q 3441 3800 3280 3886 
Q 3119 3972 2856 3972 
L 2259 3972 
L 2259 734 
Q 2259 344 2344 247 
Q 2463 116 2709 116 
L 2856 116 
L 2856 0 
L 1059 0 
L 1059 116 
L 1209 116 
Q 1478 116 1591 278 
Q 1659 378 1659 734 
L 1659 3972 
L 1150 3972 
Q 853 3972 728 3928 
Q 566 3869 450 3700 
Q 334 3531 313 3244 
L 194 3244 
L 244 4238 
L 3703 4238 
z
" id="TimesNewRomanPSMT-54" transform="scale(0.015625)"/>
       <path d="M 1031 3803 
L 1031 2863 
L 1700 2863 
L 1700 2644 
L 1031 2644 
L 1031 788 
Q 1031 509 1111 412 
Q 1191 316 1316 316 
Q 1419 316 1516 380 
Q 1613 444 1666 569 
L 1788 569 
Q 1678 263 1478 108 
Q 1278 -47 1066 -47 
Q 922 -47 784 33 
Q 647 113 581 261 
Q 516 409 516 719 
L 516 2644 
L 63 2644 
L 63 2747 
Q 234 2816 414 2980 
Q 594 3144 734 3369 
Q 806 3488 934 3803 
L 1031 3803 
z
" id="TimesNewRomanPSMT-74" transform="scale(0.015625)"/>
       <path d="M 1041 4444 
L 1041 2350 
Q 1388 2731 1591 2839 
Q 1794 2947 1997 2947 
Q 2241 2947 2416 2812 
Q 2591 2678 2675 2391 
Q 2734 2191 2734 1659 
L 2734 647 
Q 2734 375 2778 275 
Q 2809 200 2884 156 
Q 2959 113 3159 113 
L 3159 0 
L 1753 0 
L 1753 113 
L 1819 113 
Q 2019 113 2097 173 
Q 2175 234 2206 353 
Q 2216 403 2216 647 
L 2216 1659 
Q 2216 2128 2167 2275 
Q 2119 2422 2012 2495 
Q 1906 2569 1756 2569 
Q 1603 2569 1437 2487 
Q 1272 2406 1041 2159 
L 1041 647 
Q 1041 353 1073 281 
Q 1106 209 1195 161 
Q 1284 113 1503 113 
L 1503 0 
L 84 0 
L 84 113 
Q 275 113 384 172 
Q 447 203 484 290 
Q 522 378 522 647 
L 522 3238 
Q 522 3728 498 3840 
Q 475 3953 426 3993 
Q 378 4034 297 4034 
Q 231 4034 84 3984 
L 41 4094 
L 897 4444 
L 1041 4444 
z
" id="TimesNewRomanPSMT-68" transform="scale(0.015625)"/>
      </defs>
      <use xlink:href="#TimesNewRomanPSMT-47"/>
      <use x="72.216797" xlink:href="#TimesNewRomanPSMT-72"/>
      <use x="105.517578" xlink:href="#TimesNewRomanPSMT-6f"/>
      <use x="155.517578" xlink:href="#TimesNewRomanPSMT-75"/>
      <use x="205.517578" xlink:href="#TimesNewRomanPSMT-6e"/>
      <use x="255.517578" xlink:href="#TimesNewRomanPSMT-64"/>
      <use x="305.517578" xlink:href="#TimesNewRomanPSMT-20"/>
      <use x="328.767578" xlink:href="#TimesNewRomanPSMT-54"/>
      <use x="386.351562" xlink:href="#TimesNewRomanPSMT-72"/>
      <use x="419.652344" xlink:href="#TimesNewRomanPSMT-75"/>
      <use x="469.652344" xlink:href="#TimesNewRomanPSMT-74"/>
      <use x="497.435547" xlink:href="#TimesNewRomanPSMT-68"/>
     </g>
    </g>
    <g id="line2d_14">
     <path d="M 93.326484 19.979297 
L 108.326484 19.979297 
" style="fill:none;stroke:#008000;stroke-dasharray:2.96,1.28;stroke-dashoffset:0;stroke-width:0.8;"/>
    </g>
    <g id="line2d_15"/>
    <g id="text_12">
     <!-- Single feature Predictions -->
     <g transform="translate(114.326484 22.604297)scale(0.075 -0.075)">
      <defs>
       <path d="M 2934 4334 
L 2934 2869 
L 2819 2869 
Q 2763 3291 2617 3541 
Q 2472 3791 2203 3937 
Q 1934 4084 1647 4084 
Q 1322 4084 1109 3886 
Q 897 3688 897 3434 
Q 897 3241 1031 3081 
Q 1225 2847 1953 2456 
Q 2547 2138 2764 1967 
Q 2981 1797 3098 1565 
Q 3216 1334 3216 1081 
Q 3216 600 2842 251 
Q 2469 -97 1881 -97 
Q 1697 -97 1534 -69 
Q 1438 -53 1133 45 
Q 828 144 747 144 
Q 669 144 623 97 
Q 578 50 556 -97 
L 441 -97 
L 441 1356 
L 556 1356 
Q 638 900 775 673 
Q 913 447 1195 297 
Q 1478 147 1816 147 
Q 2206 147 2432 353 
Q 2659 559 2659 841 
Q 2659 997 2573 1156 
Q 2488 1316 2306 1453 
Q 2184 1547 1640 1851 
Q 1097 2156 867 2337 
Q 638 2519 519 2737 
Q 400 2956 400 3219 
Q 400 3675 750 4004 
Q 1100 4334 1641 4334 
Q 1978 4334 2356 4169 
Q 2531 4091 2603 4091 
Q 2684 4091 2736 4139 
Q 2788 4188 2819 4334 
L 2934 4334 
z
" id="TimesNewRomanPSMT-53" transform="scale(0.015625)"/>
       <path d="M 928 4444 
Q 1059 4444 1151 4351 
Q 1244 4259 1244 4128 
Q 1244 3997 1151 3903 
Q 1059 3809 928 3809 
Q 797 3809 703 3903 
Q 609 3997 609 4128 
Q 609 4259 701 4351 
Q 794 4444 928 4444 
z
M 1188 2947 
L 1188 647 
Q 1188 378 1227 289 
Q 1266 200 1342 156 
Q 1419 113 1622 113 
L 1622 0 
L 231 0 
L 231 113 
Q 441 113 512 153 
Q 584 194 626 287 
Q 669 381 669 647 
L 669 1750 
Q 669 2216 641 2353 
Q 619 2453 572 2492 
Q 525 2531 444 2531 
Q 356 2531 231 2484 
L 188 2597 
L 1050 2947 
L 1188 2947 
z
" id="TimesNewRomanPSMT-69" transform="scale(0.015625)"/>
       <path d="M 966 1044 
Q 703 1172 562 1401 
Q 422 1631 422 1909 
Q 422 2334 742 2640 
Q 1063 2947 1563 2947 
Q 1972 2947 2272 2747 
L 2878 2747 
Q 3013 2747 3034 2739 
Q 3056 2731 3066 2713 
Q 3084 2684 3084 2613 
Q 3084 2531 3069 2500 
Q 3059 2484 3036 2475 
Q 3013 2466 2878 2466 
L 2506 2466 
Q 2681 2241 2681 1891 
Q 2681 1491 2375 1206 
Q 2069 922 1553 922 
Q 1341 922 1119 984 
Q 981 866 932 777 
Q 884 688 884 625 
Q 884 572 936 522 
Q 988 472 1138 450 
Q 1225 438 1575 428 
Q 2219 413 2409 384 
Q 2700 344 2873 169 
Q 3047 -6 3047 -263 
Q 3047 -616 2716 -925 
Q 2228 -1381 1444 -1381 
Q 841 -1381 425 -1109 
Q 191 -953 191 -784 
Q 191 -709 225 -634 
Q 278 -519 444 -313 
Q 466 -284 763 25 
Q 600 122 533 198 
Q 466 275 466 372 
Q 466 481 555 628 
Q 644 775 966 1044 
z
M 1509 2797 
Q 1278 2797 1122 2612 
Q 966 2428 966 2047 
Q 966 1553 1178 1281 
Q 1341 1075 1591 1075 
Q 1828 1075 1981 1253 
Q 2134 1431 2134 1813 
Q 2134 2309 1919 2591 
Q 1759 2797 1509 2797 
z
M 934 0 
Q 788 -159 713 -296 
Q 638 -434 638 -550 
Q 638 -700 819 -813 
Q 1131 -1006 1722 -1006 
Q 2284 -1006 2551 -807 
Q 2819 -609 2819 -384 
Q 2819 -222 2659 -153 
Q 2497 -84 2016 -72 
Q 1313 -53 934 0 
z
" id="TimesNewRomanPSMT-67" transform="scale(0.015625)"/>
       <path d="M 1184 4444 
L 1184 647 
Q 1184 378 1223 290 
Q 1263 203 1344 158 
Q 1425 113 1647 113 
L 1647 0 
L 244 0 
L 244 113 
Q 441 113 512 153 
Q 584 194 625 287 
Q 666 381 666 647 
L 666 3247 
Q 666 3731 644 3842 
Q 622 3953 573 3993 
Q 525 4034 450 4034 
Q 369 4034 244 3984 
L 191 4094 
L 1044 4444 
L 1184 4444 
z
" id="TimesNewRomanPSMT-6c" transform="scale(0.015625)"/>
       <path d="M 681 1784 
Q 678 1147 991 784 
Q 1303 422 1725 422 
Q 2006 422 2214 576 
Q 2422 731 2563 1106 
L 2659 1044 
Q 2594 616 2278 264 
Q 1963 -88 1488 -88 
Q 972 -88 605 314 
Q 238 716 238 1394 
Q 238 2128 614 2539 
Q 991 2950 1559 2950 
Q 2041 2950 2350 2633 
Q 2659 2316 2659 1784 
L 681 1784 
z
M 681 1966 
L 2006 1966 
Q 1991 2241 1941 2353 
Q 1863 2528 1708 2628 
Q 1553 2728 1384 2728 
Q 1125 2728 920 2526 
Q 716 2325 681 1966 
z
" id="TimesNewRomanPSMT-65" transform="scale(0.015625)"/>
       <path d="M 1319 2638 
L 1319 756 
Q 1319 356 1406 250 
Q 1522 113 1716 113 
L 1975 113 
L 1975 0 
L 266 0 
L 266 113 
L 394 113 
Q 519 113 622 175 
Q 725 238 764 344 
Q 803 450 803 756 
L 803 2638 
L 247 2638 
L 247 2863 
L 803 2863 
L 803 3050 
Q 803 3478 940 3775 
Q 1078 4072 1361 4255 
Q 1644 4438 1997 4438 
Q 2325 4438 2600 4225 
Q 2781 4084 2781 3909 
Q 2781 3816 2700 3733 
Q 2619 3650 2525 3650 
Q 2453 3650 2373 3701 
Q 2294 3753 2178 3923 
Q 2063 4094 1966 4153 
Q 1869 4213 1750 4213 
Q 1606 4213 1506 4136 
Q 1406 4059 1362 3898 
Q 1319 3738 1319 3069 
L 1319 2863 
L 2056 2863 
L 2056 2638 
L 1319 2638 
z
" id="TimesNewRomanPSMT-66" transform="scale(0.015625)"/>
       <path d="M 1822 413 
Q 1381 72 1269 19 
Q 1100 -59 909 -59 
Q 613 -59 420 144 
Q 228 347 228 678 
Q 228 888 322 1041 
Q 450 1253 767 1440 
Q 1084 1628 1822 1897 
L 1822 2009 
Q 1822 2438 1686 2597 
Q 1550 2756 1291 2756 
Q 1094 2756 978 2650 
Q 859 2544 859 2406 
L 866 2225 
Q 866 2081 792 2003 
Q 719 1925 600 1925 
Q 484 1925 411 2006 
Q 338 2088 338 2228 
Q 338 2497 613 2722 
Q 888 2947 1384 2947 
Q 1766 2947 2009 2819 
Q 2194 2722 2281 2516 
Q 2338 2381 2338 1966 
L 2338 994 
Q 2338 584 2353 492 
Q 2369 400 2405 369 
Q 2441 338 2488 338 
Q 2538 338 2575 359 
Q 2641 400 2828 588 
L 2828 413 
Q 2478 -56 2159 -56 
Q 2006 -56 1915 50 
Q 1825 156 1822 413 
z
M 1822 616 
L 1822 1706 
Q 1350 1519 1213 1441 
Q 966 1303 859 1153 
Q 753 1003 753 825 
Q 753 600 887 451 
Q 1022 303 1197 303 
Q 1434 303 1822 616 
z
" id="TimesNewRomanPSMT-61" transform="scale(0.015625)"/>
       <path d="M 1313 1984 
L 1313 750 
Q 1313 350 1400 253 
Q 1519 116 1759 116 
L 1922 116 
L 1922 0 
L 106 0 
L 106 116 
L 266 116 
Q 534 116 650 291 
Q 713 388 713 750 
L 713 3488 
Q 713 3888 628 3984 
Q 506 4122 266 4122 
L 106 4122 
L 106 4238 
L 1659 4238 
Q 2228 4238 2556 4120 
Q 2884 4003 3109 3725 
Q 3334 3447 3334 3066 
Q 3334 2547 2992 2222 
Q 2650 1897 2025 1897 
Q 1872 1897 1694 1919 
Q 1516 1941 1313 1984 
z
M 1313 2163 
Q 1478 2131 1606 2115 
Q 1734 2100 1825 2100 
Q 2150 2100 2386 2351 
Q 2622 2603 2622 3003 
Q 2622 3278 2509 3514 
Q 2397 3750 2190 3867 
Q 1984 3984 1722 3984 
Q 1563 3984 1313 3925 
L 1313 2163 
z
" id="TimesNewRomanPSMT-50" transform="scale(0.015625)"/>
       <path d="M 2631 1088 
Q 2516 522 2178 217 
Q 1841 -88 1431 -88 
Q 944 -88 581 321 
Q 219 731 219 1428 
Q 219 2103 620 2525 
Q 1022 2947 1584 2947 
Q 2006 2947 2278 2723 
Q 2550 2500 2550 2259 
Q 2550 2141 2473 2067 
Q 2397 1994 2259 1994 
Q 2075 1994 1981 2113 
Q 1928 2178 1911 2362 
Q 1894 2547 1784 2644 
Q 1675 2738 1481 2738 
Q 1169 2738 978 2506 
Q 725 2200 725 1697 
Q 725 1184 976 792 
Q 1228 400 1656 400 
Q 1963 400 2206 609 
Q 2378 753 2541 1131 
L 2631 1088 
z
" id="TimesNewRomanPSMT-63" transform="scale(0.015625)"/>
       <path d="M 2050 2947 
L 2050 1972 
L 1947 1972 
Q 1828 2431 1642 2597 
Q 1456 2763 1169 2763 
Q 950 2763 815 2647 
Q 681 2531 681 2391 
Q 681 2216 781 2091 
Q 878 1963 1175 1819 
L 1631 1597 
Q 2266 1288 2266 781 
Q 2266 391 1970 151 
Q 1675 -88 1309 -88 
Q 1047 -88 709 6 
Q 606 38 541 38 
Q 469 38 428 -44 
L 325 -44 
L 325 978 
L 428 978 
Q 516 541 762 319 
Q 1009 97 1316 97 
Q 1531 97 1667 223 
Q 1803 350 1803 528 
Q 1803 744 1651 891 
Q 1500 1038 1047 1263 
Q 594 1488 453 1669 
Q 313 1847 313 2119 
Q 313 2472 555 2709 
Q 797 2947 1181 2947 
Q 1350 2947 1591 2875 
Q 1750 2828 1803 2828 
Q 1853 2828 1881 2850 
Q 1909 2872 1947 2947 
L 2050 2947 
z
" id="TimesNewRomanPSMT-73" transform="scale(0.015625)"/>
      </defs>
      <use xlink:href="#TimesNewRomanPSMT-53"/>
      <use x="55.615234" xlink:href="#TimesNewRomanPSMT-69"/>
      <use x="83.398438" xlink:href="#TimesNewRomanPSMT-6e"/>
      <use x="133.398438" xlink:href="#TimesNewRomanPSMT-67"/>
      <use x="183.398438" xlink:href="#TimesNewRomanPSMT-6c"/>
      <use x="211.181641" xlink:href="#TimesNewRomanPSMT-65"/>
      <use x="255.566406" xlink:href="#TimesNewRomanPSMT-20"/>
      <use x="280.566406" xlink:href="#TimesNewRomanPSMT-66"/>
      <use x="313.867188" xlink:href="#TimesNewRomanPSMT-65"/>
      <use x="358.251953" xlink:href="#TimesNewRomanPSMT-61"/>
      <use x="402.636719" xlink:href="#TimesNewRomanPSMT-74"/>
      <use x="430.419922" xlink:href="#TimesNewRomanPSMT-75"/>
      <use x="480.419922" xlink:href="#TimesNewRomanPSMT-72"/>
      <use x="513.720703" xlink:href="#TimesNewRomanPSMT-65"/>
      <use x="558.105469" xlink:href="#TimesNewRomanPSMT-20"/>
      <use x="583.105469" xlink:href="#TimesNewRomanPSMT-50"/>
      <use x="638.720703" xlink:href="#TimesNewRomanPSMT-72"/>
      <use x="672.021484" xlink:href="#TimesNewRomanPSMT-65"/>
      <use x="716.40625" xlink:href="#TimesNewRomanPSMT-64"/>
      <use x="766.40625" xlink:href="#TimesNewRomanPSMT-69"/>
      <use x="794.189453" xlink:href="#TimesNewRomanPSMT-63"/>
      <use x="838.574219" xlink:href="#TimesNewRomanPSMT-74"/>
      <use x="866.357422" xlink:href="#TimesNewRomanPSMT-69"/>
      <use x="894.140625" xlink:href="#TimesNewRomanPSMT-6f"/>
      <use x="944.140625" xlink:href="#TimesNewRomanPSMT-6e"/>
      <use x="994.140625" xlink:href="#TimesNewRomanPSMT-73"/>
     </g>
    </g>
    <g id="line2d_16">
     <path d="M 93.326484 30.597656 
L 108.326484 30.597656 
" style="fill:none;stroke:#ff0000;stroke-linecap:square;stroke-width:0.8;"/>
    </g>
    <g id="line2d_17"/>
    <g id="text_13">
     <!-- Multi feature Predictions -->
     <g transform="translate(114.326484 33.222656)scale(0.075 -0.075)">
      <defs>
       <path d="M 2619 0 
L 981 3566 
L 981 734 
Q 981 344 1066 247 
Q 1181 116 1431 116 
L 1581 116 
L 1581 0 
L 106 0 
L 106 116 
L 256 116 
Q 525 116 638 278 
Q 706 378 706 734 
L 706 3503 
Q 706 3784 644 3909 
Q 600 4000 483 4061 
Q 366 4122 106 4122 
L 106 4238 
L 1306 4238 
L 2844 922 
L 4356 4238 
L 5556 4238 
L 5556 4122 
L 5409 4122 
Q 5138 4122 5025 3959 
Q 4956 3859 4956 3503 
L 4956 734 
Q 4956 344 5044 247 
Q 5159 116 5409 116 
L 5556 116 
L 5556 0 
L 3756 0 
L 3756 116 
L 3906 116 
Q 4178 116 4288 278 
Q 4356 378 4356 734 
L 4356 3566 
L 2722 0 
L 2619 0 
z
" id="TimesNewRomanPSMT-4d" transform="scale(0.015625)"/>
      </defs>
      <use xlink:href="#TimesNewRomanPSMT-4d"/>
      <use x="88.916016" xlink:href="#TimesNewRomanPSMT-75"/>
      <use x="138.916016" xlink:href="#TimesNewRomanPSMT-6c"/>
      <use x="166.699219" xlink:href="#TimesNewRomanPSMT-74"/>
      <use x="194.482422" xlink:href="#TimesNewRomanPSMT-69"/>
      <use x="222.265625" xlink:href="#TimesNewRomanPSMT-20"/>
      <use x="247.265625" xlink:href="#TimesNewRomanPSMT-66"/>
      <use x="280.566406" xlink:href="#TimesNewRomanPSMT-65"/>
      <use x="324.951172" xlink:href="#TimesNewRomanPSMT-61"/>
      <use x="369.335938" xlink:href="#TimesNewRomanPSMT-74"/>
      <use x="397.119141" xlink:href="#TimesNewRomanPSMT-75"/>
      <use x="447.119141" xlink:href="#TimesNewRomanPSMT-72"/>
      <use x="480.419922" xlink:href="#TimesNewRomanPSMT-65"/>
      <use x="524.804688" xlink:href="#TimesNewRomanPSMT-20"/>
      <use x="549.804688" xlink:href="#TimesNewRomanPSMT-50"/>
      <use x="605.419922" xlink:href="#TimesNewRomanPSMT-72"/>
      <use x="638.720703" xlink:href="#TimesNewRomanPSMT-65"/>
      <use x="683.105469" xlink:href="#TimesNewRomanPSMT-64"/>
      <use x="733.105469" xlink:href="#TimesNewRomanPSMT-69"/>
      <use x="760.888672" xlink:href="#TimesNewRomanPSMT-63"/>
      <use x="805.273438" xlink:href="#TimesNewRomanPSMT-74"/>
      <use x="833.056641" xlink:href="#TimesNewRomanPSMT-69"/>
      <use x="860.839844" xlink:href="#TimesNewRomanPSMT-6f"/>
      <use x="910.839844" xlink:href="#TimesNewRomanPSMT-6e"/>
      <use x="960.839844" xlink:href="#TimesNewRomanPSMT-73"/>
     </g>
    </g>
   </g>
  </g>
 </g>
 <defs>
  <clipPath id="p1c9dde4daa">
   <rect height="116.424" width="172.98" x="25.576172" y="0"/>
  </clipPath>
 </defs>
</svg>
