<?xml version="1.0" encoding="utf-8" standalone="no"?>
<!DOCTYPE svg PUBLIC "-//W3C//DTD SVG 1.1//EN"
  "http://www.w3.org/Graphics/SVG/1.1/DTD/svg11.dtd">
<svg height="162.563344pt" version="1.1" viewBox="0 0 213.747773 162.563344" width="213.747773pt" xmlns="http://www.w3.org/2000/svg" xmlns:xlink="http://www.w3.org/1999/xlink">
 <metadata>
  <rdf:RDF xmlns:cc="http://creativecommons.org/ns#" xmlns:dc="http://purl.org/dc/elements/1.1/" xmlns:rdf="http://www.w3.org/1999/02/22-rdf-syntax-ns#">
   <cc:Work>
    <dc:type rdf:resource="http://purl.org/dc/dcmitype/StillImage"/>
    <dc:date>2023-03-21T20:45:12.513873</dc:date>
    <dc:format>image/svg+xml</dc:format>
    <dc:creator>
     <cc:Agent>
      <dc:title>Matplotlib v3.4.3, https://matplotlib.org/</dc:title>
     </cc:Agent>
    </dc:creator>
   </cc:Work>
  </rdf:RDF>
 </metadata>
 <defs>
  <style type="text/css">*{stroke-linecap:butt;stroke-linejoin:round;}</style>
 </defs>
 <g id="figure_1">
  <g id="patch_1">
   <path d="M 0 162.563344 
L 213.747773 162.563344 
L 213.747773 0 
L 0 0 
z
" style="fill:#ffffff;"/>
  </g>
  <g id="axes_1">
   <g id="patch_2">
    <path d="M 33.346406 133.056 
L 206.326406 133.056 
L 206.326406 0 
L 33.346406 0 
z
" style="fill:#ffffff;"/>
   </g>
   <g id="matplotlib.axis_1">
    <g id="xtick_1">
     <g id="line2d_1">
      <path clip-path="url(#pd6d7bfc5bc)" d="M 33.346406 133.056 
L 33.346406 0 
" style="fill:none;stroke:#008000;stroke-dasharray:1.85,0.8;stroke-dashoffset:0;stroke-width:0.5;"/>
     </g>
     <g id="line2d_2">
      <defs>
       <path d="M 0 0 
L 0 -3.5 
" id="m47c10dbceb" style="stroke:#000000;stroke-width:0.8;"/>
      </defs>
      <g>
       <use style="stroke:#000000;stroke-width:0.8;" x="33.346406" xlink:href="#m47c10dbceb" y="133.056"/>
      </g>
     </g>
     <g id="text_1">
      <!-- 0.0 -->
      <g transform="translate(25.925039 144.949437)scale(0.105 -0.105)">
       <defs>
        <path d="M 284 2325 
Q 284 3606 709 4264 
Q 1134 4922 1941 4922 
Q 3478 4922 3478 2441 
Q 3478 1216 3045 567 
Q 2613 -81 1831 -81 
Q 1094 -81 689 534 
Q 284 1150 284 2325 
z
M 909 2353 
Q 909 425 1888 425 
Q 2850 425 2850 2384 
Q 2850 4413 1906 4413 
Q 909 4413 909 2353 
z
" id="MicrosoftYaHei-30" transform="scale(0.015625)"/>
        <path d="M 372 322 
Q 372 491 487 606 
Q 603 722 775 722 
Q 950 722 1065 605 
Q 1181 488 1181 322 
Q 1181 159 1065 42 
Q 950 -75 772 -75 
Q 600 -75 486 42 
Q 372 159 372 322 
z
" id="MicrosoftYaHei-2e" transform="scale(0.015625)"/>
       </defs>
       <use xlink:href="#MicrosoftYaHei-30"/>
       <use x="58.642578" xlink:href="#MicrosoftYaHei-2e"/>
       <use x="82.714844" xlink:href="#MicrosoftYaHei-30"/>
      </g>
     </g>
    </g>
    <g id="xtick_2">
     <g id="line2d_3">
      <path clip-path="url(#pd6d7bfc5bc)" d="M 67.942406 133.056 
L 67.942406 0 
" style="fill:none;stroke:#008000;stroke-dasharray:1.85,0.8;stroke-dashoffset:0;stroke-width:0.5;"/>
     </g>
     <g id="line2d_4">
      <g>
       <use style="stroke:#000000;stroke-width:0.8;" x="67.942406" xlink:href="#m47c10dbceb" y="133.056"/>
      </g>
     </g>
     <g id="text_2">
      <!-- 0.2 -->
      <g transform="translate(60.521039 144.949437)scale(0.105 -0.105)">
       <defs>
        <path d="M 2666 3572 
Q 2666 3963 2419 4186 
Q 2172 4409 1747 4409 
Q 1447 4409 1140 4256 
Q 834 4103 569 3819 
L 569 4413 
Q 806 4659 1107 4790 
Q 1409 4922 1816 4922 
Q 2472 4922 2872 4570 
Q 3272 4219 3272 3619 
Q 3272 3084 3026 2693 
Q 2781 2303 2188 1894 
Q 1581 1475 1376 1294 
Q 1172 1113 1090 947 
Q 1009 781 1009 544 
L 3416 544 
L 3416 0 
L 372 0 
L 372 241 
Q 372 659 486 951 
Q 600 1244 862 1520 
Q 1125 1797 1681 2184 
Q 2250 2584 2458 2886 
Q 2666 3188 2666 3572 
z
" id="MicrosoftYaHei-32" transform="scale(0.015625)"/>
       </defs>
       <use xlink:href="#MicrosoftYaHei-30"/>
       <use x="58.642578" xlink:href="#MicrosoftYaHei-2e"/>
       <use x="82.714844" xlink:href="#MicrosoftYaHei-32"/>
      </g>
     </g>
    </g>
    <g id="xtick_3">
     <g id="line2d_5">
      <path clip-path="url(#pd6d7bfc5bc)" d="M 102.538406 133.056 
L 102.538406 0 
" style="fill:none;stroke:#008000;stroke-dasharray:1.85,0.8;stroke-dashoffset:0;stroke-width:0.5;"/>
     </g>
     <g id="line2d_6">
      <g>
       <use style="stroke:#000000;stroke-width:0.8;" x="102.538406" xlink:href="#m47c10dbceb" y="133.056"/>
      </g>
     </g>
     <g id="text_3">
      <!-- 0.4 -->
      <g transform="translate(95.117039 144.949437)scale(0.105 -0.105)">
       <defs>
        <path d="M 2906 4841 
L 2906 1644 
L 3631 1644 
L 3631 1138 
L 2906 1138 
L 2906 0 
L 2313 0 
L 2313 1138 
L 53 1138 
L 53 1616 
Q 656 2294 1265 3178 
Q 1875 4063 2272 4841 
L 2906 4841 
z
M 741 1644 
L 2313 1644 
L 2313 3950 
Q 1988 3366 1616 2817 
Q 1244 2269 741 1644 
z
" id="MicrosoftYaHei-34" transform="scale(0.015625)"/>
       </defs>
       <use xlink:href="#MicrosoftYaHei-30"/>
       <use x="58.642578" xlink:href="#MicrosoftYaHei-2e"/>
       <use x="82.714844" xlink:href="#MicrosoftYaHei-34"/>
      </g>
     </g>
    </g>
    <g id="xtick_4">
     <g id="line2d_7">
      <path clip-path="url(#pd6d7bfc5bc)" d="M 137.134406 133.056 
L 137.134406 0 
" style="fill:none;stroke:#008000;stroke-dasharray:1.85,0.8;stroke-dashoffset:0;stroke-width:0.5;"/>
     </g>
     <g id="line2d_8">
      <g>
       <use style="stroke:#000000;stroke-width:0.8;" x="137.134406" xlink:href="#m47c10dbceb" y="133.056"/>
      </g>
     </g>
     <g id="text_4">
      <!-- 0.6 -->
      <g transform="translate(129.713039 144.949437)scale(0.105 -0.105)">
       <defs>
        <path d="M 3181 4219 
Q 2803 4413 2391 4413 
Q 1763 4413 1381 3866 
Q 1000 3319 994 2372 
L 1009 2372 
Q 1353 3038 2106 3038 
Q 2734 3038 3109 2628 
Q 3484 2219 3484 1541 
Q 3484 831 3051 375 
Q 2619 -81 1947 -81 
Q 1209 -81 789 495 
Q 369 1072 369 2131 
Q 369 3413 920 4167 
Q 1472 4922 2372 4922 
Q 2888 4922 3181 4781 
L 3181 4219 
z
M 1031 1584 
Q 1031 1106 1286 765 
Q 1541 425 1963 425 
Q 2363 425 2613 719 
Q 2863 1013 2863 1475 
Q 2863 1975 2627 2253 
Q 2391 2531 1956 2531 
Q 1544 2531 1287 2250 
Q 1031 1969 1031 1584 
z
" id="MicrosoftYaHei-36" transform="scale(0.015625)"/>
       </defs>
       <use xlink:href="#MicrosoftYaHei-30"/>
       <use x="58.642578" xlink:href="#MicrosoftYaHei-2e"/>
       <use x="82.714844" xlink:href="#MicrosoftYaHei-36"/>
      </g>
     </g>
    </g>
    <g id="xtick_5">
     <g id="line2d_9">
      <path clip-path="url(#pd6d7bfc5bc)" d="M 171.730406 133.056 
L 171.730406 0 
" style="fill:none;stroke:#008000;stroke-dasharray:1.85,0.8;stroke-dashoffset:0;stroke-width:0.5;"/>
     </g>
     <g id="line2d_10">
      <g>
       <use style="stroke:#000000;stroke-width:0.8;" x="171.730406" xlink:href="#m47c10dbceb" y="133.056"/>
      </g>
     </g>
     <g id="text_5">
      <!-- 0.8 -->
      <g transform="translate(164.309039 144.949437)scale(0.105 -0.105)">
       <defs>
        <path d="M 306 1350 
Q 306 1769 556 2122 
Q 806 2475 1200 2625 
Q 884 2803 700 3081 
Q 516 3359 516 3684 
Q 516 4028 692 4312 
Q 869 4597 1183 4759 
Q 1497 4922 1875 4922 
Q 2256 4922 2572 4761 
Q 2888 4600 3063 4315 
Q 3238 4031 3238 3684 
Q 3238 3366 3058 3086 
Q 2878 2806 2559 2625 
Q 2953 2472 3200 2119 
Q 3447 1766 3447 1350 
Q 3447 938 3250 611 
Q 3053 284 2690 103 
Q 2328 -78 1875 -78 
Q 1425 -78 1065 103 
Q 706 284 506 612 
Q 306 941 306 1350 
z
M 906 1378 
Q 906 947 1172 687 
Q 1438 428 1878 428 
Q 2309 428 2582 692 
Q 2856 956 2856 1378 
Q 2856 1778 2579 2051 
Q 2303 2325 1878 2325 
Q 1456 2325 1181 2058 
Q 906 1791 906 1378 
z
M 1081 3634 
Q 1081 3309 1312 3076 
Q 1544 2844 1878 2844 
Q 2206 2844 2445 3078 
Q 2684 3313 2684 3634 
Q 2684 3963 2454 4191 
Q 2225 4419 1878 4419 
Q 1534 4419 1307 4195 
Q 1081 3972 1081 3634 
z
" id="MicrosoftYaHei-38" transform="scale(0.015625)"/>
       </defs>
       <use xlink:href="#MicrosoftYaHei-30"/>
       <use x="58.642578" xlink:href="#MicrosoftYaHei-2e"/>
       <use x="82.714844" xlink:href="#MicrosoftYaHei-38"/>
      </g>
     </g>
    </g>
    <g id="xtick_6">
     <g id="line2d_11">
      <path clip-path="url(#pd6d7bfc5bc)" d="M 206.326406 133.056 
L 206.326406 0 
" style="fill:none;stroke:#008000;stroke-dasharray:1.85,0.8;stroke-dashoffset:0;stroke-width:0.5;"/>
     </g>
     <g id="line2d_12">
      <g>
       <use style="stroke:#000000;stroke-width:0.8;" x="206.326406" xlink:href="#m47c10dbceb" y="133.056"/>
      </g>
     </g>
     <g id="text_6">
      <!-- 1.0 -->
      <g transform="translate(198.905039 144.949437)scale(0.105 -0.105)">
       <defs>
        <path d="M 1781 0 
L 1781 4141 
Q 1638 3997 1295 3819 
Q 953 3641 663 3569 
L 663 4169 
Q 1047 4275 1484 4508 
Q 1922 4741 2156 4947 
L 2388 4947 
L 2388 0 
L 1781 0 
z
" id="MicrosoftYaHei-31" transform="scale(0.015625)"/>
       </defs>
       <use xlink:href="#MicrosoftYaHei-31"/>
       <use x="58.642578" xlink:href="#MicrosoftYaHei-2e"/>
       <use x="82.714844" xlink:href="#MicrosoftYaHei-30"/>
      </g>
     </g>
    </g>
    <g id="text_7">
     <!-- 假正率 -->
     <g transform="translate(104.086406 159.953109)scale(0.105 -0.105)">
      <defs>
       <path d="M 3763 4953 
L 3763 2841 
L 3325 2841 
L 3325 3034 
L 2319 3034 
L 2319 2247 
L 3625 2247 
L 3625 1847 
L 2319 1847 
L 2319 1047 
L 3706 1047 
L 3706 647 
L 2319 647 
L 2319 -847 
L 1856 -847 
L 1856 4953 
L 3763 4953 
z
M 3756 2109 
L 3756 2497 
L 5963 2497 
L 5963 2122 
Q 5763 1094 5191 369 
Q 5663 -106 6381 -378 
Q 6138 -659 6031 -816 
Q 5350 -463 4888 34 
Q 4309 -531 3450 -872 
Q 3325 -684 3156 -472 
Q 4044 -159 4606 375 
Q 4081 1109 3941 2109 
L 3756 2109 
z
M 63 2247 
Q 863 3666 1175 5316 
L 1638 5228 
Q 1478 4528 1256 3881 
L 1256 -859 
L 819 -859 
L 819 2788 
Q 566 2244 263 1741 
Q 181 1984 63 2247 
z
M 3969 3447 
L 5475 3447 
L 5475 4559 
L 4006 4559 
L 4006 4959 
L 5913 4959 
L 5913 2809 
L 5475 2809 
L 5475 3047 
L 3969 3047 
L 3969 3447 
z
M 3325 4553 
L 2319 4553 
L 2319 3434 
L 3325 3434 
L 3325 4553 
z
M 5513 2109 
L 4350 2109 
Q 4484 1288 4903 703 
Q 5366 1297 5513 2109 
z
" id="MicrosoftYaHei-5047" transform="scale(0.015625)"/>
       <path d="M 88 66 
L 1106 66 
L 1106 3416 
L 1644 3416 
L 1644 66 
L 3231 66 
L 3231 4309 
L 375 4309 
L 375 4797 
L 6063 4797 
L 6063 4309 
L 3769 4309 
L 3769 2672 
L 5850 2672 
L 5850 2191 
L 3769 2191 
L 3769 66 
L 6313 66 
L 6313 -422 
L 88 -422 
L 88 66 
z
" id="MicrosoftYaHei-6b63" transform="scale(0.015625)"/>
       <path d="M 2525 2009 
Q 2622 2016 3928 2081 
Q 3772 2300 3625 2491 
L 3963 2703 
Q 4413 2203 4794 1653 
L 4394 1403 
Q 4284 1569 4178 1725 
Q 2991 1659 2213 1597 
Q 2075 1584 1881 1541 
L 1725 1966 
Q 1913 2028 2006 2084 
Q 2534 2441 3050 2913 
Q 2597 2894 2275 2866 
Q 2144 2847 1988 2809 
L 1800 3191 
Q 1956 3247 2088 3366 
Q 2509 3722 2875 4228 
L 231 4228 
L 231 4666 
L 3031 4666 
Q 2878 4944 2744 5153 
L 3194 5372 
Q 3438 5000 3616 4666 
L 6175 4666 
L 6175 4228 
L 3053 4228 
L 3350 4072 
Q 2844 3553 2494 3247 
Q 2850 3256 3425 3269 
Q 3675 3519 3925 3797 
L 4356 3547 
Q 3363 2603 2525 2009 
z
M 144 991 
L 2994 991 
L 2994 1541 
L 3488 1541 
L 3488 991 
L 6275 991 
L 6275 553 
L 3488 553 
L 3488 -853 
L 2994 -853 
L 2994 553 
L 144 553 
L 144 991 
z
M 1719 2672 
L 1944 2303 
Q 1200 1866 425 1409 
L 163 1828 
Q 813 2134 1719 2672 
z
M 4856 2678 
Q 5750 2172 6250 1816 
L 5975 1409 
Q 5331 1909 4600 2341 
L 4856 2678 
z
M 5994 3591 
Q 5519 3178 4963 2809 
L 4644 3141 
Q 5244 3534 5638 3928 
L 5994 3591 
z
M 363 3634 
L 681 3941 
Q 1200 3528 1588 3159 
L 1238 2816 
Q 875 3197 363 3634 
z
" id="MicrosoftYaHei-7387" transform="scale(0.015625)"/>
      </defs>
      <use xlink:href="#MicrosoftYaHei-5047"/>
      <use x="100" xlink:href="#MicrosoftYaHei-6b63"/>
      <use x="200" xlink:href="#MicrosoftYaHei-7387"/>
     </g>
    </g>
   </g>
   <g id="matplotlib.axis_2">
    <g id="ytick_1">
     <g id="line2d_13">
      <path clip-path="url(#pd6d7bfc5bc)" d="M 33.346406 133.056 
L 206.326406 133.056 
" style="fill:none;stroke:#008000;stroke-dasharray:1.85,0.8;stroke-dashoffset:0;stroke-width:0.5;"/>
     </g>
     <g id="line2d_14">
      <defs>
       <path d="M 0 0 
L 3.5 0 
" id="m9c1a2c39bf" style="stroke:#000000;stroke-width:0.8;"/>
      </defs>
      <g>
       <use style="stroke:#000000;stroke-width:0.8;" x="33.346406" xlink:href="#m9c1a2c39bf" y="133.056"/>
      </g>
     </g>
     <g id="text_8">
      <!-- 0.0 -->
      <g transform="translate(15.003672 137.252719)scale(0.105 -0.105)">
       <use xlink:href="#MicrosoftYaHei-30"/>
       <use x="58.642578" xlink:href="#MicrosoftYaHei-2e"/>
       <use x="82.714844" xlink:href="#MicrosoftYaHei-30"/>
      </g>
     </g>
    </g>
    <g id="ytick_2">
     <g id="line2d_15">
      <path clip-path="url(#pd6d7bfc5bc)" d="M 33.346406 107.712 
L 206.326406 107.712 
" style="fill:none;stroke:#008000;stroke-dasharray:1.85,0.8;stroke-dashoffset:0;stroke-width:0.5;"/>
     </g>
     <g id="line2d_16">
      <g>
       <use style="stroke:#000000;stroke-width:0.8;" x="33.346406" xlink:href="#m9c1a2c39bf" y="107.712"/>
      </g>
     </g>
     <g id="text_9">
      <!-- 0.2 -->
      <g transform="translate(15.003672 111.908719)scale(0.105 -0.105)">
       <use xlink:href="#MicrosoftYaHei-30"/>
       <use x="58.642578" xlink:href="#MicrosoftYaHei-2e"/>
       <use x="82.714844" xlink:href="#MicrosoftYaHei-32"/>
      </g>
     </g>
    </g>
    <g id="ytick_3">
     <g id="line2d_17">
      <path clip-path="url(#pd6d7bfc5bc)" d="M 33.346406 82.368 
L 206.326406 82.368 
" style="fill:none;stroke:#008000;stroke-dasharray:1.85,0.8;stroke-dashoffset:0;stroke-width:0.5;"/>
     </g>
     <g id="line2d_18">
      <g>
       <use style="stroke:#000000;stroke-width:0.8;" x="33.346406" xlink:href="#m9c1a2c39bf" y="82.368"/>
      </g>
     </g>
     <g id="text_10">
      <!-- 0.4 -->
      <g transform="translate(15.003672 86.564719)scale(0.105 -0.105)">
       <use xlink:href="#MicrosoftYaHei-30"/>
       <use x="58.642578" xlink:href="#MicrosoftYaHei-2e"/>
       <use x="82.714844" xlink:href="#MicrosoftYaHei-34"/>
      </g>
     </g>
    </g>
    <g id="ytick_4">
     <g id="line2d_19">
      <path clip-path="url(#pd6d7bfc5bc)" d="M 33.346406 57.024 
L 206.326406 57.024 
" style="fill:none;stroke:#008000;stroke-dasharray:1.85,0.8;stroke-dashoffset:0;stroke-width:0.5;"/>
     </g>
     <g id="line2d_20">
      <g>
       <use style="stroke:#000000;stroke-width:0.8;" x="33.346406" xlink:href="#m9c1a2c39bf" y="57.024"/>
      </g>
     </g>
     <g id="text_11">
      <!-- 0.6 -->
      <g transform="translate(15.003672 61.220719)scale(0.105 -0.105)">
       <use xlink:href="#MicrosoftYaHei-30"/>
       <use x="58.642578" xlink:href="#MicrosoftYaHei-2e"/>
       <use x="82.714844" xlink:href="#MicrosoftYaHei-36"/>
      </g>
     </g>
    </g>
    <g id="ytick_5">
     <g id="line2d_21">
      <path clip-path="url(#pd6d7bfc5bc)" d="M 33.346406 31.68 
L 206.326406 31.68 
" style="fill:none;stroke:#008000;stroke-dasharray:1.85,0.8;stroke-dashoffset:0;stroke-width:0.5;"/>
     </g>
     <g id="line2d_22">
      <g>
       <use style="stroke:#000000;stroke-width:0.8;" x="33.346406" xlink:href="#m9c1a2c39bf" y="31.68"/>
      </g>
     </g>
     <g id="text_12">
      <!-- 0.8 -->
      <g transform="translate(15.003672 35.876719)scale(0.105 -0.105)">
       <use xlink:href="#MicrosoftYaHei-30"/>
       <use x="58.642578" xlink:href="#MicrosoftYaHei-2e"/>
       <use x="82.714844" xlink:href="#MicrosoftYaHei-38"/>
      </g>
     </g>
    </g>
    <g id="ytick_6">
     <g id="line2d_23">
      <path clip-path="url(#pd6d7bfc5bc)" d="M 33.346406 6.336 
L 206.326406 6.336 
" style="fill:none;stroke:#008000;stroke-dasharray:1.85,0.8;stroke-dashoffset:0;stroke-width:0.5;"/>
     </g>
     <g id="line2d_24">
      <g>
       <use style="stroke:#000000;stroke-width:0.8;" x="33.346406" xlink:href="#m9c1a2c39bf" y="6.336"/>
      </g>
     </g>
     <g id="text_13">
      <!-- 1.0 -->
      <g transform="translate(15.003672 10.532719)scale(0.105 -0.105)">
       <use xlink:href="#MicrosoftYaHei-31"/>
       <use x="58.642578" xlink:href="#MicrosoftYaHei-2e"/>
       <use x="82.714844" xlink:href="#MicrosoftYaHei-30"/>
      </g>
     </g>
    </g>
    <g id="text_14">
     <!-- 真正率 -->
     <g transform="translate(8.393437 82.278)rotate(-90)scale(0.105 -0.105)">
      <defs>
       <path d="M 156 778 
L 1056 778 
L 1056 3978 
L 2894 3978 
L 2894 4428 
L 250 4428 
L 250 4828 
L 2894 4828 
L 2894 5328 
L 3381 5328 
L 3381 4828 
L 6144 4828 
L 6144 4428 
L 3381 4428 
L 3381 3978 
L 5344 3978 
L 5344 778 
L 6263 778 
L 6263 378 
L 156 378 
L 156 778 
z
M 1531 778 
L 4869 778 
L 4869 1209 
L 1531 1209 
L 1531 778 
z
M 4869 3591 
L 1531 3591 
L 1531 3166 
L 4869 3166 
L 4869 3591 
z
M 1531 2372 
L 4869 2372 
L 4869 2797 
L 1531 2797 
L 1531 2372 
z
M 1531 1578 
L 4869 1578 
L 4869 2003 
L 1531 2003 
L 1531 1578 
z
M 3744 -72 
L 3975 316 
Q 4925 28 6169 -416 
L 5944 -859 
Q 4819 -422 3744 -72 
z
M 2369 334 
L 2663 -41 
Q 1656 -503 481 -891 
Q 388 -691 256 -453 
Q 1219 -172 2369 334 
z
" id="MicrosoftYaHei-771f" transform="scale(0.015625)"/>
      </defs>
      <use xlink:href="#MicrosoftYaHei-771f"/>
      <use x="100" xlink:href="#MicrosoftYaHei-6b63"/>
      <use x="200" xlink:href="#MicrosoftYaHei-7387"/>
     </g>
    </g>
   </g>
   <g id="line2d_25">
    <path clip-path="url(#pd6d7bfc5bc)" d="M 33.346406 133.056 
L 34.142114 115.213163 
L 35.007014 100.677095 
L 35.923808 88.90695 
L 36.892496 79.224489 
L 37.930376 71.029567 
L 39.02015 64.145186 
L 40.179116 58.218818 
L 41.389976 53.154758 
L 42.670028 48.734348 
L 44.019272 44.858227 
L 45.437708 41.444416 
L 46.942634 38.392792 
L 48.53405 35.661511 
L 50.229254 33.189702 
L 52.045544 30.934264 
L 53.98292 28.881151 
L 56.075978 26.985817 
L 58.359314 25.219994 
L 60.850226 23.576863 
L 63.600608 22.032547 
L 66.645056 20.581976 
L 70.035464 19.216099 
L 73.858322 17.920266 
L 78.182822 16.694186 
L 83.112752 15.53278 
L 88.769198 14.433812 
L 95.32514 13.392436 
L 102.970856 12.409178 
L 111.965816 11.482695 
L 122.673278 10.610262 
L 135.525692 9.79332 
L 151.163084 9.029986 
L 170.415758 8.321028 
L 194.511872 7.665238 
L 206.309108 7.408938 
L 206.309108 7.408938 
" style="fill:none;stroke:#ff0000;stroke-linecap:square;stroke-width:0.7;"/>
   </g>
   <g id="line2d_26">
    <path clip-path="url(#pd6d7bfc5bc)" d="M 33.346406 133.056 
L 34.315094 117.748536 
L 35.335676 105.060435 
L 36.408152 94.410505 
L 37.54982 85.248323 
L 38.743382 77.426058 
L 40.006136 70.602499 
L 41.320784 64.694233 
L 42.704624 59.480144 
L 44.157656 54.861082 
L 45.67988 50.753933 
L 47.271296 47.088851 
L 48.949202 43.77527 
L 50.713598 40.776373 
L 52.581782 38.035126 
L 54.571052 35.510406 
L 56.681408 33.189986 
L 58.947446 31.029424 
L 61.386464 29.013205 
L 64.01576 27.129528 
L 66.86993 25.359146 
L 70.000868 23.681301 
L 73.44317 22.092225 
L 77.24873 20.583946 
L 81.48674 19.147799 
L 86.226392 17.781111 
L 91.554176 16.480794 
L 97.591178 15.241306 
L 104.458484 14.063269 
L 112.329074 12.94364 
L 121.427822 11.879483 
L 132.014198 10.871259 
L 144.434162 9.918198 
L 159.120164 9.020732 
L 176.677634 8.177401 
L 197.90228 7.387935 
L 206.309108 7.126628 
L 206.309108 7.126628 
" style="fill:none;stroke:#696969;stroke-linecap:square;stroke-width:0.7;"/>
   </g>
   <g id="line2d_27">
    <path clip-path="url(#pd6d7bfc5bc)" d="M 33.346406 133.056 
L 34.038326 112.813563 
L 34.799438 96.890847 
L 35.612444 84.410336 
L 36.477344 74.420024 
L 37.411436 66.147383 
L 38.397422 59.34279 
L 39.4526 53.584698 
L 40.559672 48.746228 
L 41.735936 44.580582 
L 42.981392 40.974106 
L 44.29604 37.834953 
L 45.697178 35.057241 
L 47.184806 32.595299 
L 48.776222 30.386682 
L 50.488724 28.387727 
L 52.33961 26.567284 
L 54.363476 24.889428 
L 56.57762 23.343254 
L 59.033936 21.901065 
L 61.784318 20.548274 
L 64.88066 19.278419 
L 68.392154 18.084242 
L 72.40529 16.959938 
L 77.023856 15.902022 
L 82.403534 14.903533 
L 88.717304 13.963859 
L 96.207338 13.080487 
L 105.185 12.252654 
L 116.065442 11.480051 
L 129.436796 10.761444 
L 146.112068 10.096582 
L 167.267522 9.485047 
L 194.650256 8.926421 
L 206.309108 8.741152 
L 206.309108 8.741152 
" style="fill:none;stroke:#ffa500;stroke-linecap:square;stroke-width:0.7;"/>
   </g>
   <g id="line2d_28">
    <path clip-path="url(#pd6d7bfc5bc)" d="M 33.346406 133.056 
L 34.055624 112.447459 
L 34.816736 96.584679 
L 35.629742 84.076214 
L 36.51194 73.840217 
L 37.446032 65.516434 
L 38.449316 58.537118 
L 39.504494 52.724949 
L 40.628864 47.757459 
L 41.805128 43.541631 
L 43.050584 39.882512 
L 44.38253 36.652354 
L 45.783668 33.828839 
L 47.271296 31.321559 
L 48.862712 29.068464 
L 50.575214 27.026146 
L 52.4261 25.163636 
L 54.449966 23.444831 
L 56.66411 21.859067 
L 59.103128 20.38791 
L 61.818914 19.012035 
L 64.863362 17.72172 
L 68.322962 16.50184 
L 72.266906 15.352579 
L 76.798982 14.269183 
L 82.057574 13.246808 
L 88.198364 12.285235 
L 95.463524 11.379215 
L 104.129822 10.529536 
L 114.595112 9.734478 
L 127.378334 8.994273 
L 143.223302 8.307983 
L 163.185194 7.675161 
L 188.803532 7.095561 
L 206.309108 6.79617 
L 206.309108 6.79617 
" style="fill:none;stroke:#0000ff;stroke-linecap:square;stroke-width:0.7;"/>
   </g>
   <g id="line2d_29">
    <path clip-path="url(#pd6d7bfc5bc)" d="M 33.346406 133.056 
L 34.124816 114.786414 
L 34.972418 99.967815 
L 35.871914 88.019376 
L 36.823304 78.225582 
L 37.843886 69.960387 
L 38.916362 63.036846 
L 40.05803 57.090661 
L 41.251592 52.021496 
L 42.514346 47.605109 
L 43.846292 43.739441 
L 45.24743 40.340514 
L 46.735058 37.306571 
L 48.309176 34.594913 
L 49.987082 32.143943 
L 51.786074 29.910136 
L 53.706152 27.87913 
L 55.781912 26.006204 
L 58.04795 24.263035 
L 60.521564 22.642704 
L 63.254648 21.121381 
L 66.281798 19.69394 
L 69.672206 18.345001 
L 73.495064 17.068373 
L 77.819564 15.863268 
L 82.766792 14.720603 
L 88.457834 13.639748 
L 95.06567 12.616989 
L 102.797876 11.651497 
L 111.93122 10.741862 
L 122.811662 9.888424 
L 135.940844 9.088943 
L 151.97609 8.343317 
L 171.816896 7.651842 
L 196.77791 7.013662 
L 206.309108 6.817274 
L 206.309108 6.817274 
" style="fill:none;stroke:#008000;stroke-linecap:square;stroke-width:0.7;"/>
   </g>
   <g id="patch_3">
    <path d="M 33.346406 133.056 
L 33.346406 0 
" style="fill:none;stroke:#000000;stroke-linecap:square;stroke-linejoin:miter;stroke-width:0.8;"/>
   </g>
   <g id="patch_4">
    <path d="M 206.326406 133.056 
L 206.326406 0 
" style="fill:none;stroke:#000000;stroke-linecap:square;stroke-linejoin:miter;stroke-width:0.8;"/>
   </g>
   <g id="patch_5">
    <path d="M 33.346406 133.056 
L 206.326406 133.056 
" style="fill:none;stroke:#000000;stroke-linecap:square;stroke-linejoin:miter;stroke-width:0.8;"/>
   </g>
   <g id="patch_6">
    <path d="M 33.346406 0 
L 206.326406 0 
" style="fill:none;stroke:#000000;stroke-linecap:square;stroke-linejoin:miter;stroke-width:0.8;"/>
   </g>
   <g id="legend_1">
    <g id="patch_7">
     <path d="M 93.296719 129.306 
L 201.076406 129.306 
Q 202.576406 129.306 202.576406 127.806 
L 202.576406 70.255219 
Q 202.576406 68.755219 201.076406 68.755219 
L 93.296719 68.755219 
Q 91.796719 68.755219 91.796719 70.255219 
L 91.796719 127.806 
Q 91.796719 129.306 93.296719 129.306 
z
" style="fill:#ffffff;opacity:0.8;stroke:#cccccc;stroke-linejoin:miter;"/>
    </g>
    <g id="line2d_30">
     <path d="M 94.796719 75.125531 
L 109.796719 75.125531 
" style="fill:none;stroke:#ff0000;stroke-linecap:square;stroke-width:0.7;"/>
    </g>
    <g id="line2d_31"/>
    <g id="text_15">
     <!-- RF_AUC = 0.8941 -->
     <g transform="translate(115.796719 77.750531)scale(0.075 -0.075)">
      <defs>
       <path d="M 4159 0 
L 3422 0 
L 2619 1344 
Q 2378 1747 2178 1892 
Q 1978 2038 1700 2038 
L 1250 2038 
L 1250 0 
L 625 0 
L 625 4841 
L 2100 4841 
Q 2806 4841 3206 4500 
Q 3606 4159 3606 3547 
Q 3606 2541 2531 2241 
L 2531 2225 
Q 2731 2141 2876 1984 
Q 3022 1828 3253 1450 
L 4159 0 
z
M 1250 4294 
L 1250 2584 
L 1988 2584 
Q 2416 2584 2683 2834 
Q 2950 3084 2950 3491 
Q 2950 3869 2706 4081 
Q 2463 4294 1997 4294 
L 1250 4294 
z
" id="MicrosoftYaHei-52" transform="scale(0.015625)"/>
       <path d="M 3119 4284 
L 1250 4284 
L 1250 2666 
L 2981 2666 
L 2981 2116 
L 1250 2116 
L 1250 0 
L 625 0 
L 625 4841 
L 3119 4841 
L 3119 4284 
z
" id="MicrosoftYaHei-46" transform="scale(0.015625)"/>
       <path d="M 2869 -1634 
L 0 -1634 
L 0 -1231 
L 2869 -1231 
L 2869 -1634 
z
" id="MicrosoftYaHei-5f" transform="scale(0.015625)"/>
       <path d="M 4428 0 
L 3738 0 
L 3244 1325 
L 1228 1325 
L 763 0 
L 72 0 
L 1916 4841 
L 2584 4841 
L 4428 0 
z
M 3050 1872 
L 2319 3884 
Q 2284 3981 2244 4222 
L 2228 4222 
Q 2194 4003 2150 3884 
L 1425 1872 
L 3050 1872 
z
" id="MicrosoftYaHei-41" transform="scale(0.015625)"/>
       <path d="M 4213 1972 
Q 4213 -81 2350 -81 
Q 566 -81 566 1900 
L 566 4841 
L 1191 4841 
L 1191 1928 
Q 1191 475 2409 475 
Q 3588 475 3588 1881 
L 3588 4841 
L 4213 4841 
L 4213 1972 
z
" id="MicrosoftYaHei-55" transform="scale(0.015625)"/>
       <path d="M 3938 200 
Q 3403 -81 2597 -81 
Q 1556 -81 934 580 
Q 313 1241 313 2328 
Q 313 3497 1013 4209 
Q 1713 4922 2791 4922 
Q 3484 4922 3938 4725 
L 3938 4072 
Q 3419 4359 2797 4359 
Q 1988 4359 1478 3820 
Q 969 3281 969 2366 
Q 969 1497 1444 986 
Q 1919 475 2688 475 
Q 3406 475 3938 800 
L 3938 200 
z
" id="MicrosoftYaHei-43" transform="scale(0.015625)"/>
       <path id="MicrosoftYaHei-20" transform="scale(0.015625)"/>
       <path d="M 3972 2497 
L 788 2497 
L 788 2969 
L 3972 2969 
L 3972 2497 
z
M 3972 1053 
L 788 1053 
L 788 1525 
L 3972 1525 
L 3972 1053 
z
" id="MicrosoftYaHei-3d" transform="scale(0.015625)"/>
       <path d="M 578 656 
Q 978 425 1441 425 
Q 2091 425 2448 937 
Q 2806 1450 2806 2394 
Q 2800 2388 2794 2394 
Q 2475 1788 1722 1788 
Q 1113 1788 713 2206 
Q 313 2625 313 3294 
Q 313 4006 750 4464 
Q 1188 4922 1884 4922 
Q 2606 4922 3012 4355 
Q 3419 3788 3419 2703 
Q 3419 1363 2894 641 
Q 2369 -81 1441 -81 
Q 931 -81 578 84 
L 578 656 
z
M 931 3372 
Q 931 2884 1181 2598 
Q 1431 2313 1872 2313 
Q 2253 2313 2512 2573 
Q 2772 2834 2772 3206 
Q 2772 3728 2514 4070 
Q 2256 4413 1834 4413 
Q 1444 4413 1187 4116 
Q 931 3819 931 3372 
z
" id="MicrosoftYaHei-39" transform="scale(0.015625)"/>
      </defs>
      <use xlink:href="#MicrosoftYaHei-52"/>
      <use x="65.283203" xlink:href="#MicrosoftYaHei-46"/>
      <use x="118.408203" xlink:href="#MicrosoftYaHei-5f"/>
      <use x="163.232422" xlink:href="#MicrosoftYaHei-41"/>
      <use x="232.21875" xlink:href="#MicrosoftYaHei-55"/>
      <use x="306.876953" xlink:href="#MicrosoftYaHei-43"/>
      <use x="373.771484" xlink:href="#MicrosoftYaHei-20"/>
      <use x="403.361328" xlink:href="#MicrosoftYaHei-3d"/>
      <use x="477.53125" xlink:href="#MicrosoftYaHei-20"/>
      <use x="507.121094" xlink:href="#MicrosoftYaHei-30"/>
      <use x="565.763672" xlink:href="#MicrosoftYaHei-2e"/>
      <use x="589.835938" xlink:href="#MicrosoftYaHei-38"/>
      <use x="648.478516" xlink:href="#MicrosoftYaHei-39"/>
      <use x="707.121094" xlink:href="#MicrosoftYaHei-34"/>
      <use x="765.763672" xlink:href="#MicrosoftYaHei-31"/>
     </g>
    </g>
    <g id="line2d_32">
     <path d="M 94.796719 86.785687 
L 109.796719 86.785687 
" style="fill:none;stroke:#696969;stroke-linecap:square;stroke-width:0.7;"/>
    </g>
    <g id="line2d_33"/>
    <g id="text_16">
     <!-- DT_AUC = 0.8713 -->
     <g transform="translate(115.796719 89.410687)scale(0.075 -0.075)">
      <defs>
       <path d="M 625 0 
L 625 4841 
L 2006 4841 
Q 3106 4841 3836 4200 
Q 4566 3559 4566 2481 
Q 4566 1356 3836 678 
Q 3106 0 1956 0 
L 625 0 
z
M 1250 4284 
L 1250 553 
L 1953 553 
Q 2875 553 3392 1056 
Q 3909 1559 3909 2466 
Q 3909 3372 3378 3828 
Q 2847 4284 1981 4284 
L 1250 4284 
z
" id="MicrosoftYaHei-44" transform="scale(0.015625)"/>
       <path d="M 3550 4284 
L 2153 4284 
L 2153 0 
L 1525 0 
L 1525 4284 
L 134 4284 
L 134 4841 
L 3550 4841 
L 3550 4284 
z
" id="MicrosoftYaHei-54" transform="scale(0.015625)"/>
       <path d="M 3422 4463 
Q 2659 3131 2223 1998 
Q 1788 866 1684 0 
L 1047 0 
Q 1163 853 1594 1947 
Q 2025 3041 2747 4300 
L 347 4300 
L 347 4841 
L 3422 4841 
L 3422 4463 
z
" id="MicrosoftYaHei-37" transform="scale(0.015625)"/>
       <path d="M 447 809 
Q 944 425 1569 425 
Q 2069 425 2361 670 
Q 2653 916 2653 1328 
Q 2653 2247 1338 2247 
L 934 2247 
L 934 2753 
L 1319 2753 
Q 2484 2753 2484 3616 
Q 2484 4413 1594 4413 
Q 1084 4413 634 4069 
L 634 4647 
Q 1109 4922 1744 4922 
Q 2363 4922 2738 4598 
Q 3113 4275 3113 3759 
Q 3113 2809 2144 2538 
L 2144 2525 
Q 2669 2469 2973 2155 
Q 3278 1841 3278 1372 
Q 3278 719 2808 319 
Q 2338 -81 1556 -81 
Q 869 -81 447 175 
L 447 809 
z
" id="MicrosoftYaHei-33" transform="scale(0.015625)"/>
      </defs>
      <use xlink:href="#MicrosoftYaHei-44"/>
      <use x="71.296875" xlink:href="#MicrosoftYaHei-54"/>
      <use x="128.621094" xlink:href="#MicrosoftYaHei-5f"/>
      <use x="173.445312" xlink:href="#MicrosoftYaHei-41"/>
      <use x="242.431641" xlink:href="#MicrosoftYaHei-55"/>
      <use x="317.089844" xlink:href="#MicrosoftYaHei-43"/>
      <use x="383.984375" xlink:href="#MicrosoftYaHei-20"/>
      <use x="413.574219" xlink:href="#MicrosoftYaHei-3d"/>
      <use x="487.744141" xlink:href="#MicrosoftYaHei-20"/>
      <use x="517.333984" xlink:href="#MicrosoftYaHei-30"/>
      <use x="575.976562" xlink:href="#MicrosoftYaHei-2e"/>
      <use x="600.048828" xlink:href="#MicrosoftYaHei-38"/>
      <use x="658.691406" xlink:href="#MicrosoftYaHei-37"/>
      <use x="717.333984" xlink:href="#MicrosoftYaHei-31"/>
      <use x="775.976562" xlink:href="#MicrosoftYaHei-33"/>
     </g>
    </g>
    <g id="line2d_34">
     <path d="M 94.796719 98.445844 
L 109.796719 98.445844 
" style="fill:none;stroke:#ffa500;stroke-linecap:square;stroke-width:0.7;"/>
    </g>
    <g id="line2d_35"/>
    <g id="text_17">
     <!-- GBDT_AUC = 0.9043 -->
     <g transform="translate(115.796719 101.070844)scale(0.075 -0.075)">
      <defs>
       <path d="M 4284 331 
Q 3559 -81 2647 -81 
Q 1597 -81 955 583 
Q 313 1247 313 2356 
Q 313 3478 1022 4200 
Q 1731 4922 2841 4922 
Q 3625 4922 4169 4672 
L 4169 3997 
Q 3588 4363 2784 4363 
Q 1994 4363 1481 3822 
Q 969 3281 969 2397 
Q 969 1488 1441 981 
Q 1913 475 2716 475 
Q 3269 475 3656 688 
L 3656 1997 
L 2606 1997 
L 2606 2550 
L 4284 2550 
L 4284 331 
z
" id="MicrosoftYaHei-47" transform="scale(0.015625)"/>
       <path d="M 625 0 
L 625 4841 
L 2047 4841 
Q 2684 4841 3065 4536 
Q 3447 4231 3447 3728 
Q 3447 3328 3220 3022 
Q 2994 2716 2597 2588 
L 2597 2575 
Q 3091 2519 3386 2201 
Q 3681 1884 3681 1397 
Q 3681 772 3232 386 
Q 2784 0 2084 0 
L 625 0 
z
M 1250 4294 
L 1250 2778 
L 1819 2778 
Q 2272 2778 2530 2998 
Q 2788 3219 2788 3609 
Q 2788 4294 1875 4294 
L 1250 4294 
z
M 1250 2234 
L 1250 547 
L 2000 547 
Q 2491 547 2758 773 
Q 3025 1000 3025 1403 
Q 3025 2234 1897 2234 
L 1250 2234 
z
" id="MicrosoftYaHei-42" transform="scale(0.015625)"/>
      </defs>
      <use xlink:href="#MicrosoftYaHei-47"/>
      <use x="74.365234" xlink:href="#MicrosoftYaHei-42"/>
      <use x="137.109375" xlink:href="#MicrosoftYaHei-44"/>
      <use x="208.40625" xlink:href="#MicrosoftYaHei-54"/>
      <use x="265.730469" xlink:href="#MicrosoftYaHei-5f"/>
      <use x="310.554688" xlink:href="#MicrosoftYaHei-41"/>
      <use x="379.541016" xlink:href="#MicrosoftYaHei-55"/>
      <use x="454.199219" xlink:href="#MicrosoftYaHei-43"/>
      <use x="521.09375" xlink:href="#MicrosoftYaHei-20"/>
      <use x="550.683594" xlink:href="#MicrosoftYaHei-3d"/>
      <use x="624.853516" xlink:href="#MicrosoftYaHei-20"/>
      <use x="654.443359" xlink:href="#MicrosoftYaHei-30"/>
      <use x="713.085938" xlink:href="#MicrosoftYaHei-2e"/>
      <use x="737.158203" xlink:href="#MicrosoftYaHei-39"/>
      <use x="795.800781" xlink:href="#MicrosoftYaHei-30"/>
      <use x="854.443359" xlink:href="#MicrosoftYaHei-34"/>
      <use x="913.085938" xlink:href="#MicrosoftYaHei-33"/>
     </g>
    </g>
    <g id="line2d_36">
     <path d="M 94.796719 110.106 
L 109.796719 110.106 
" style="fill:none;stroke:#0000ff;stroke-linecap:square;stroke-width:0.7;"/>
    </g>
    <g id="line2d_37"/>
    <g id="text_18">
     <!-- XGBoost_AUC = 0.9106 -->
     <g transform="translate(115.796719 112.731)scale(0.075 -0.075)">
      <defs>
       <path d="M 4034 0 
L 3275 0 
L 2194 1822 
Q 2156 1884 2084 2072 
L 2069 2072 
Q 2063 2047 1956 1819 
L 844 0 
L 81 0 
L 1691 2431 
L 209 4841 
L 975 4841 
L 1931 3166 
Q 2016 3019 2100 2822 
L 2113 2822 
Q 2188 2991 2297 3181 
L 3297 4841 
L 4013 4841 
L 2500 2441 
L 4034 0 
z
" id="MicrosoftYaHei-58" transform="scale(0.015625)"/>
       <path d="M 316 1691 
Q 316 2547 794 3042 
Q 1272 3538 2091 3538 
Q 2869 3538 3311 3061 
Q 3753 2584 3753 1744 
Q 3753 925 3281 422 
Q 2809 -81 2016 -81 
Q 1241 -81 778 406 
Q 316 894 316 1691 
z
M 941 1709 
Q 941 1113 1242 769 
Q 1544 425 2053 425 
Q 2578 425 2853 761 
Q 3128 1097 3128 1725 
Q 3128 2356 2853 2693 
Q 2578 3031 2053 3031 
Q 1538 3031 1239 2678 
Q 941 2325 941 1709 
z
" id="MicrosoftYaHei-6f" transform="scale(0.015625)"/>
       <path d="M 353 747 
Q 816 413 1350 413 
Q 2066 413 2066 881 
Q 2066 1081 1909 1211 
Q 1753 1341 1275 1519 
Q 700 1750 528 1976 
Q 356 2203 356 2525 
Q 356 2984 745 3261 
Q 1134 3538 1703 3538 
Q 2144 3538 2522 3384 
L 2522 2794 
Q 2134 3044 1644 3044 
Q 1350 3044 1165 2916 
Q 981 2788 981 2578 
Q 981 2372 1114 2256 
Q 1247 2141 1703 1959 
Q 2281 1744 2484 1512 
Q 2688 1281 2688 941 
Q 2688 466 2298 192 
Q 1909 -81 1291 -81 
Q 753 -81 353 122 
L 353 747 
z
" id="MicrosoftYaHei-73" transform="scale(0.015625)"/>
       <path d="M 2206 34 
Q 2006 -75 1666 -75 
Q 738 -75 738 953 
L 738 2950 
L 144 2950 
L 144 3456 
L 738 3456 
L 738 4288 
L 1347 4481 
L 1347 3456 
L 2206 3456 
L 2206 2950 
L 1347 2950 
L 1347 1063 
Q 1347 722 1462 575 
Q 1578 428 1847 428 
Q 2053 428 2206 544 
L 2206 34 
z
" id="MicrosoftYaHei-74" transform="scale(0.015625)"/>
      </defs>
      <use xlink:href="#MicrosoftYaHei-58"/>
      <use x="63.251953" xlink:href="#MicrosoftYaHei-47"/>
      <use x="137.617188" xlink:href="#MicrosoftYaHei-42"/>
      <use x="200.361328" xlink:href="#MicrosoftYaHei-6f"/>
      <use x="263.935547" xlink:href="#MicrosoftYaHei-6f"/>
      <use x="327.509766" xlink:href="#MicrosoftYaHei-73"/>
      <use x="373.798828" xlink:href="#MicrosoftYaHei-74"/>
      <use x="411.054688" xlink:href="#MicrosoftYaHei-5f"/>
      <use x="455.878906" xlink:href="#MicrosoftYaHei-41"/>
      <use x="524.865234" xlink:href="#MicrosoftYaHei-55"/>
      <use x="599.523438" xlink:href="#MicrosoftYaHei-43"/>
      <use x="666.417969" xlink:href="#MicrosoftYaHei-20"/>
      <use x="696.007812" xlink:href="#MicrosoftYaHei-3d"/>
      <use x="770.177734" xlink:href="#MicrosoftYaHei-20"/>
      <use x="799.767578" xlink:href="#MicrosoftYaHei-30"/>
      <use x="858.410156" xlink:href="#MicrosoftYaHei-2e"/>
      <use x="882.482422" xlink:href="#MicrosoftYaHei-39"/>
      <use x="941.125" xlink:href="#MicrosoftYaHei-31"/>
      <use x="999.767578" xlink:href="#MicrosoftYaHei-30"/>
      <use x="1058.410156" xlink:href="#MicrosoftYaHei-36"/>
     </g>
    </g>
    <g id="line2d_38">
     <path d="M 94.796719 121.766156 
L 109.796719 121.766156 
" style="fill:none;stroke:#008000;stroke-linecap:square;stroke-width:0.7;"/>
    </g>
    <g id="line2d_39"/>
    <g id="text_19">
     <!-- LR_AUC = 0.8774 -->
     <g transform="translate(115.796719 124.391156)scale(0.075 -0.075)">
      <defs>
       <path d="M 3178 0 
L 625 0 
L 625 4841 
L 1250 4841 
L 1250 553 
L 3178 553 
L 3178 0 
z
" id="MicrosoftYaHei-4c" transform="scale(0.015625)"/>
      </defs>
      <use xlink:href="#MicrosoftYaHei-4c"/>
      <use x="51.318359" xlink:href="#MicrosoftYaHei-52"/>
      <use x="116.601562" xlink:href="#MicrosoftYaHei-5f"/>
      <use x="161.425781" xlink:href="#MicrosoftYaHei-41"/>
      <use x="230.412109" xlink:href="#MicrosoftYaHei-55"/>
      <use x="305.070312" xlink:href="#MicrosoftYaHei-43"/>
      <use x="371.964844" xlink:href="#MicrosoftYaHei-20"/>
      <use x="401.554688" xlink:href="#MicrosoftYaHei-3d"/>
      <use x="475.724609" xlink:href="#MicrosoftYaHei-20"/>
      <use x="505.314453" xlink:href="#MicrosoftYaHei-30"/>
      <use x="563.957031" xlink:href="#MicrosoftYaHei-2e"/>
      <use x="588.029297" xlink:href="#MicrosoftYaHei-38"/>
      <use x="646.671875" xlink:href="#MicrosoftYaHei-37"/>
      <use x="705.314453" xlink:href="#MicrosoftYaHei-37"/>
      <use x="763.957031" xlink:href="#MicrosoftYaHei-34"/>
     </g>
    </g>
   </g>
  </g>
 </g>
 <defs>
  <clipPath id="pd6d7bfc5bc">
   <rect height="133.056" width="172.98" x="33.346406" y="-0"/>
  </clipPath>
 </defs>
</svg>
