<?xml version="1.0" encoding="utf-8" standalone="no"?>
<!DOCTYPE svg PUBLIC "-//W3C//DTD SVG 1.1//EN"
  "http://www.w3.org/Graphics/SVG/1.1/DTD/svg11.dtd">
<svg height="197.697984pt" version="1.1" viewBox="0 0 317.632734 197.697984" width="317.632734pt" xmlns="http://www.w3.org/2000/svg" xmlns:xlink="http://www.w3.org/1999/xlink">
 <metadata>
  <rdf:RDF xmlns:cc="http://creativecommons.org/ns#" xmlns:dc="http://purl.org/dc/elements/1.1/" xmlns:rdf="http://www.w3.org/1999/02/22-rdf-syntax-ns#">
   <cc:Work>
    <dc:type rdf:resource="http://purl.org/dc/dcmitype/StillImage"/>
    <dc:date>2023-03-20T22:24:50.083363</dc:date>
    <dc:format>image/svg+xml</dc:format>
    <dc:creator>
     <cc:Agent>
      <dc:title>Matplotlib v3.4.3, https://matplotlib.org/</dc:title>
     </cc:Agent>
    </dc:creator>
   </cc:Work>
  </rdf:RDF>
 </metadata>
 <defs>
  <style type="text/css">*{stroke-linecap:butt;stroke-linejoin:round;}</style>
 </defs>
 <g id="figure_1">
  <g id="patch_1">
   <path d="M -0 197.697984 
L 317.632734 197.697984 
L 317.632734 0 
L -0 0 
z
" style="fill:#ffffff;"/>
  </g>
  <g id="axes_1">
   <g id="patch_2">
    <path d="M 33.052734 171.864 
L 317.632734 171.864 
L 317.632734 0 
L 33.052734 0 
z
" style="fill:#ffffff;"/>
   </g>
   <g id="matplotlib.axis_1">
    <g id="xtick_1">
     <g id="line2d_1">
      <defs>
       <path d="M 0 0 
L 0 -3.5 
" id="m7da427c58f" style="stroke:#000000;stroke-width:0.8;"/>
      </defs>
      <g>
       <use style="stroke:#000000;stroke-width:0.8;" x="45.988189" xlink:href="#m7da427c58f" y="171.864"/>
      </g>
     </g>
     <g id="text_1">
      <!-- 0 -->
      <g transform="translate(43.363189 182.58275)scale(0.105 -0.105)">
       <defs>
        <path d="M 225 2537 
Q 250 3200 412 3587 
Q 575 3975 875 4225 
Q 1175 4475 1612 4475 
Q 2050 4475 2375 4112 
Q 2700 3750 2800 3200 
Q 2900 2650 2862 1937 
Q 2825 1225 2612 775 
Q 2400 325 1975 150 
Q 1550 -25 1125 187 
Q 700 400 525 750 
Q 350 1100 275 1487 
Q 200 1875 225 2537 
z
M 750 2687 
Q 675 2000 800 1462 
Q 925 925 1212 700 
Q 1500 475 1800 612 
Q 2100 750 2237 1162 
Q 2375 1575 2375 2062 
Q 2375 2550 2337 2950 
Q 2300 3350 2112 3675 
Q 1925 4000 1612 4012 
Q 1300 4025 1062 3700 
Q 825 3375 750 2687 
z
" id="SimHei-30" transform="scale(0.015625)"/>
       </defs>
       <use xlink:href="#SimHei-30"/>
      </g>
     </g>
    </g>
    <g id="xtick_2">
     <g id="line2d_2">
      <g>
       <use style="stroke:#000000;stroke-width:0.8;" x="85.42555" xlink:href="#m7da427c58f" y="171.864"/>
      </g>
     </g>
     <g id="text_2">
      <!-- 25 -->
      <g transform="translate(80.17555 182.58275)scale(0.105 -0.105)">
       <defs>
        <path d="M 300 250 
Q 325 625 650 925 
Q 975 1225 1475 1862 
Q 1975 2500 2125 2850 
Q 2275 3200 2237 3450 
Q 2200 3700 2000 3862 
Q 1800 4025 1537 4000 
Q 1275 3975 1037 3800 
Q 800 3625 675 3275 
L 200 3350 
Q 400 3925 712 4187 
Q 1025 4450 1450 4475 
Q 1700 4500 1900 4462 
Q 2100 4425 2312 4287 
Q 2525 4150 2662 3875 
Q 2800 3600 2762 3212 
Q 2725 2825 2375 2287 
Q 2025 1750 1025 600 
L 2825 600 
L 2825 150 
L 300 150 
L 300 250 
z
" id="SimHei-32" transform="scale(0.015625)"/>
        <path d="M 550 1325 
Q 725 650 1150 575 
Q 1575 500 1837 662 
Q 2100 825 2212 1087 
Q 2325 1350 2312 1675 
Q 2300 2000 2137 2225 
Q 1975 2450 1725 2525 
Q 1475 2600 1162 2525 
Q 850 2450 650 2175 
L 225 2225 
Q 275 2375 700 4375 
L 2675 4375 
L 2675 3925 
L 1075 3925 
Q 950 3250 825 2850 
Q 1200 3025 1525 3012 
Q 1850 3000 2150 2862 
Q 2450 2725 2587 2487 
Q 2725 2250 2787 2012 
Q 2850 1775 2837 1500 
Q 2825 1225 2725 937 
Q 2625 650 2425 462 
Q 2225 275 1937 162 
Q 1650 50 1275 75 
Q 900 100 562 350 
Q 225 600 100 1200 
L 550 1325 
z
" id="SimHei-35" transform="scale(0.015625)"/>
       </defs>
       <use xlink:href="#SimHei-32"/>
       <use x="50" xlink:href="#SimHei-35"/>
      </g>
     </g>
    </g>
    <g id="xtick_3">
     <g id="line2d_3">
      <g>
       <use style="stroke:#000000;stroke-width:0.8;" x="124.862912" xlink:href="#m7da427c58f" y="171.864"/>
      </g>
     </g>
     <g id="text_3">
      <!-- 50 -->
      <g transform="translate(119.612912 182.58275)scale(0.105 -0.105)">
       <use xlink:href="#SimHei-35"/>
       <use x="50" xlink:href="#SimHei-30"/>
      </g>
     </g>
    </g>
    <g id="xtick_4">
     <g id="line2d_4">
      <g>
       <use style="stroke:#000000;stroke-width:0.8;" x="164.300273" xlink:href="#m7da427c58f" y="171.864"/>
      </g>
     </g>
     <g id="text_4">
      <!-- 75 -->
      <g transform="translate(159.050273 182.58275)scale(0.105 -0.105)">
       <defs>
        <path d="M 850 150 
Q 1300 2050 2425 3925 
L 275 3925 
L 275 4375 
L 2950 4375 
L 2950 3950 
Q 1775 2050 1400 150 
L 850 150 
z
" id="SimHei-37" transform="scale(0.015625)"/>
       </defs>
       <use xlink:href="#SimHei-37"/>
       <use x="50" xlink:href="#SimHei-35"/>
      </g>
     </g>
    </g>
    <g id="xtick_5">
     <g id="line2d_5">
      <g>
       <use style="stroke:#000000;stroke-width:0.8;" x="203.737635" xlink:href="#m7da427c58f" y="171.864"/>
      </g>
     </g>
     <g id="text_5">
      <!-- 100 -->
      <g transform="translate(195.862635 182.58275)scale(0.105 -0.105)">
       <defs>
        <path d="M 1400 3600 
Q 1075 3275 575 2975 
L 575 3450 
Q 1200 3875 1600 4450 
L 1900 4450 
L 1900 150 
L 1400 150 
L 1400 3600 
z
" id="SimHei-31" transform="scale(0.015625)"/>
       </defs>
       <use xlink:href="#SimHei-31"/>
       <use x="50" xlink:href="#SimHei-30"/>
       <use x="100" xlink:href="#SimHei-30"/>
      </g>
     </g>
    </g>
    <g id="xtick_6">
     <g id="line2d_6">
      <g>
       <use style="stroke:#000000;stroke-width:0.8;" x="243.174996" xlink:href="#m7da427c58f" y="171.864"/>
      </g>
     </g>
     <g id="text_6">
      <!-- 125 -->
      <g transform="translate(235.299996 182.58275)scale(0.105 -0.105)">
       <use xlink:href="#SimHei-31"/>
       <use x="50" xlink:href="#SimHei-32"/>
       <use x="100" xlink:href="#SimHei-35"/>
      </g>
     </g>
    </g>
    <g id="xtick_7">
     <g id="line2d_7">
      <g>
       <use style="stroke:#000000;stroke-width:0.8;" x="282.612357" xlink:href="#m7da427c58f" y="171.864"/>
      </g>
     </g>
     <g id="text_7">
      <!-- 150 -->
      <g transform="translate(274.737357 182.58275)scale(0.105 -0.105)">
       <use xlink:href="#SimHei-31"/>
       <use x="50" xlink:href="#SimHei-35"/>
       <use x="100" xlink:href="#SimHei-30"/>
      </g>
     </g>
    </g>
    <g id="text_8">
     <!-- 时间序列 -->
     <g transform="translate(154.342734 196.385484)scale(0.105 -0.105)">
      <defs>
       <path d="M 2525 4575 
Q 2500 3675 2500 2400 
Q 2500 1125 2525 400 
L 2000 400 
L 2000 875 
L 1000 875 
L 1000 50 
L 475 50 
Q 500 1200 500 2350 
Q 500 3525 475 4575 
L 2525 4575 
z
M 4875 3825 
Q 4875 4575 4850 5225 
L 5400 5225 
Q 5375 4575 5375 3825 
Q 5750 3825 6175 3850 
L 6175 3375 
Q 5750 3400 5375 3400 
L 5375 50 
Q 5375 -325 5075 -425 
Q 4775 -525 4300 -575 
Q 4300 -275 4025 0 
Q 4500 -50 4687 -25 
Q 4875 0 4875 300 
L 4875 3400 
Q 3625 3400 2775 3375 
L 2775 3850 
Q 3575 3825 4875 3825 
z
M 2000 1300 
L 2000 2550 
L 1000 2550 
L 1000 1300 
L 2000 1300 
z
M 2000 2975 
L 2000 4150 
L 1000 4150 
L 1000 2975 
L 2000 2975 
z
M 3550 2725 
Q 3875 2200 4175 1600 
Q 3925 1525 3650 1375 
Q 3450 1975 3075 2500 
Q 3300 2600 3550 2725 
z
" id="SimHei-65f6" transform="scale(0.015625)"/>
       <path d="M 4450 3550 
Q 4425 3075 4425 2725 
L 4425 1400 
Q 4425 1075 4450 625 
L 1925 625 
Q 1950 1075 1950 1425 
L 1950 2725 
Q 1950 3075 1925 3550 
L 4450 3550 
z
M 5800 4875 
Q 5775 4400 5775 3925 
L 5775 250 
Q 5800 -325 5462 -450 
Q 5125 -575 4725 -625 
Q 4700 -325 4525 -25 
Q 5000 -50 5137 25 
Q 5275 100 5275 350 
L 5275 4450 
L 3775 4450 
Q 3175 4450 2650 4425 
L 2650 4900 
Q 3175 4875 3775 4875 
L 5800 4875 
z
M 550 -525 
Q 600 -25 600 525 
L 600 3150 
Q 600 3675 550 4025 
L 1125 4025 
Q 1100 3650 1100 3300 
L 1100 500 
Q 1100 0 1125 -525 
L 550 -525 
z
M 3950 1025 
L 3950 1950 
L 2425 1950 
L 2425 1025 
L 3950 1025 
z
M 3950 2350 
L 3950 3150 
L 2425 3150 
L 2425 2350 
L 3950 2350 
z
M 1525 5300 
Q 1750 5000 2225 4350 
Q 1950 4225 1700 4075 
Q 1450 4575 1075 5025 
Q 1350 5225 1525 5300 
z
" id="SimHei-95f4" transform="scale(0.015625)"/>
       <path d="M 4000 2075 
L 5975 2075 
Q 5750 1525 5575 1025 
Q 5325 1100 5050 1150 
Q 5175 1450 5275 1700 
L 4050 1700 
L 4050 150 
Q 4050 -375 3762 -462 
Q 3475 -550 2950 -575 
Q 2875 -300 2750 0 
Q 3350 -75 3475 25 
Q 3600 125 3575 375 
L 3575 1700 
L 2450 1700 
Q 2050 1700 1675 1675 
L 1675 2100 
Q 2100 2075 2425 2075 
L 3675 2075 
Q 3325 2400 2875 2775 
Q 2975 2875 3250 3100 
Q 3400 2975 3725 2725 
L 4575 3275 
L 3000 3275 
Q 2400 3275 1950 3250 
L 1950 3700 
Q 2400 3675 3000 3675 
L 5400 3675 
L 5400 3250 
Q 4700 2875 4025 2450 
L 4275 2250 
L 4000 2075 
z
M 3725 5275 
Q 3825 4925 3925 4525 
L 4850 4525 
Q 5425 4525 6000 4550 
L 6000 4125 
Q 5425 4150 4850 4150 
L 1400 4150 
Q 1400 2750 1362 2137 
Q 1325 1525 1200 887 
Q 1075 250 775 -350 
Q 625 -250 250 -125 
Q 475 300 600 700 
Q 725 1100 800 1637 
Q 875 2175 875 2825 
Q 875 3500 850 4525 
L 3350 4525 
Q 3275 4825 3150 5150 
Q 3425 5200 3725 5275 
z
" id="SimHei-5e8f" transform="scale(0.015625)"/>
       <path d="M 2950 4800 
Q 3525 4800 3825 4825 
L 3825 4400 
Q 3525 4425 2800 4425 
L 2125 4425 
Q 2075 4125 1925 3500 
L 3425 3500 
Q 3300 2500 3100 1862 
Q 2900 1225 2575 762 
Q 2250 300 1850 -12 
Q 1450 -325 925 -675 
Q 725 -375 475 -150 
Q 1125 125 1550 437 
Q 1975 750 2250 1225 
Q 2100 1350 1862 1550 
Q 1625 1750 1400 1925 
L 1750 2325 
Q 1925 2200 2100 2037 
Q 2275 1875 2500 1650 
Q 2650 2025 2737 2337 
Q 2825 2650 2875 3100 
L 1775 3100 
Q 1600 2650 1350 2237 
Q 1100 1825 775 1525 
Q 600 1675 325 1850 
Q 600 2125 825 2462 
Q 1050 2800 1200 3125 
Q 1350 3450 1425 3775 
Q 1500 4100 1550 4425 
L 1100 4425 
Q 575 4425 375 4400 
L 375 4825 
Q 575 4800 1125 4800 
L 2950 4800 
z
M 5975 5050 
Q 5925 4675 5925 4250 
L 5925 50 
Q 5925 -275 5737 -400 
Q 5550 -525 4900 -625 
Q 4825 -250 4650 25 
Q 5150 0 5287 25 
Q 5425 50 5425 325 
L 5425 4250 
Q 5425 4650 5400 5050 
L 5975 5050 
z
M 4725 4300 
Q 4675 4000 4675 3450 
L 4675 1650 
Q 4675 1200 4700 850 
L 4100 850 
Q 4150 1200 4150 1650 
L 4150 3550 
Q 4150 3975 4100 4300 
L 4725 4300 
z
" id="SimHei-5217" transform="scale(0.015625)"/>
      </defs>
      <use xlink:href="#SimHei-65f6"/>
      <use x="100" xlink:href="#SimHei-95f4"/>
      <use x="200" xlink:href="#SimHei-5e8f"/>
      <use x="300" xlink:href="#SimHei-5217"/>
     </g>
    </g>
   </g>
   <g id="matplotlib.axis_2">
    <g id="ytick_1">
     <g id="line2d_8">
      <defs>
       <path d="M 0 0 
L 3.5 0 
" id="mb1542bc774" style="stroke:#000000;stroke-width:0.8;"/>
      </defs>
      <g>
       <use style="stroke:#000000;stroke-width:0.8;" x="33.052734" xlink:href="#mb1542bc774" y="170.041568"/>
      </g>
     </g>
     <g id="text_9">
      <!-- -30 -->
      <g transform="translate(13.802734 173.650943)scale(0.105 -0.105)">
       <defs>
        <path d="M 2975 2125 
L 125 2125 
L 125 2525 
L 2975 2525 
L 2975 2125 
z
" id="SimHei-2d" transform="scale(0.015625)"/>
        <path d="M 250 1225 
L 700 1300 
Q 800 975 1025 762 
Q 1250 550 1587 562 
Q 1925 575 2125 837 
Q 2325 1100 2300 1437 
Q 2275 1775 2037 1962 
Q 1800 2150 1275 2225 
L 1275 2550 
Q 1800 2600 2037 2825 
Q 2275 3050 2250 3412 
Q 2225 3775 1925 3937 
Q 1625 4100 1287 3975 
Q 950 3850 750 3275 
L 300 3350 
Q 450 3800 712 4100 
Q 975 4400 1425 4450 
Q 1875 4500 2212 4337 
Q 2550 4175 2687 3837 
Q 2825 3500 2725 3100 
Q 2625 2700 2150 2400 
Q 2500 2250 2687 1950 
Q 2875 1650 2812 1162 
Q 2750 675 2375 375 
Q 2000 75 1525 87 
Q 1050 100 700 387 
Q 350 675 250 1225 
z
" id="SimHei-33" transform="scale(0.015625)"/>
       </defs>
       <use xlink:href="#SimHei-2d"/>
       <use x="50" xlink:href="#SimHei-33"/>
       <use x="100" xlink:href="#SimHei-30"/>
      </g>
     </g>
    </g>
    <g id="ytick_2">
     <g id="line2d_9">
      <g>
       <use style="stroke:#000000;stroke-width:0.8;" x="33.052734" xlink:href="#mb1542bc774" y="150.07633"/>
      </g>
     </g>
     <g id="text_10">
      <!-- -20 -->
      <g transform="translate(13.802734 153.685705)scale(0.105 -0.105)">
       <use xlink:href="#SimHei-2d"/>
       <use x="50" xlink:href="#SimHei-32"/>
       <use x="100" xlink:href="#SimHei-30"/>
      </g>
     </g>
    </g>
    <g id="ytick_3">
     <g id="line2d_10">
      <g>
       <use style="stroke:#000000;stroke-width:0.8;" x="33.052734" xlink:href="#mb1542bc774" y="130.111092"/>
      </g>
     </g>
     <g id="text_11">
      <!-- -10 -->
      <g transform="translate(13.802734 133.720467)scale(0.105 -0.105)">
       <use xlink:href="#SimHei-2d"/>
       <use x="50" xlink:href="#SimHei-31"/>
       <use x="100" xlink:href="#SimHei-30"/>
      </g>
     </g>
    </g>
    <g id="ytick_4">
     <g id="line2d_11">
      <g>
       <use style="stroke:#000000;stroke-width:0.8;" x="33.052734" xlink:href="#mb1542bc774" y="110.145854"/>
      </g>
     </g>
     <g id="text_12">
      <!-- 0 -->
      <g transform="translate(24.302734 113.755229)scale(0.105 -0.105)">
       <use xlink:href="#SimHei-30"/>
      </g>
     </g>
    </g>
    <g id="ytick_5">
     <g id="line2d_12">
      <g>
       <use style="stroke:#000000;stroke-width:0.8;" x="33.052734" xlink:href="#mb1542bc774" y="90.180616"/>
      </g>
     </g>
     <g id="text_13">
      <!-- 10 -->
      <g transform="translate(19.052734 93.789991)scale(0.105 -0.105)">
       <use xlink:href="#SimHei-31"/>
       <use x="50" xlink:href="#SimHei-30"/>
      </g>
     </g>
    </g>
    <g id="ytick_6">
     <g id="line2d_13">
      <g>
       <use style="stroke:#000000;stroke-width:0.8;" x="33.052734" xlink:href="#mb1542bc774" y="70.215379"/>
      </g>
     </g>
     <g id="text_14">
      <!-- 20 -->
      <g transform="translate(19.052734 73.824754)scale(0.105 -0.105)">
       <use xlink:href="#SimHei-32"/>
       <use x="50" xlink:href="#SimHei-30"/>
      </g>
     </g>
    </g>
    <g id="ytick_7">
     <g id="line2d_14">
      <g>
       <use style="stroke:#000000;stroke-width:0.8;" x="33.052734" xlink:href="#mb1542bc774" y="50.250141"/>
      </g>
     </g>
     <g id="text_15">
      <!-- 30 -->
      <g transform="translate(19.052734 53.859516)scale(0.105 -0.105)">
       <use xlink:href="#SimHei-33"/>
       <use x="50" xlink:href="#SimHei-30"/>
      </g>
     </g>
    </g>
    <g id="ytick_8">
     <g id="line2d_15">
      <g>
       <use style="stroke:#000000;stroke-width:0.8;" x="33.052734" xlink:href="#mb1542bc774" y="30.284903"/>
      </g>
     </g>
     <g id="text_16">
      <!-- 40 -->
      <g transform="translate(19.052734 33.894278)scale(0.105 -0.105)">
       <defs>
        <path d="M 2000 1100 
L 75 1100 
L 75 1525 
L 2100 4450 
L 2475 4450 
L 2475 1525 
L 3075 1525 
L 3075 1100 
L 2475 1100 
L 2475 150 
L 2000 150 
L 2000 1100 
z
M 2000 1525 
L 2000 3500 
L 600 1525 
L 2000 1525 
z
" id="SimHei-34" transform="scale(0.015625)"/>
       </defs>
       <use xlink:href="#SimHei-34"/>
       <use x="50" xlink:href="#SimHei-30"/>
      </g>
     </g>
    </g>
    <g id="ytick_9">
     <g id="line2d_16">
      <g>
       <use style="stroke:#000000;stroke-width:0.8;" x="33.052734" xlink:href="#mb1542bc774" y="10.319665"/>
      </g>
     </g>
     <g id="text_17">
      <!-- 50 -->
      <g transform="translate(19.052734 13.92904)scale(0.105 -0.105)">
       <use xlink:href="#SimHei-35"/>
       <use x="50" xlink:href="#SimHei-30"/>
      </g>
     </g>
    </g>
    <g id="text_18">
     <!-- 平均延误时间/minute -->
     <g transform="translate(8.490234 135.807)rotate(-90)scale(0.105 -0.105)">
      <defs>
       <path d="M 4525 4825 
Q 4900 4825 5450 4850 
L 5450 4375 
Q 4925 4400 4525 4400 
L 3475 4400 
L 3475 2025 
L 5000 2025 
Q 5550 2025 6025 2050 
L 6025 1575 
Q 5550 1600 5000 1600 
L 3475 1600 
L 3475 450 
Q 3475 -100 3500 -600 
L 2925 -600 
Q 2950 -100 2950 450 
L 2950 1600 
L 1125 1600 
Q 775 1600 375 1575 
L 375 2050 
Q 775 2025 1175 2025 
L 2950 2025 
L 2950 4400 
L 1775 4400 
Q 1400 4400 875 4375 
L 875 4850 
Q 1400 4825 1750 4825 
L 4525 4825 
z
M 3925 2600 
Q 4500 3300 4900 4125 
Q 5150 3950 5400 3825 
Q 4775 2850 4350 2300 
Q 4150 2475 3925 2600 
z
M 1975 2350 
Q 1600 3100 1050 3725 
Q 1250 3875 1450 4050 
Q 2075 3300 2450 2725 
Q 2150 2500 1975 2350 
z
" id="SimHei-5e73" transform="scale(0.015625)"/>
       <path d="M 5775 275 
Q 5775 -325 5362 -450 
Q 4950 -575 4425 -600 
Q 4375 -275 4250 25 
Q 4950 -25 5125 62 
Q 5300 150 5300 500 
L 5375 3700 
L 3550 3700 
Q 3425 3375 3262 3037 
Q 3100 2700 2925 2400 
Q 2675 2550 2475 2625 
Q 3150 3625 3500 5200 
Q 3800 5100 4075 5025 
Q 3975 4875 3875 4650 
Q 3775 4425 3675 4125 
L 5900 4125 
L 5775 275 
z
M 1250 3625 
L 1250 4375 
Q 1250 4775 1225 5100 
L 1775 5100 
Q 1750 4725 1750 4375 
L 1750 3625 
L 1900 3625 
Q 2200 3625 2525 3650 
L 2525 3150 
Q 2200 3175 1900 3175 
L 1750 3175 
L 1750 1100 
L 2500 1375 
Q 2475 1125 2525 900 
Q 1225 475 962 362 
Q 700 250 475 150 
Q 375 475 250 750 
Q 575 800 800 850 
Q 1025 900 1250 975 
L 1250 3175 
L 1125 3175 
Q 850 3175 400 3150 
L 400 3650 
Q 850 3625 1100 3625 
L 1250 3625 
z
M 4950 1625 
Q 4675 1425 4137 1050 
Q 3600 675 3175 300 
Q 3000 575 2850 775 
Q 3350 1050 3762 1325 
Q 4175 1600 4775 2075 
Q 4825 1850 4950 1625 
z
M 3775 3150 
Q 4125 2800 4475 2300 
Q 4250 2125 4100 1975 
Q 3900 2325 3450 2825 
Q 3600 3000 3775 3150 
z
" id="SimHei-5747" transform="scale(0.015625)"/>
       <path d="M 2100 4750 
Q 1500 3450 1275 2875 
L 2175 2875 
Q 2050 2200 1937 1712 
Q 1825 1225 1650 750 
Q 2025 425 2712 212 
Q 3400 0 4175 -25 
Q 4950 -50 6175 75 
Q 5950 -200 5925 -475 
Q 4825 -500 4112 -462 
Q 3400 -425 2900 -312 
Q 2400 -200 2075 -37 
Q 1750 125 1425 375 
Q 1050 -150 650 -525 
Q 500 -350 250 -200 
Q 725 200 1100 700 
Q 825 1025 687 1250 
Q 550 1475 400 1775 
Q 500 1825 800 2000 
Q 950 1700 1050 1537 
Q 1150 1375 1300 1175 
Q 1475 1625 1650 2500 
Q 1000 2500 725 2425 
L 600 2875 
Q 825 3000 1050 3500 
Q 1275 4000 1400 4350 
Q 800 4350 400 4325 
L 400 4775 
Q 1125 4750 1450 4750 
L 2100 4750 
z
M 5675 4625 
Q 5350 4625 4500 4400 
L 4500 3100 
Q 5200 3100 5600 3125 
L 5600 2675 
Q 5200 2700 4500 2700 
L 4500 1200 
Q 4975 1200 5675 1225 
L 5675 750 
Q 5000 775 4600 775 
L 2700 775 
Q 2725 1400 2725 1825 
L 2725 2400 
Q 2725 2850 2700 3525 
L 3275 3525 
Q 3225 2850 3225 2200 
L 3225 1200 
L 4000 1200 
L 4000 4325 
Q 3075 4175 2650 4100 
Q 2600 4275 2450 4575 
Q 3300 4650 3887 4762 
Q 4475 4875 5200 5175 
Q 5275 5050 5675 4625 
z
" id="SimHei-5ef6" transform="scale(0.015625)"/>
       <path d="M 4625 2750 
Q 5325 2750 5800 2775 
L 5800 2350 
Q 5300 2375 4625 2375 
L 4150 2375 
Q 4150 2125 4100 1650 
L 5025 1650 
Q 5575 1650 6100 1675 
L 6100 1225 
Q 5575 1250 5025 1250 
L 4250 1250 
Q 4575 600 5050 287 
Q 5525 -25 6125 -125 
Q 5900 -350 5775 -625 
Q 4875 -275 4450 175 
Q 4025 625 3900 1000 
Q 3600 325 3125 -62 
Q 2650 -450 2025 -675 
Q 1975 -450 1725 -200 
Q 2475 -75 2937 437 
Q 3400 950 3475 1250 
L 2975 1250 
Q 2400 1250 2025 1225 
L 2025 1675 
Q 2475 1650 2900 1650 
L 3600 1650 
Q 3650 2025 3650 2375 
L 3325 2375 
Q 2675 2375 2225 2350 
L 2225 2775 
Q 2700 2750 3150 2750 
L 4625 2750 
z
M 5425 4875 
Q 5400 4550 5400 4075 
Q 5400 3600 5425 3325 
L 2450 3325 
Q 2475 3575 2475 4050 
Q 2475 4525 2450 4875 
L 5425 4875 
z
M 1550 3325 
Q 1525 3000 1525 2500 
L 1525 675 
L 1900 1100 
Q 2025 875 2225 700 
Q 1675 300 1250 -325 
Q 1100 -100 825 50 
Q 1025 250 1050 500 
L 1050 2900 
Q 700 2900 325 2875 
L 325 3350 
Q 550 3325 750 3325 
L 1550 3325 
z
M 4975 3700 
L 4975 4475 
L 2900 4475 
L 2900 3700 
L 4975 3700 
z
M 975 5125 
Q 1150 5000 1900 4275 
Q 1725 4125 1550 3925 
Q 1150 4400 675 4775 
Q 875 4975 975 5125 
z
" id="SimHei-8bef" transform="scale(0.015625)"/>
       <path d="M 3000 4550 
L 350 -175 
L 100 -25 
L 2750 4700 
L 3000 4550 
z
" id="SimHei-2f" transform="scale(0.015625)"/>
       <path d="M 3050 125 
L 2550 125 
L 2550 2150 
Q 2550 2300 2500 2400 
Q 2450 2500 2300 2500 
Q 2125 2500 1975 2312 
Q 1825 2125 1825 1825 
L 1825 125 
L 1325 125 
L 1325 2150 
Q 1325 2300 1275 2400 
Q 1225 2500 1075 2500 
Q 900 2500 750 2312 
Q 600 2125 600 1825 
L 600 125 
L 100 125 
L 100 2925 
L 600 2925 
L 600 2550 
Q 725 2750 900 2862 
Q 1075 2975 1275 2975 
Q 1475 2975 1612 2862 
Q 1750 2750 1800 2550 
Q 1925 2750 2087 2862 
Q 2250 2975 2450 2975 
Q 2750 2975 2900 2812 
Q 3050 2650 3050 2350 
L 3050 125 
z
" id="SimHei-6d" transform="scale(0.015625)"/>
       <path d="M 1800 3725 
L 1300 3725 
L 1300 4375 
L 1800 4375 
L 1800 3725 
z
M 1800 125 
L 1300 125 
L 1300 2925 
L 1800 2925 
L 1800 125 
z
" id="SimHei-69" transform="scale(0.015625)"/>
       <path d="M 2800 125 
L 2300 125 
L 2300 1925 
Q 2300 2225 2150 2400 
Q 2000 2575 1750 2575 
Q 1425 2575 1137 2237 
Q 850 1900 850 1400 
L 850 125 
L 350 125 
L 350 2925 
L 850 2925 
L 850 2400 
Q 1050 2675 1287 2825 
Q 1525 2975 1900 2975 
Q 2350 2975 2575 2725 
Q 2800 2475 2800 2100 
L 2800 125 
z
" id="SimHei-6e" transform="scale(0.015625)"/>
       <path d="M 2800 125 
L 2300 125 
L 2300 650 
Q 2100 375 1862 225 
Q 1625 75 1250 75 
Q 800 75 575 325 
Q 350 575 350 950 
L 350 2925 
L 850 2925 
L 850 1125 
Q 850 825 1000 650 
Q 1150 475 1400 475 
Q 1725 475 2012 812 
Q 2300 1150 2300 1650 
L 2300 2925 
L 2800 2925 
L 2800 125 
z
" id="SimHei-75" transform="scale(0.015625)"/>
       <path d="M 2750 200 
Q 2625 150 2462 112 
Q 2300 75 2025 75 
Q 1575 75 1300 325 
Q 1025 575 1025 1025 
L 1025 2525 
L 175 2525 
L 175 2925 
L 1025 2925 
L 1025 3900 
L 1525 3900 
L 1525 2925 
L 2550 2925 
L 2550 2525 
L 1525 2525 
L 1525 1000 
Q 1525 800 1625 662 
Q 1725 525 2000 525 
Q 2275 525 2450 575 
Q 2625 625 2750 700 
L 2750 200 
z
" id="SimHei-74" transform="scale(0.015625)"/>
       <path d="M 2850 1075 
Q 2800 625 2450 350 
Q 2100 75 1625 75 
Q 1025 75 637 462 
Q 250 850 250 1525 
Q 250 2200 637 2587 
Q 1025 2975 1625 2975 
Q 2150 2975 2487 2637 
Q 2825 2300 2825 1525 
L 800 1525 
Q 800 975 1037 750 
Q 1275 525 1625 525 
Q 1900 525 2075 662 
Q 2250 800 2300 1075 
L 2850 1075 
z
M 2250 1925 
Q 2200 2275 2025 2412 
Q 1850 2550 1575 2550 
Q 1325 2550 1125 2412 
Q 925 2275 825 1925 
L 2250 1925 
z
" id="SimHei-65" transform="scale(0.015625)"/>
      </defs>
      <use xlink:href="#SimHei-5e73"/>
      <use x="100" xlink:href="#SimHei-5747"/>
      <use x="200" xlink:href="#SimHei-5ef6"/>
      <use x="300" xlink:href="#SimHei-8bef"/>
      <use x="400" xlink:href="#SimHei-65f6"/>
      <use x="500" xlink:href="#SimHei-95f4"/>
      <use x="600" xlink:href="#SimHei-2f"/>
      <use x="650" xlink:href="#SimHei-6d"/>
      <use x="700" xlink:href="#SimHei-69"/>
      <use x="750" xlink:href="#SimHei-6e"/>
      <use x="800" xlink:href="#SimHei-75"/>
      <use x="850" xlink:href="#SimHei-74"/>
      <use x="900" xlink:href="#SimHei-65"/>
     </g>
    </g>
   </g>
   <g id="line2d_17">
    <path clip-path="url(#p4efd3712de)" d="M 45.988189 114.138902 
L 47.565683 120.128474 
L 49.143178 108.149331 
L 50.720672 110.145854 
L 52.298167 110.145854 
L 55.453156 114.138902 
L 57.03065 112.142378 
L 58.608145 106.152807 
L 60.185639 108.149331 
L 61.763133 108.149331 
L 63.340628 104.156283 
L 66.495617 104.156283 
L 68.073111 102.159759 
L 69.650606 104.156283 
L 71.2281 100.163235 
L 74.383089 100.163235 
L 75.960584 98.166712 
L 77.538078 104.156283 
L 79.115573 96.170187 
L 80.693067 98.166712 
L 82.270561 96.170187 
L 83.848056 90.180616 
L 85.42555 98.166712 
L 87.003045 94.173664 
L 88.580539 100.163235 
L 90.158034 98.166712 
L 91.735528 90.180616 
L 93.313023 96.170187 
L 94.890517 90.180616 
L 96.468012 88.184093 
L 98.045506 80.197998 
L 99.623 92.17714 
L 101.200495 84.191045 
L 102.777989 96.170187 
L 104.355484 86.187569 
L 105.932978 78.20147 
L 107.510473 66.222327 
L 109.087967 52.246661 
L 112.242956 20.302277 
L 113.820451 24.295332 
L 115.397945 32.281419 
L 116.975439 32.281419 
L 118.552934 52.246661 
L 120.130428 48.253613 
L 121.707923 48.253613 
L 123.285417 56.239708 
L 124.862912 60.232756 
L 126.440406 68.218851 
L 128.017901 74.208422 
L 129.595395 86.187569 
L 131.17289 84.191045 
L 132.750384 84.191045 
L 134.327878 92.17714 
L 137.482867 96.170187 
L 140.637856 96.170187 
L 143.792845 100.163235 
L 145.37034 92.17714 
L 146.947834 90.180616 
L 148.525329 94.173664 
L 150.102823 92.17714 
L 151.680318 94.173664 
L 153.257812 98.166712 
L 154.835306 100.163235 
L 156.412801 96.170187 
L 157.990295 96.170187 
L 159.56779 102.159759 
L 161.145284 98.166712 
L 162.722779 102.159759 
L 164.300273 98.166712 
L 167.455262 106.152807 
L 169.032757 108.149331 
L 170.610251 106.152807 
L 172.187745 112.142378 
L 173.76524 108.149331 
L 178.497723 114.138902 
L 180.075218 114.138902 
L 181.652712 116.135426 
L 183.230207 120.128474 
L 184.807701 130.111092 
L 187.96269 134.104143 
L 194.272668 134.104143 
L 197.427657 138.097187 
L 203.737635 138.097187 
L 205.315129 140.093711 
L 208.470118 140.093711 
L 211.625107 144.086758 
L 213.202601 144.086758 
L 214.780096 146.083282 
L 217.935085 146.083282 
L 219.512579 148.07981 
L 221.090074 148.07981 
L 222.667568 150.07633 
L 224.245063 150.07633 
L 225.822557 164.052 
L 227.400051 154.069381 
L 230.55504 154.069381 
L 232.132535 148.07981 
L 235.287524 148.07981 
L 236.865018 156.065901 
L 238.442513 142.090235 
L 240.020007 144.086758 
L 241.597502 144.086758 
L 243.174996 140.093711 
L 244.75249 144.086758 
L 246.329985 142.090235 
L 247.907479 136.100663 
L 249.484974 136.100663 
L 251.062468 142.090235 
L 254.217457 138.097187 
L 255.794952 138.097187 
L 257.372446 132.107616 
L 258.949941 124.121522 
L 260.527435 112.142378 
L 262.104929 110.145854 
L 263.682424 116.135426 
L 266.837413 108.149331 
L 268.414907 108.149331 
L 269.992402 106.152807 
L 271.569896 112.142378 
L 273.147391 110.145854 
L 274.724885 104.156283 
L 276.30238 102.159759 
L 277.879874 104.156283 
L 279.457369 110.145854 
L 281.034863 104.156283 
L 282.612357 104.156283 
L 284.189852 98.166712 
L 285.767346 100.163235 
L 287.344841 100.163235 
L 288.922335 98.166712 
L 292.077324 98.166712 
L 293.654819 100.163235 
L 295.232313 94.173664 
L 296.809808 82.194521 
L 298.387302 90.180616 
L 299.964796 82.194521 
L 301.542291 84.191045 
L 303.119785 74.208422 
L 304.69728 74.208422 
L 304.69728 74.208422 
" style="fill:none;stroke:#0000ff;stroke-linecap:square;stroke-width:0.8;"/>
   </g>
   <g id="line2d_18">
    <path clip-path="url(#p4efd3712de)" d="M 45.988189 128.724632 
L 47.565683 121.213071 
L 49.143178 117.176759 
L 50.720672 108.558696 
L 52.298167 104.38688 
L 53.875661 101.944148 
L 55.453156 101.127859 
L 57.03065 104.628239 
L 58.608145 107.68289 
L 60.185639 108.935607 
L 63.340628 107.940366 
L 64.918122 106.941664 
L 66.495617 104.14889 
L 68.073111 103.035304 
L 69.650606 101.075513 
L 71.2281 101.722819 
L 72.805595 101.002729 
L 74.383089 100.908695 
L 75.960584 100.022305 
L 77.538078 98.913733 
L 79.115573 102.546932 
L 80.693067 99.776167 
L 82.270561 99.36375 
L 83.848056 98.288852 
L 85.42555 93.17758 
L 87.003045 95.982275 
L 88.580539 94.604665 
L 90.158034 97.349142 
L 91.735528 98.478018 
L 93.313023 94.783525 
L 94.890517 96.860751 
L 98.045506 91.148654 
L 99.623 83.80707 
L 101.200495 84.492796 
L 102.777989 82.139792 
L 104.355484 87.168813 
L 105.932978 86.838249 
L 107.510473 82.282945 
L 109.087967 70.579045 
L 110.665462 52.845487 
L 112.242956 31.970186 
L 113.820451 14.809597 
L 115.397945 7.812 
L 116.975439 9.169873 
L 118.552934 13.275974 
L 120.130428 31.474315 
L 123.285417 44.756098 
L 124.862912 54.196833 
L 128.017901 70.225188 
L 129.595395 75.228904 
L 131.17289 82.799996 
L 132.750384 87.21909 
L 134.327878 88.912561 
L 135.905373 94.126749 
L 137.482867 97.138533 
L 139.060362 99.184023 
L 140.637856 100.342273 
L 142.215351 100.629564 
L 143.792845 101.225263 
L 145.37034 101.962352 
L 146.947834 100.162556 
L 148.525329 96.969233 
L 150.102823 95.494144 
L 151.680318 93.511694 
L 153.257812 93.382622 
L 154.835306 95.638793 
L 156.412801 98.135133 
L 157.990295 98.279869 
L 159.56779 98.760329 
L 161.145284 102.09862 
L 162.722779 102.004009 
L 164.300273 103.110665 
L 165.877768 102.656711 
L 167.455262 103.357492 
L 170.610251 107.1036 
L 172.187745 108.301272 
L 173.76524 110.541986 
L 175.342734 111.140771 
L 178.497723 113.385102 
L 180.075218 115.130113 
L 181.652712 115.806813 
L 183.230207 117.064357 
L 184.807701 119.37427 
L 186.385196 124.545695 
L 189.540184 133.672141 
L 191.117679 136.685883 
L 192.695173 138.791851 
L 194.272668 140.05745 
L 195.850162 140.783306 
L 197.427657 140.705568 
L 199.005151 140.388882 
L 200.582646 139.813776 
L 205.315129 140.648878 
L 206.892624 141.369764 
L 208.470118 141.815262 
L 210.047612 141.972006 
L 211.625107 142.501597 
L 213.202601 143.623911 
L 214.780096 144.601742 
L 216.35759 145.835259 
L 217.935085 146.657044 
L 219.512579 147.101281 
L 224.245063 148.974801 
L 225.822557 149.319019 
L 227.400051 152.836535 
L 228.977546 153.34388 
L 230.55504 153.477855 
L 232.132535 153.386797 
L 233.710029 151.93274 
L 235.287524 150.180359 
L 236.865018 148.837866 
L 238.442513 149.490055 
L 240.020007 146.674686 
L 241.597502 144.521263 
L 243.174996 144.301263 
L 244.75249 142.56274 
L 246.329985 142.336544 
L 247.907479 142.288083 
L 249.484974 139.781114 
L 251.062468 137.749728 
L 252.639963 138.478824 
L 254.217457 140.041571 
L 255.794952 139.37241 
L 257.372446 139.19853 
L 258.949941 137.222086 
L 260.527435 131.932239 
L 263.682424 114.207466 
L 265.259918 108.870304 
L 266.837413 103.101926 
L 268.414907 98.748634 
L 269.992402 97.485393 
L 271.569896 96.893174 
L 273.147391 102.821007 
L 274.724885 107.318051 
L 276.30238 106.966613 
L 277.879874 103.768692 
L 279.457369 102.645636 
L 281.034863 106.422749 
L 282.612357 106.153589 
L 284.189852 105.616695 
L 285.767346 101.939242 
L 287.344841 99.669154 
L 288.922335 100.163462 
L 290.49983 99.365574 
L 292.077324 98.186368 
L 293.654819 96.778437 
L 295.232313 97.959207 
L 296.809808 97.059993 
L 298.387302 87.632201 
L 299.964796 87.050001 
L 301.542291 79.594034 
L 303.119785 76.869507 
L 304.69728 68.968043 
L 304.69728 68.968043 
" style="fill:none;stroke:#008000;stroke-dasharray:2.96,1.28;stroke-dashoffset:0;stroke-width:0.8;"/>
   </g>
   <g id="line2d_19">
    <path clip-path="url(#p4efd3712de)" d="M 45.988189 114.466231 
L 47.565683 115.005889 
L 49.143178 109.711418 
L 50.720672 105.342969 
L 52.298167 106.122346 
L 53.875661 107.556388 
L 55.453156 109.672917 
L 57.03065 108.983974 
L 58.608145 104.91805 
L 60.185639 104.053021 
L 61.763133 104.985551 
L 63.340628 103.272035 
L 64.918122 102.044792 
L 66.495617 101.936852 
L 68.073111 101.293906 
L 69.650606 101.5636 
L 71.2281 100.708936 
L 72.805595 99.572371 
L 74.383089 99.27838 
L 75.960584 98.280453 
L 77.538078 99.956844 
L 79.115573 98.773572 
L 80.693067 97.398392 
L 82.270561 97.116989 
L 83.848056 93.896926 
L 85.42555 95.11004 
L 87.003045 95.426883 
L 88.580539 96.822748 
L 90.158034 97.615163 
L 91.735528 93.261457 
L 93.313023 92.672031 
L 94.890517 91.71791 
L 96.468012 88.847863 
L 98.045506 82.010424 
L 99.623 84.905094 
L 101.200495 83.716111 
L 102.777989 86.206813 
L 104.355484 83.955646 
L 107.510473 61.891386 
L 110.665462 32.960489 
L 112.242956 21.767217 
L 113.820451 23.376879 
L 115.397945 31.572068 
L 116.975439 36.114711 
L 118.552934 46.788399 
L 120.130428 51.123365 
L 121.707923 49.46673 
L 123.285417 54.637114 
L 126.440406 68.390774 
L 128.017901 75.291996 
L 129.595395 85.183523 
L 131.17289 89.320288 
L 132.750384 88.933933 
L 134.327878 92.278838 
L 135.905373 95.040367 
L 137.482867 96.256535 
L 139.060362 96.860051 
L 140.637856 96.997034 
L 142.215351 97.916432 
L 143.792845 99.164968 
L 145.37034 96.86511 
L 146.947834 93.636944 
L 148.525329 94.472938 
L 150.102823 95.0944 
L 151.680318 95.294544 
L 153.257812 97.307967 
L 154.835306 99.105763 
L 156.412801 98.375882 
L 157.990295 97.41692 
L 159.56779 99.607088 
L 162.722779 100.072079 
L 164.300273 99.796977 
L 165.877768 100.299497 
L 167.455262 103.226097 
L 169.032757 105.390774 
L 170.610251 105.447989 
L 172.187745 107.472138 
L 173.76524 108.195793 
L 175.342734 107.95549 
L 176.920229 110.472474 
L 178.497723 113.310631 
L 180.075218 114.756055 
L 181.652712 117.261368 
L 183.230207 122.111366 
L 184.807701 129.900243 
L 186.385196 134.891916 
L 187.96269 136.487163 
L 189.540184 137.225029 
L 192.695173 137.403557 
L 194.272668 137.604122 
L 195.850162 138.4164 
L 197.427657 139.688645 
L 199.005151 140.409285 
L 202.16014 140.872363 
L 203.737635 141.171 
L 205.315129 141.955014 
L 206.892624 142.599289 
L 208.470118 142.777035 
L 210.047612 143.515739 
L 211.625107 144.755889 
L 216.35759 146.833494 
L 217.935085 147.04175 
L 222.667568 149.134145 
L 224.245063 149.683276 
L 225.822557 152.58406 
L 227.400051 153.96667 
L 228.977546 152.628283 
L 230.55504 152.555065 
L 233.710029 149.626209 
L 235.287524 149.124515 
L 236.865018 150.10438 
L 238.442513 148.651709 
L 240.020007 145.681504 
L 241.597502 145.743915 
L 243.174996 144.471727 
L 244.75249 144.237131 
L 246.329985 144.321556 
L 247.907479 141.877286 
L 249.484974 139.857068 
L 251.062468 140.987691 
L 252.639963 141.440232 
L 254.217457 139.804336 
L 255.794952 138.710591 
L 257.372446 135.672816 
L 258.949941 128.793863 
L 260.527435 115.111396 
L 262.104929 106.507665 
L 263.682424 108.632835 
L 265.259918 109.546453 
L 266.837413 105.492529 
L 268.414907 104.321085 
L 269.992402 103.837104 
L 271.569896 105.513135 
L 273.147391 106.763274 
L 274.724885 103.403069 
L 276.30238 101.111944 
L 277.879874 101.159258 
L 279.457369 104.129403 
L 281.034863 103.576072 
L 282.612357 101.717348 
L 284.189852 99.255073 
L 285.767346 98.265802 
L 287.344841 98.818974 
L 288.922335 98.186657 
L 290.49983 97.384422 
L 292.077324 96.883759 
L 293.654819 97.661453 
L 295.232313 95.675401 
L 296.809808 87.765596 
L 298.387302 86.582271 
L 299.964796 84.824441 
L 301.542291 80.442645 
L 303.119785 72.631224 
L 304.69728 66.824699 
L 304.69728 66.824699 
" style="fill:none;stroke:#ff0000;stroke-linecap:square;stroke-width:0.8;"/>
   </g>
   <g id="patch_3">
    <path d="M 33.052734 171.864 
L 33.052734 0 
" style="fill:none;stroke:#000000;stroke-linecap:square;stroke-linejoin:miter;stroke-width:0.8;"/>
   </g>
   <g id="patch_4">
    <path d="M 317.632734 171.864 
L 317.632734 0 
" style="fill:none;stroke:#000000;stroke-linecap:square;stroke-linejoin:miter;stroke-width:0.8;"/>
   </g>
   <g id="patch_5">
    <path d="M 33.052734 171.864 
L 317.632734 171.864 
" style="fill:none;stroke:#000000;stroke-linecap:square;stroke-linejoin:miter;stroke-width:0.8;"/>
   </g>
   <g id="patch_6">
    <path d="M 33.052734 0 
L 317.632734 0 
" style="fill:none;stroke:#000000;stroke-linecap:square;stroke-linejoin:miter;stroke-width:0.8;"/>
   </g>
   <g id="legend_1">
    <g id="patch_7">
     <path d="M 171.682734 53.476172 
L 310.282734 53.476172 
Q 312.382734 53.476172 312.382734 51.376172 
L 312.382734 7.35 
Q 312.382734 5.25 310.282734 5.25 
L 171.682734 5.25 
Q 169.582734 5.25 169.582734 7.35 
L 169.582734 51.376172 
Q 169.582734 53.476172 171.682734 53.476172 
z
" style="fill:#ffffff;opacity:0.8;stroke:#cccccc;stroke-linejoin:miter;"/>
    </g>
    <g id="line2d_20">
     <path d="M 173.782734 14.183203 
L 194.782734 14.183203 
" style="fill:none;stroke:#0000ff;stroke-linecap:square;stroke-width:0.8;"/>
    </g>
    <g id="line2d_21"/>
    <g id="text_19">
     <!-- 真实值 -->
     <g transform="translate(203.182734 17.858203)scale(0.105 -0.105)">
      <defs>
       <path d="M 3550 5100 
Q 3450 4925 3400 4625 
L 4850 4625 
Q 5175 4625 5725 4650 
L 5725 4250 
Q 5200 4275 4850 4275 
L 3350 4275 
L 3300 3850 
L 5050 3850 
Q 5025 3550 5025 3150 
L 5025 1075 
L 5400 1075 
Q 5800 1075 6075 1100 
L 6075 625 
Q 5575 650 4900 650 
L 1450 650 
Q 775 650 350 625 
L 350 1100 
Q 725 1075 1100 1075 
L 1425 1075 
L 1425 3075 
Q 1425 3450 1400 3850 
L 2825 3850 
L 2850 4275 
L 1400 4275 
Q 1050 4275 625 4250 
L 625 4650 
Q 1175 4625 1375 4625 
L 2925 4625 
Q 2950 4875 2950 5125 
Q 3300 5100 3550 5100 
z
M 4075 525 
Q 4500 425 4925 250 
Q 5350 75 5825 -150 
Q 5550 -425 5450 -575 
Q 5025 -300 4550 -100 
Q 4075 100 3800 175 
Q 3925 350 4075 525 
z
M 4525 3150 
L 4525 3475 
L 1925 3475 
L 1925 3150 
L 4525 3150 
z
M 4525 1075 
L 4525 1400 
L 1925 1400 
L 1925 1075 
L 4525 1075 
z
M 2775 200 
Q 2375 -25 1875 -225 
Q 1375 -425 950 -575 
Q 775 -400 600 -250 
Q 1225 -50 1625 137 
Q 2025 325 2350 525 
Q 2550 350 2775 200 
z
M 4525 1775 
L 4525 2075 
L 1925 2075 
L 1925 1775 
L 4525 1775 
z
M 4525 2475 
L 4525 2775 
L 1925 2775 
L 1925 2475 
L 4525 2475 
z
" id="SimHei-771f" transform="scale(0.015625)"/>
       <path d="M 4125 3500 
Q 4050 3200 4000 2675 
Q 3950 2150 3850 1550 
L 5025 1550 
Q 5475 1550 5975 1575 
L 5975 1100 
Q 5450 1125 5000 1125 
L 3725 1125 
Q 3500 625 3050 250 
Q 2600 -125 2000 -337 
Q 1400 -550 925 -675 
Q 825 -375 500 -200 
Q 1225 -125 2050 212 
Q 2875 550 3200 1125 
L 1425 1125 
Q 975 1125 425 1100 
L 425 1575 
Q 1000 1550 1425 1550 
L 3375 1550 
Q 3450 1975 3487 2462 
Q 3525 2950 3500 3650 
Q 3800 3550 4125 3500 
z
M 3250 5250 
Q 3450 4850 3600 4375 
L 5775 4375 
Q 5750 4100 5750 3825 
Q 5750 3575 5775 3275 
L 5200 3275 
L 5200 3975 
L 1225 3975 
L 1225 3225 
L 675 3225 
Q 700 3525 700 3800 
Q 700 4100 675 4375 
L 2975 4375 
Q 2900 4675 2700 5075 
Q 2900 5150 3250 5250 
z
M 4000 825 
Q 4550 525 5050 262 
Q 5550 0 5925 -225 
Q 5750 -425 5550 -650 
Q 5100 -325 4575 -37 
Q 4050 250 3675 400 
Q 3875 650 4000 825 
z
M 1175 2750 
Q 1600 2550 2350 2050 
Q 2250 1900 2050 1650 
Q 1350 2175 925 2350 
Q 1075 2500 1175 2750 
z
M 3150 2825 
Q 2975 2625 2850 2425 
Q 2050 3000 1675 3125 
Q 1800 3300 1950 3525 
L 3150 2825 
z
" id="SimHei-5b9e" transform="scale(0.015625)"/>
       <path d="M 3675 4450 
L 3675 5100 
Q 3975 5075 4350 5050 
Q 4225 4875 4200 4450 
L 5125 4450 
Q 5550 4450 5875 4475 
L 5875 4025 
Q 5525 4050 5125 4050 
L 4175 4050 
L 4125 3500 
L 5400 3500 
Q 5375 3200 5375 2700 
L 5375 150 
Q 5875 150 6100 175 
L 6100 -275 
Q 5775 -250 5200 -250 
L 2850 -250 
Q 2275 -250 1900 -275 
L 1900 175 
Q 2125 150 2600 150 
L 2600 2700 
Q 2600 3175 2575 3500 
L 3600 3500 
L 3650 4050 
L 3200 4050 
Q 2575 4050 2225 4025 
L 2225 4475 
Q 2550 4450 3200 4450 
L 3675 4450 
z
M 2225 4900 
Q 2025 4675 1650 3750 
L 1650 450 
Q 1650 -75 1675 -550 
L 1150 -550 
Q 1175 -125 1175 375 
L 1175 2950 
Q 875 2450 625 2150 
Q 425 2425 250 2575 
Q 500 2825 937 3537 
Q 1375 4250 1625 5150 
Q 1975 4975 2225 4900 
z
M 4925 2650 
L 4925 3150 
L 3075 3150 
L 3075 2650 
L 4925 2650 
z
M 4925 150 
L 4925 625 
L 3075 625 
L 3075 150 
L 4925 150 
z
M 4925 1000 
L 4925 1450 
L 3075 1450 
L 3075 1000 
L 4925 1000 
z
M 4925 1825 
L 4925 2275 
L 3075 2275 
L 3075 1825 
L 4925 1825 
z
" id="SimHei-503c" transform="scale(0.015625)"/>
      </defs>
      <use xlink:href="#SimHei-771f"/>
      <use x="100" xlink:href="#SimHei-5b9e"/>
      <use x="200" xlink:href="#SimHei-503c"/>
     </g>
    </g>
    <g id="line2d_22">
     <path d="M 173.782734 29.235937 
L 194.782734 29.235937 
" style="fill:none;stroke:#008000;stroke-dasharray:2.96,1.28;stroke-dashoffset:0;stroke-width:0.8;"/>
    </g>
    <g id="line2d_23"/>
    <g id="text_20">
     <!-- 单特征情况下的预测值 -->
     <g transform="translate(203.182734 32.910937)scale(0.105 -0.105)">
      <defs>
       <path d="M 5275 4075 
L 5275 1525 
L 3400 1525 
L 3400 925 
L 5050 925 
Q 5600 925 6000 950 
L 6000 450 
Q 5575 475 5050 475 
L 3400 475 
Q 3400 -300 3425 -625 
L 2875 -625 
Q 2925 -300 2925 475 
L 1300 475 
Q 700 475 425 450 
L 425 950 
Q 675 925 1250 925 
L 2925 925 
L 2925 1525 
L 1125 1525 
Q 1150 1950 1150 2750 
Q 1150 3550 1125 4075 
L 3600 4075 
Q 3875 4650 4075 5250 
Q 4325 5125 4650 4975 
Q 4550 4850 4400 4587 
Q 4250 4325 4100 4075 
L 5275 4075 
z
M 4775 1925 
L 4775 2600 
L 3400 2600 
L 3400 1925 
L 4775 1925 
z
M 4775 3000 
L 4775 3650 
L 3400 3650 
L 3400 3000 
L 4775 3000 
z
M 2925 1925 
L 2925 2600 
L 1625 2600 
L 1625 1925 
L 2925 1925 
z
M 2925 3000 
L 2925 3650 
L 1625 3650 
L 1625 3000 
L 2925 3000 
z
M 2100 5225 
Q 2350 4950 2675 4350 
Q 2400 4225 2225 4125 
Q 1975 4675 1725 4975 
Q 1900 5075 2100 5225 
z
" id="SimHei-5355" transform="scale(0.015625)"/>
       <path d="M 4050 3150 
L 4050 4050 
L 3675 4050 
Q 3275 4050 2975 4025 
L 2975 4475 
Q 3250 4450 3675 4450 
L 4050 4450 
Q 4050 4950 4000 5200 
L 4525 5200 
Q 4500 4950 4500 4450 
L 5075 4450 
Q 5450 4450 5800 4475 
L 5800 4025 
Q 5550 4050 5075 4050 
L 4500 4050 
L 4500 3150 
L 5450 3150 
Q 5825 3150 6150 3175 
L 6150 2725 
Q 5850 2750 5500 2750 
L 5275 2750 
L 5275 2000 
Q 5825 2000 6100 2025 
L 6100 1550 
Q 5800 1575 5275 1575 
L 5275 -75 
Q 5250 -375 5050 -487 
Q 4850 -600 4275 -675 
Q 4225 -375 4075 -100 
Q 4525 -125 4675 -100 
Q 4825 -75 4825 150 
L 4825 1575 
L 3600 1575 
Q 3175 1575 2850 1550 
L 2850 2025 
Q 3125 2000 3600 2000 
L 4825 2000 
L 4825 2750 
L 3575 2750 
Q 3125 2750 2775 2725 
L 2775 3175 
Q 3125 3150 3550 3150 
L 4050 3150 
z
M 1150 4275 
Q 1050 4125 950 3600 
L 1500 3600 
L 1500 4425 
Q 1500 4800 1475 5200 
L 2000 5200 
Q 1950 4825 1950 4425 
L 1950 3600 
Q 2300 3600 2600 3625 
L 2600 3175 
Q 2325 3200 1950 3200 
L 1950 2075 
Q 2275 2200 2575 2325 
Q 2600 2125 2650 1900 
Q 2375 1800 1950 1625 
L 1950 225 
Q 1950 -175 1975 -650 
L 1475 -650 
Q 1500 -200 1500 225 
L 1500 1450 
Q 850 1200 550 1025 
Q 450 1275 275 1550 
Q 600 1575 1500 1925 
L 1500 3200 
L 850 3200 
Q 750 2775 675 2450 
Q 425 2550 225 2600 
Q 350 2950 462 3487 
Q 575 4025 600 4400 
Q 900 4325 1150 4275 
z
M 3600 1200 
Q 3800 750 3975 325 
Q 3750 275 3500 150 
Q 3325 675 3125 1025 
Q 3375 1100 3600 1200 
z
" id="SimHei-7279" transform="scale(0.015625)"/>
       <path d="M 5050 4650 
Q 5575 4650 5975 4675 
L 5975 4175 
Q 5575 4200 5050 4200 
L 4450 4200 
L 4450 2625 
L 5000 2625 
Q 5475 2625 5875 2650 
L 5875 2175 
Q 5475 2200 5000 2200 
L 4450 2200 
L 4450 200 
L 5100 200 
Q 5575 200 6125 225 
L 6125 -250 
Q 5575 -225 5100 -225 
L 2875 -225 
Q 2275 -225 1875 -250 
L 1875 225 
Q 2225 200 2650 200 
L 2650 2100 
Q 2650 2475 2625 2925 
L 3175 2925 
Q 3150 2500 3150 2100 
L 3150 200 
L 3925 200 
L 3925 4200 
L 3425 4200 
Q 2850 4200 2425 4175 
L 2425 4675 
Q 2850 4650 3425 4650 
L 5050 4650 
z
M 2250 3450 
Q 2100 3225 1625 2575 
L 1625 450 
Q 1625 -100 1650 -700 
L 1100 -700 
Q 1125 -100 1125 450 
L 1125 2000 
Q 825 1600 550 1300 
Q 425 1550 225 1725 
Q 675 2150 1062 2650 
Q 1450 3150 1725 3775 
Q 1950 3625 2250 3450 
z
M 250 3675 
Q 675 3975 1025 4412 
Q 1375 4850 1550 5275 
Q 1825 5125 2125 4975 
Q 1900 4725 1487 4212 
Q 1075 3700 675 3275 
Q 475 3475 250 3675 
z
" id="SimHei-5f81" transform="scale(0.015625)"/>
       <path d="M 2775 1475 
Q 2775 2050 2750 2525 
L 5600 2525 
Q 5575 2100 5575 1725 
L 5575 -150 
Q 5575 -425 5375 -500 
Q 5175 -575 4875 -625 
Q 4850 -400 4700 -150 
Q 5050 -150 5100 -75 
Q 5150 0 5150 475 
L 3225 475 
L 3225 -625 
L 2750 -625 
Q 2775 -50 2775 375 
L 2775 1475 
z
M 2375 3250 
Q 2975 3225 3475 3225 
L 3975 3225 
L 3975 3625 
L 3500 3625 
Q 3075 3625 2625 3600 
L 2625 4025 
Q 3075 4000 3500 4000 
L 3975 4000 
L 3975 4350 
L 3450 4350 
Q 3050 4350 2475 4325 
L 2475 4750 
Q 3075 4725 3450 4725 
L 3975 4725 
Q 3975 4975 3950 5225 
L 4475 5225 
Q 4450 4975 4450 4725 
L 5125 4725 
Q 5550 4725 5925 4750 
L 5925 4325 
Q 5550 4350 5125 4350 
L 4450 4350 
L 4450 4000 
L 4925 4000 
Q 5325 4000 5750 4025 
L 5750 3600 
Q 5300 3625 4925 3625 
L 4450 3625 
L 4450 3225 
L 5175 3225 
Q 5775 3225 6150 3250 
L 6150 2825 
Q 5775 2850 5150 2850 
L 3500 2850 
Q 2850 2850 2375 2825 
L 2375 3250 
z
M 1675 5225 
Q 1650 4800 1650 4400 
L 1650 425 
Q 1650 -100 1675 -600 
L 1150 -600 
Q 1200 -100 1200 425 
L 1200 4325 
Q 1200 4825 1150 5225 
L 1675 5225 
z
M 5125 850 
L 5125 1325 
L 3225 1325 
L 3225 850 
L 5125 850 
z
M 5125 1700 
L 5125 2150 
L 3225 2150 
L 3225 1700 
L 5125 1700 
z
M 1050 3900 
Q 1000 3675 725 2275 
Q 500 2350 250 2375 
Q 425 2750 575 3975 
Q 800 3925 1050 3900 
z
M 1975 3125 
Q 1925 3425 1775 3975 
Q 1950 4000 2200 4075 
Q 2350 3550 2450 3275 
Q 2175 3200 1975 3125 
z
" id="SimHei-60c5" transform="scale(0.015625)"/>
       <path d="M 5450 4875 
Q 5425 4500 5425 3675 
Q 5425 2850 5450 2375 
L 4575 2375 
L 4575 400 
Q 4575 50 4762 25 
Q 4950 0 5200 12 
Q 5450 25 5500 187 
Q 5550 350 5575 825 
Q 5850 675 6150 600 
Q 5975 -175 5775 -287 
Q 5575 -400 5175 -412 
Q 4775 -425 4437 -362 
Q 4100 -300 4100 200 
L 4100 2375 
L 3475 2375 
Q 3500 150 1600 -625 
Q 1525 -375 1275 -150 
Q 3000 375 3000 2375 
L 2325 2375 
Q 2350 2850 2350 3675 
Q 2350 4525 2325 4875 
L 5450 4875 
z
M 4900 2775 
L 4900 4475 
L 2850 4475 
L 2850 2775 
L 4900 2775 
z
M 2025 2200 
Q 1750 1725 1350 1000 
Q 950 275 775 0 
Q 525 175 300 300 
Q 800 975 1600 2500 
Q 1850 2300 2025 2200 
z
M 950 4950 
Q 1100 4775 1350 4462 
Q 1600 4150 1850 3800 
Q 1575 3625 1375 3450 
Q 1075 4025 525 4600 
Q 775 4825 950 4950 
z
" id="SimHei-51b5" transform="scale(0.015625)"/>
       <path d="M 5000 4700 
Q 5475 4700 5975 4725 
L 5975 4200 
Q 5425 4225 5000 4225 
L 3275 4225 
L 3275 375 
Q 3275 50 3300 -450 
L 2725 -450 
Q 2750 0 2750 375 
L 2750 4225 
L 1375 4225 
Q 875 4225 400 4200 
L 400 4725 
Q 875 4700 1375 4700 
L 5000 4700 
z
M 5650 1400 
Q 5400 1225 5200 1000 
Q 4800 1525 3650 2575 
L 4025 2950 
Q 4700 2400 5650 1400 
z
" id="SimHei-4e0b" transform="scale(0.015625)"/>
       <path d="M 2100 4975 
Q 1975 4750 1750 3950 
L 2875 3950 
Q 2850 3525 2850 2875 
L 2850 675 
Q 2850 300 2875 -400 
L 2375 -400 
L 2375 100 
L 1100 100 
L 1100 -450 
L 600 -450 
Q 625 350 625 550 
L 625 2850 
Q 625 3525 600 3950 
L 1325 3950 
Q 1450 4525 1525 5150 
Q 1875 5025 2100 4975 
z
M 5825 3075 
Q 5800 1550 5700 175 
Q 5650 -275 5225 -425 
Q 4800 -575 4275 -625 
Q 4250 -350 4050 -50 
Q 4550 -75 4837 -25 
Q 5125 25 5200 200 
Q 5275 375 5312 1225 
Q 5350 2075 5375 3600 
L 3925 3600 
Q 3725 3125 3350 2475 
Q 3175 2650 2925 2750 
Q 3150 3050 3350 3475 
Q 3550 3900 3700 4400 
Q 3850 4900 3875 5175 
Q 4225 5025 4475 4950 
Q 4350 4750 4262 4512 
Q 4175 4275 4075 4050 
L 5850 4050 
Q 5825 3525 5825 3075 
z
M 2375 525 
L 2375 1850 
L 1100 1850 
L 1100 525 
L 2375 525 
z
M 2375 2275 
L 2375 3525 
L 1100 3525 
L 1100 2275 
L 2375 2275 
z
M 4350 2050 
Q 4500 1750 4700 1275 
Q 4525 1200 4225 1025 
Q 4050 1500 3900 1837 
Q 3750 2175 3600 2400 
Q 3775 2500 4050 2650 
L 4350 2050 
z
" id="SimHei-7684" transform="scale(0.015625)"/>
       <path d="M 5200 4800 
Q 5575 4800 5950 4825 
L 5950 4400 
Q 5575 4425 5200 4425 
L 4500 4425 
Q 4425 4050 4350 3600 
L 5725 3600 
Q 5700 3225 5700 2800 
L 5700 1725 
Q 5700 1300 5725 850 
L 5250 850 
L 5250 3225 
L 3550 3225 
L 3550 800 
L 3075 800 
Q 3100 1375 3100 1725 
L 3100 2775 
Q 3100 3175 3075 3600 
L 3900 3600 
Q 4000 4150 4000 4425 
L 3725 4425 
Q 3300 4425 2850 4400 
L 2850 4825 
Q 3325 4800 3725 4800 
L 5200 4800 
z
M 2600 1775 
Q 2350 1825 2150 1825 
Q 2250 2250 2300 2450 
L 1750 2450 
L 1750 125 
Q 1725 -300 1425 -400 
Q 1125 -500 750 -500 
Q 700 -225 575 25 
Q 1125 -25 1212 37 
Q 1300 100 1300 350 
L 1300 2450 
L 1025 2450 
Q 700 2450 350 2425 
L 350 2850 
Q 700 2825 1000 2825 
L 2850 2825 
Q 2725 2325 2600 1775 
z
M 4725 2875 
Q 4625 2575 4600 2100 
Q 4575 1625 4462 1037 
Q 4350 450 3962 62 
Q 3575 -325 2925 -675 
Q 2700 -500 2475 -350 
Q 3075 -125 3437 200 
Q 3800 525 3950 937 
Q 4100 1350 4137 1850 
Q 4175 2350 4175 2925 
L 4725 2875 
z
M 1625 2900 
Q 1275 3275 800 3650 
Q 925 3775 1075 3950 
Q 1250 3825 1425 3675 
Q 1750 4150 1950 4375 
L 1400 4375 
Q 900 4375 450 4350 
L 450 4775 
Q 900 4750 1375 4750 
L 2575 4750 
L 2575 4375 
Q 2200 4100 1725 3400 
L 1950 3200 
Q 1750 3025 1625 2900 
z
M 4775 725 
Q 5725 0 6075 -325 
Q 5850 -500 5725 -650 
Q 5400 -325 5137 -87 
Q 4875 150 4525 350 
Q 4650 525 4775 725 
z
" id="SimHei-9884" transform="scale(0.015625)"/>
       <path d="M 4025 4725 
Q 4000 4475 4000 4000 
L 4000 2225 
Q 4000 1775 4025 1350 
L 3550 1350 
L 3550 4325 
L 2350 4325 
L 2350 1325 
L 1900 1325 
Q 1925 1775 1925 2225 
L 1925 4000 
Q 1925 4200 1900 4725 
L 4025 4725 
z
M 5900 5075 
Q 5875 4800 5875 4375 
L 5875 0 
Q 5875 -325 5650 -425 
Q 5425 -525 4975 -600 
Q 4925 -325 4775 -50 
Q 5125 -50 5262 -25 
Q 5400 0 5400 250 
L 5400 4375 
Q 5400 4775 5375 5075 
L 5900 5075 
z
M 3275 3725 
Q 3225 3400 3200 2325 
Q 3175 1250 2837 550 
Q 2500 -150 2075 -600 
Q 1850 -400 1600 -325 
Q 2200 250 2475 962 
Q 2750 1675 2762 2475 
Q 2775 3275 2725 3800 
Q 3000 3750 3275 3725 
z
M 4950 4275 
Q 4925 4000 4925 3575 
L 4925 1825 
Q 4925 1300 4950 850 
L 4450 850 
Q 4475 1150 4475 1825 
L 4475 3575 
Q 4475 4000 4450 4275 
L 4950 4275 
z
M 1700 1675 
Q 1375 1075 1112 487 
Q 850 -100 725 -400 
Q 500 -200 200 -25 
Q 475 300 762 850 
Q 1050 1400 1250 2000 
Q 1475 1825 1700 1675 
z
M 3400 1050 
Q 3800 650 4300 -125 
Q 4100 -225 3875 -450 
Q 3475 275 3025 750 
Q 3225 875 3400 1050 
z
M 600 3525 
Q 1125 3125 1500 2775 
Q 1300 2575 1150 2375 
Q 825 2775 300 3150 
Q 450 3300 600 3525 
z
M 1350 4000 
Q 950 4375 475 4675 
Q 625 4850 775 5050 
Q 1300 4700 1675 4375 
Q 1500 4250 1350 4000 
z
" id="SimHei-6d4b" transform="scale(0.015625)"/>
      </defs>
      <use xlink:href="#SimHei-5355"/>
      <use x="100" xlink:href="#SimHei-7279"/>
      <use x="200" xlink:href="#SimHei-5f81"/>
      <use x="300" xlink:href="#SimHei-60c5"/>
      <use x="400" xlink:href="#SimHei-51b5"/>
      <use x="500" xlink:href="#SimHei-4e0b"/>
      <use x="600" xlink:href="#SimHei-7684"/>
      <use x="700" xlink:href="#SimHei-9884"/>
      <use x="800" xlink:href="#SimHei-6d4b"/>
      <use x="900" xlink:href="#SimHei-503c"/>
     </g>
    </g>
    <g id="line2d_24">
     <path d="M 173.782734 44.288672 
L 194.782734 44.288672 
" style="fill:none;stroke:#ff0000;stroke-linecap:square;stroke-width:0.8;"/>
    </g>
    <g id="line2d_25"/>
    <g id="text_21">
     <!-- 多特征情况下的预测值 -->
     <g transform="translate(203.182734 47.963672)scale(0.105 -0.105)">
      <defs>
       <path d="M 3800 2950 
Q 4000 2750 4275 2650 
Q 4050 2450 3850 2275 
L 5925 2275 
Q 5625 1525 5137 975 
Q 4650 425 4050 125 
Q 3450 -175 2725 -375 
Q 2000 -575 950 -675 
Q 850 -400 650 -150 
Q 1275 -175 2137 -25 
Q 3000 125 3700 450 
Q 3250 900 2950 1175 
Q 3150 1325 3300 1500 
Q 3650 1150 4100 675 
Q 4425 875 4712 1187 
Q 5000 1500 5200 1900 
L 3475 1900 
Q 3225 1700 2775 1412 
Q 2325 1125 1525 775 
Q 1400 1025 1200 1175 
Q 2025 1425 2762 1950 
Q 3500 2475 3800 2950 
z
M 900 1850 
Q 800 2100 575 2325 
Q 1050 2350 1725 2525 
Q 2400 2700 2775 2900 
Q 2475 3300 2100 3600 
Q 2300 3750 2425 3925 
Q 2900 3475 3200 3125 
Q 3575 3350 3875 3612 
Q 4175 3875 4400 4175 
L 2250 4175 
Q 1725 3725 1025 3275 
Q 875 3500 650 3625 
Q 1325 3925 1875 4400 
Q 2425 4875 2600 5225 
Q 2800 5075 3025 4925 
Q 2900 4825 2625 4550 
L 5225 4550 
Q 4500 3500 3800 3025 
Q 3100 2550 2437 2312 
Q 1775 2075 900 1850 
z
" id="SimHei-591a" transform="scale(0.015625)"/>
      </defs>
      <use xlink:href="#SimHei-591a"/>
      <use x="100" xlink:href="#SimHei-7279"/>
      <use x="200" xlink:href="#SimHei-5f81"/>
      <use x="300" xlink:href="#SimHei-60c5"/>
      <use x="400" xlink:href="#SimHei-51b5"/>
      <use x="500" xlink:href="#SimHei-4e0b"/>
      <use x="600" xlink:href="#SimHei-7684"/>
      <use x="700" xlink:href="#SimHei-9884"/>
      <use x="800" xlink:href="#SimHei-6d4b"/>
      <use x="900" xlink:href="#SimHei-503c"/>
     </g>
    </g>
   </g>
  </g>
 </g>
 <defs>
  <clipPath id="p4efd3712de">
   <rect height="171.864" width="284.58" x="33.052734" y="0"/>
  </clipPath>
 </defs>
</svg>
