<?xml version="1.0" encoding="utf-8" standalone="no"?>
<!DOCTYPE svg PUBLIC "-//W3C//DTD SVG 1.1//EN"
  "http://www.w3.org/Graphics/SVG/1.1/DTD/svg11.dtd">
<svg height="162.563344pt" version="1.1" viewBox="0 0 213.747773 162.563344" width="213.747773pt" xmlns="http://www.w3.org/2000/svg" xmlns:xlink="http://www.w3.org/1999/xlink">
 <metadata>
  <rdf:RDF xmlns:cc="http://creativecommons.org/ns#" xmlns:dc="http://purl.org/dc/elements/1.1/" xmlns:rdf="http://www.w3.org/1999/02/22-rdf-syntax-ns#">
   <cc:Work>
    <dc:type rdf:resource="http://purl.org/dc/dcmitype/StillImage"/>
    <dc:date>2023-03-21T21:10:49.662912</dc:date>
    <dc:format>image/svg+xml</dc:format>
    <dc:creator>
     <cc:Agent>
      <dc:title>Matplotlib v3.4.3, https://matplotlib.org/</dc:title>
     </cc:Agent>
    </dc:creator>
   </cc:Work>
  </rdf:RDF>
 </metadata>
 <defs>
  <style type="text/css">*{stroke-linecap:butt;stroke-linejoin:round;}</style>
 </defs>
 <g id="figure_1">
  <g id="patch_1">
   <path d="M 0 162.563344 
L 213.747773 162.563344 
L 213.747773 0 
L 0 0 
z
" style="fill:#ffffff;"/>
  </g>
  <g id="axes_1">
   <g id="patch_2">
    <path d="M 33.346406 133.056 
L 206.326406 133.056 
L 206.326406 0 
L 33.346406 0 
z
" style="fill:#ffffff;"/>
   </g>
   <g id="matplotlib.axis_1">
    <g id="xtick_1">
     <g id="line2d_1">
      <path clip-path="url(#p916a4fefeb)" d="M 33.346406 133.056 
L 33.346406 0 
" style="fill:none;stroke:#008000;stroke-dasharray:1.85,0.8;stroke-dashoffset:0;stroke-width:0.5;"/>
     </g>
     <g id="line2d_2">
      <defs>
       <path d="M 0 0 
L 0 -3.5 
" id="m38865f962c" style="stroke:#000000;stroke-width:0.8;"/>
      </defs>
      <g>
       <use style="stroke:#000000;stroke-width:0.8;" x="33.346406" xlink:href="#m38865f962c" y="133.056"/>
      </g>
     </g>
     <g id="text_1">
      <!-- 0.0 -->
      <g transform="translate(25.925039 144.949437)scale(0.105 -0.105)">
       <defs>
        <path d="M 284 2325 
Q 284 3606 709 4264 
Q 1134 4922 1941 4922 
Q 3478 4922 3478 2441 
Q 3478 1216 3045 567 
Q 2613 -81 1831 -81 
Q 1094 -81 689 534 
Q 284 1150 284 2325 
z
M 909 2353 
Q 909 425 1888 425 
Q 2850 425 2850 2384 
Q 2850 4413 1906 4413 
Q 909 4413 909 2353 
z
" id="MicrosoftYaHei-30" transform="scale(0.015625)"/>
        <path d="M 372 322 
Q 372 491 487 606 
Q 603 722 775 722 
Q 950 722 1065 605 
Q 1181 488 1181 322 
Q 1181 159 1065 42 
Q 950 -75 772 -75 
Q 600 -75 486 42 
Q 372 159 372 322 
z
" id="MicrosoftYaHei-2e" transform="scale(0.015625)"/>
       </defs>
       <use xlink:href="#MicrosoftYaHei-30"/>
       <use x="58.642578" xlink:href="#MicrosoftYaHei-2e"/>
       <use x="82.714844" xlink:href="#MicrosoftYaHei-30"/>
      </g>
     </g>
    </g>
    <g id="xtick_2">
     <g id="line2d_3">
      <path clip-path="url(#p916a4fefeb)" d="M 67.942406 133.056 
L 67.942406 0 
" style="fill:none;stroke:#008000;stroke-dasharray:1.85,0.8;stroke-dashoffset:0;stroke-width:0.5;"/>
     </g>
     <g id="line2d_4">
      <g>
       <use style="stroke:#000000;stroke-width:0.8;" x="67.942406" xlink:href="#m38865f962c" y="133.056"/>
      </g>
     </g>
     <g id="text_2">
      <!-- 0.2 -->
      <g transform="translate(60.521039 144.949437)scale(0.105 -0.105)">
       <defs>
        <path d="M 2666 3572 
Q 2666 3963 2419 4186 
Q 2172 4409 1747 4409 
Q 1447 4409 1140 4256 
Q 834 4103 569 3819 
L 569 4413 
Q 806 4659 1107 4790 
Q 1409 4922 1816 4922 
Q 2472 4922 2872 4570 
Q 3272 4219 3272 3619 
Q 3272 3084 3026 2693 
Q 2781 2303 2188 1894 
Q 1581 1475 1376 1294 
Q 1172 1113 1090 947 
Q 1009 781 1009 544 
L 3416 544 
L 3416 0 
L 372 0 
L 372 241 
Q 372 659 486 951 
Q 600 1244 862 1520 
Q 1125 1797 1681 2184 
Q 2250 2584 2458 2886 
Q 2666 3188 2666 3572 
z
" id="MicrosoftYaHei-32" transform="scale(0.015625)"/>
       </defs>
       <use xlink:href="#MicrosoftYaHei-30"/>
       <use x="58.642578" xlink:href="#MicrosoftYaHei-2e"/>
       <use x="82.714844" xlink:href="#MicrosoftYaHei-32"/>
      </g>
     </g>
    </g>
    <g id="xtick_3">
     <g id="line2d_5">
      <path clip-path="url(#p916a4fefeb)" d="M 102.538406 133.056 
L 102.538406 0 
" style="fill:none;stroke:#008000;stroke-dasharray:1.85,0.8;stroke-dashoffset:0;stroke-width:0.5;"/>
     </g>
     <g id="line2d_6">
      <g>
       <use style="stroke:#000000;stroke-width:0.8;" x="102.538406" xlink:href="#m38865f962c" y="133.056"/>
      </g>
     </g>
     <g id="text_3">
      <!-- 0.4 -->
      <g transform="translate(95.117039 144.949437)scale(0.105 -0.105)">
       <defs>
        <path d="M 2906 4841 
L 2906 1644 
L 3631 1644 
L 3631 1138 
L 2906 1138 
L 2906 0 
L 2313 0 
L 2313 1138 
L 53 1138 
L 53 1616 
Q 656 2294 1265 3178 
Q 1875 4063 2272 4841 
L 2906 4841 
z
M 741 1644 
L 2313 1644 
L 2313 3950 
Q 1988 3366 1616 2817 
Q 1244 2269 741 1644 
z
" id="MicrosoftYaHei-34" transform="scale(0.015625)"/>
       </defs>
       <use xlink:href="#MicrosoftYaHei-30"/>
       <use x="58.642578" xlink:href="#MicrosoftYaHei-2e"/>
       <use x="82.714844" xlink:href="#MicrosoftYaHei-34"/>
      </g>
     </g>
    </g>
    <g id="xtick_4">
     <g id="line2d_7">
      <path clip-path="url(#p916a4fefeb)" d="M 137.134406 133.056 
L 137.134406 0 
" style="fill:none;stroke:#008000;stroke-dasharray:1.85,0.8;stroke-dashoffset:0;stroke-width:0.5;"/>
     </g>
     <g id="line2d_8">
      <g>
       <use style="stroke:#000000;stroke-width:0.8;" x="137.134406" xlink:href="#m38865f962c" y="133.056"/>
      </g>
     </g>
     <g id="text_4">
      <!-- 0.6 -->
      <g transform="translate(129.713039 144.949437)scale(0.105 -0.105)">
       <defs>
        <path d="M 3181 4219 
Q 2803 4413 2391 4413 
Q 1763 4413 1381 3866 
Q 1000 3319 994 2372 
L 1009 2372 
Q 1353 3038 2106 3038 
Q 2734 3038 3109 2628 
Q 3484 2219 3484 1541 
Q 3484 831 3051 375 
Q 2619 -81 1947 -81 
Q 1209 -81 789 495 
Q 369 1072 369 2131 
Q 369 3413 920 4167 
Q 1472 4922 2372 4922 
Q 2888 4922 3181 4781 
L 3181 4219 
z
M 1031 1584 
Q 1031 1106 1286 765 
Q 1541 425 1963 425 
Q 2363 425 2613 719 
Q 2863 1013 2863 1475 
Q 2863 1975 2627 2253 
Q 2391 2531 1956 2531 
Q 1544 2531 1287 2250 
Q 1031 1969 1031 1584 
z
" id="MicrosoftYaHei-36" transform="scale(0.015625)"/>
       </defs>
       <use xlink:href="#MicrosoftYaHei-30"/>
       <use x="58.642578" xlink:href="#MicrosoftYaHei-2e"/>
       <use x="82.714844" xlink:href="#MicrosoftYaHei-36"/>
      </g>
     </g>
    </g>
    <g id="xtick_5">
     <g id="line2d_9">
      <path clip-path="url(#p916a4fefeb)" d="M 171.730406 133.056 
L 171.730406 0 
" style="fill:none;stroke:#008000;stroke-dasharray:1.85,0.8;stroke-dashoffset:0;stroke-width:0.5;"/>
     </g>
     <g id="line2d_10">
      <g>
       <use style="stroke:#000000;stroke-width:0.8;" x="171.730406" xlink:href="#m38865f962c" y="133.056"/>
      </g>
     </g>
     <g id="text_5">
      <!-- 0.8 -->
      <g transform="translate(164.309039 144.949437)scale(0.105 -0.105)">
       <defs>
        <path d="M 306 1350 
Q 306 1769 556 2122 
Q 806 2475 1200 2625 
Q 884 2803 700 3081 
Q 516 3359 516 3684 
Q 516 4028 692 4312 
Q 869 4597 1183 4759 
Q 1497 4922 1875 4922 
Q 2256 4922 2572 4761 
Q 2888 4600 3063 4315 
Q 3238 4031 3238 3684 
Q 3238 3366 3058 3086 
Q 2878 2806 2559 2625 
Q 2953 2472 3200 2119 
Q 3447 1766 3447 1350 
Q 3447 938 3250 611 
Q 3053 284 2690 103 
Q 2328 -78 1875 -78 
Q 1425 -78 1065 103 
Q 706 284 506 612 
Q 306 941 306 1350 
z
M 906 1378 
Q 906 947 1172 687 
Q 1438 428 1878 428 
Q 2309 428 2582 692 
Q 2856 956 2856 1378 
Q 2856 1778 2579 2051 
Q 2303 2325 1878 2325 
Q 1456 2325 1181 2058 
Q 906 1791 906 1378 
z
M 1081 3634 
Q 1081 3309 1312 3076 
Q 1544 2844 1878 2844 
Q 2206 2844 2445 3078 
Q 2684 3313 2684 3634 
Q 2684 3963 2454 4191 
Q 2225 4419 1878 4419 
Q 1534 4419 1307 4195 
Q 1081 3972 1081 3634 
z
" id="MicrosoftYaHei-38" transform="scale(0.015625)"/>
       </defs>
       <use xlink:href="#MicrosoftYaHei-30"/>
       <use x="58.642578" xlink:href="#MicrosoftYaHei-2e"/>
       <use x="82.714844" xlink:href="#MicrosoftYaHei-38"/>
      </g>
     </g>
    </g>
    <g id="xtick_6">
     <g id="line2d_11">
      <path clip-path="url(#p916a4fefeb)" d="M 206.326406 133.056 
L 206.326406 0 
" style="fill:none;stroke:#008000;stroke-dasharray:1.85,0.8;stroke-dashoffset:0;stroke-width:0.5;"/>
     </g>
     <g id="line2d_12">
      <g>
       <use style="stroke:#000000;stroke-width:0.8;" x="206.326406" xlink:href="#m38865f962c" y="133.056"/>
      </g>
     </g>
     <g id="text_6">
      <!-- 1.0 -->
      <g transform="translate(198.905039 144.949437)scale(0.105 -0.105)">
       <defs>
        <path d="M 1781 0 
L 1781 4141 
Q 1638 3997 1295 3819 
Q 953 3641 663 3569 
L 663 4169 
Q 1047 4275 1484 4508 
Q 1922 4741 2156 4947 
L 2388 4947 
L 2388 0 
L 1781 0 
z
" id="MicrosoftYaHei-31" transform="scale(0.015625)"/>
       </defs>
       <use xlink:href="#MicrosoftYaHei-31"/>
       <use x="58.642578" xlink:href="#MicrosoftYaHei-2e"/>
       <use x="82.714844" xlink:href="#MicrosoftYaHei-30"/>
      </g>
     </g>
    </g>
    <g id="text_7">
     <!-- 召回率 -->
     <g transform="translate(104.086406 159.953109)scale(0.105 -0.105)">
      <defs>
       <path d="M 913 1884 
L 5525 1884 
L 5525 -866 
L 5025 -866 
L 5025 -478 
L 1413 -478 
L 1413 -878 
L 913 -878 
L 913 1884 
z
M 406 4941 
L 5713 4941 
Q 5638 3916 5581 3409 
Q 5469 2397 4475 2397 
Q 3856 2397 3194 2403 
Q 3150 2678 3063 2966 
Q 3769 2916 4388 2916 
Q 4994 2916 5069 3509 
Q 5119 3897 5156 4472 
L 2625 4472 
Q 2550 3453 2125 2934 
Q 1594 2316 438 1834 
Q 244 2109 88 2297 
Q 1288 2753 1694 3259 
Q 2050 3647 2119 4472 
L 406 4472 
L 406 4941 
z
M 5025 1428 
L 1413 1428 
L 1413 -34 
L 5025 -34 
L 5025 1428 
z
" id="MicrosoftYaHei-53ec" transform="scale(0.015625)"/>
       <path d="M 475 4947 
L 5938 4947 
L 5938 -778 
L 5413 -778 
L 5413 -378 
L 1000 -378 
L 1000 -778 
L 475 -778 
L 475 4947 
z
M 5413 4484 
L 1000 4484 
L 1000 72 
L 5413 72 
L 5413 4484 
z
M 1875 3528 
L 4531 3528 
L 4531 797 
L 4044 797 
L 4044 1147 
L 2363 1147 
L 2363 797 
L 1875 797 
L 1875 3528 
z
M 4044 3091 
L 2363 3091 
L 2363 1584 
L 4044 1584 
L 4044 3091 
z
" id="MicrosoftYaHei-56de" transform="scale(0.015625)"/>
       <path d="M 2525 2009 
Q 2622 2016 3928 2081 
Q 3772 2300 3625 2491 
L 3963 2703 
Q 4413 2203 4794 1653 
L 4394 1403 
Q 4284 1569 4178 1725 
Q 2991 1659 2213 1597 
Q 2075 1584 1881 1541 
L 1725 1966 
Q 1913 2028 2006 2084 
Q 2534 2441 3050 2913 
Q 2597 2894 2275 2866 
Q 2144 2847 1988 2809 
L 1800 3191 
Q 1956 3247 2088 3366 
Q 2509 3722 2875 4228 
L 231 4228 
L 231 4666 
L 3031 4666 
Q 2878 4944 2744 5153 
L 3194 5372 
Q 3438 5000 3616 4666 
L 6175 4666 
L 6175 4228 
L 3053 4228 
L 3350 4072 
Q 2844 3553 2494 3247 
Q 2850 3256 3425 3269 
Q 3675 3519 3925 3797 
L 4356 3547 
Q 3363 2603 2525 2009 
z
M 144 991 
L 2994 991 
L 2994 1541 
L 3488 1541 
L 3488 991 
L 6275 991 
L 6275 553 
L 3488 553 
L 3488 -853 
L 2994 -853 
L 2994 553 
L 144 553 
L 144 991 
z
M 1719 2672 
L 1944 2303 
Q 1200 1866 425 1409 
L 163 1828 
Q 813 2134 1719 2672 
z
M 4856 2678 
Q 5750 2172 6250 1816 
L 5975 1409 
Q 5331 1909 4600 2341 
L 4856 2678 
z
M 5994 3591 
Q 5519 3178 4963 2809 
L 4644 3141 
Q 5244 3534 5638 3928 
L 5994 3591 
z
M 363 3634 
L 681 3941 
Q 1200 3528 1588 3159 
L 1238 2816 
Q 875 3197 363 3634 
z
" id="MicrosoftYaHei-7387" transform="scale(0.015625)"/>
      </defs>
      <use xlink:href="#MicrosoftYaHei-53ec"/>
      <use x="100" xlink:href="#MicrosoftYaHei-56de"/>
      <use x="200" xlink:href="#MicrosoftYaHei-7387"/>
     </g>
    </g>
   </g>
   <g id="matplotlib.axis_2">
    <g id="ytick_1">
     <g id="line2d_13">
      <path clip-path="url(#p916a4fefeb)" d="M 33.346406 133.056 
L 206.326406 133.056 
" style="fill:none;stroke:#008000;stroke-dasharray:1.85,0.8;stroke-dashoffset:0;stroke-width:0.5;"/>
     </g>
     <g id="line2d_14">
      <defs>
       <path d="M 0 0 
L 3.5 0 
" id="m478ae55eaa" style="stroke:#000000;stroke-width:0.8;"/>
      </defs>
      <g>
       <use style="stroke:#000000;stroke-width:0.8;" x="33.346406" xlink:href="#m478ae55eaa" y="133.056"/>
      </g>
     </g>
     <g id="text_8">
      <!-- 0.0 -->
      <g transform="translate(15.003672 137.252719)scale(0.105 -0.105)">
       <use xlink:href="#MicrosoftYaHei-30"/>
       <use x="58.642578" xlink:href="#MicrosoftYaHei-2e"/>
       <use x="82.714844" xlink:href="#MicrosoftYaHei-30"/>
      </g>
     </g>
    </g>
    <g id="ytick_2">
     <g id="line2d_15">
      <path clip-path="url(#p916a4fefeb)" d="M 33.346406 107.712 
L 206.326406 107.712 
" style="fill:none;stroke:#008000;stroke-dasharray:1.85,0.8;stroke-dashoffset:0;stroke-width:0.5;"/>
     </g>
     <g id="line2d_16">
      <g>
       <use style="stroke:#000000;stroke-width:0.8;" x="33.346406" xlink:href="#m478ae55eaa" y="107.712"/>
      </g>
     </g>
     <g id="text_9">
      <!-- 0.2 -->
      <g transform="translate(15.003672 111.908719)scale(0.105 -0.105)">
       <use xlink:href="#MicrosoftYaHei-30"/>
       <use x="58.642578" xlink:href="#MicrosoftYaHei-2e"/>
       <use x="82.714844" xlink:href="#MicrosoftYaHei-32"/>
      </g>
     </g>
    </g>
    <g id="ytick_3">
     <g id="line2d_17">
      <path clip-path="url(#p916a4fefeb)" d="M 33.346406 82.368 
L 206.326406 82.368 
" style="fill:none;stroke:#008000;stroke-dasharray:1.85,0.8;stroke-dashoffset:0;stroke-width:0.5;"/>
     </g>
     <g id="line2d_18">
      <g>
       <use style="stroke:#000000;stroke-width:0.8;" x="33.346406" xlink:href="#m478ae55eaa" y="82.368"/>
      </g>
     </g>
     <g id="text_10">
      <!-- 0.4 -->
      <g transform="translate(15.003672 86.564719)scale(0.105 -0.105)">
       <use xlink:href="#MicrosoftYaHei-30"/>
       <use x="58.642578" xlink:href="#MicrosoftYaHei-2e"/>
       <use x="82.714844" xlink:href="#MicrosoftYaHei-34"/>
      </g>
     </g>
    </g>
    <g id="ytick_4">
     <g id="line2d_19">
      <path clip-path="url(#p916a4fefeb)" d="M 33.346406 57.024 
L 206.326406 57.024 
" style="fill:none;stroke:#008000;stroke-dasharray:1.85,0.8;stroke-dashoffset:0;stroke-width:0.5;"/>
     </g>
     <g id="line2d_20">
      <g>
       <use style="stroke:#000000;stroke-width:0.8;" x="33.346406" xlink:href="#m478ae55eaa" y="57.024"/>
      </g>
     </g>
     <g id="text_11">
      <!-- 0.6 -->
      <g transform="translate(15.003672 61.220719)scale(0.105 -0.105)">
       <use xlink:href="#MicrosoftYaHei-30"/>
       <use x="58.642578" xlink:href="#MicrosoftYaHei-2e"/>
       <use x="82.714844" xlink:href="#MicrosoftYaHei-36"/>
      </g>
     </g>
    </g>
    <g id="ytick_5">
     <g id="line2d_21">
      <path clip-path="url(#p916a4fefeb)" d="M 33.346406 31.68 
L 206.326406 31.68 
" style="fill:none;stroke:#008000;stroke-dasharray:1.85,0.8;stroke-dashoffset:0;stroke-width:0.5;"/>
     </g>
     <g id="line2d_22">
      <g>
       <use style="stroke:#000000;stroke-width:0.8;" x="33.346406" xlink:href="#m478ae55eaa" y="31.68"/>
      </g>
     </g>
     <g id="text_12">
      <!-- 0.8 -->
      <g transform="translate(15.003672 35.876719)scale(0.105 -0.105)">
       <use xlink:href="#MicrosoftYaHei-30"/>
       <use x="58.642578" xlink:href="#MicrosoftYaHei-2e"/>
       <use x="82.714844" xlink:href="#MicrosoftYaHei-38"/>
      </g>
     </g>
    </g>
    <g id="ytick_6">
     <g id="line2d_23">
      <path clip-path="url(#p916a4fefeb)" d="M 33.346406 6.336 
L 206.326406 6.336 
" style="fill:none;stroke:#008000;stroke-dasharray:1.85,0.8;stroke-dashoffset:0;stroke-width:0.5;"/>
     </g>
     <g id="line2d_24">
      <g>
       <use style="stroke:#000000;stroke-width:0.8;" x="33.346406" xlink:href="#m478ae55eaa" y="6.336"/>
      </g>
     </g>
     <g id="text_13">
      <!-- 1.0 -->
      <g transform="translate(15.003672 10.532719)scale(0.105 -0.105)">
       <use xlink:href="#MicrosoftYaHei-31"/>
       <use x="58.642578" xlink:href="#MicrosoftYaHei-2e"/>
       <use x="82.714844" xlink:href="#MicrosoftYaHei-30"/>
      </g>
     </g>
    </g>
    <g id="text_14">
     <!-- 精确率 -->
     <g transform="translate(8.393437 82.278)rotate(-90)scale(0.105 -0.105)">
      <defs>
       <path d="M 3225 -822 
L 2775 -822 
L 2775 2347 
L 5919 2347 
L 5919 -91 
Q 5919 -772 5219 -772 
L 4200 -772 
Q 4169 -572 4106 -291 
Q 4688 -328 5063 -328 
Q 5469 -328 5469 9 
L 5469 297 
L 3225 297 
L 3225 -822 
z
M 2488 3122 
L 4106 3122 
L 4106 3553 
L 2750 3553 
L 2750 3947 
L 4106 3947 
L 4106 4366 
L 2588 4366 
L 2588 4759 
L 4106 4759 
L 4106 5322 
L 4556 5322 
L 4556 4759 
L 6200 4759 
L 6200 4366 
L 4556 4366 
L 4556 3947 
L 6013 3947 
L 6013 3553 
L 4556 3553 
L 4556 3122 
L 6288 3122 
L 6288 2728 
L 2488 2728 
L 2488 3122 
z
M 56 578 
Q 663 1497 1044 2628 
L 138 2628 
L 138 3028 
L 1094 3028 
L 1094 5303 
L 1506 5303 
L 1506 3028 
L 2313 3028 
L 2313 2628 
L 1506 2628 
L 1506 1853 
L 1738 2041 
Q 2263 1534 2581 1166 
L 2256 866 
Q 1863 1347 1506 1722 
L 1506 -847 
L 1094 -847 
L 1094 1784 
Q 731 841 250 72 
Q 150 353 56 578 
z
M 5469 1947 
L 3225 1947 
L 3225 1509 
L 5469 1509 
L 5469 1947 
z
M 3225 684 
L 5469 684 
L 5469 1122 
L 3225 1122 
L 3225 684 
z
M 1625 3559 
Q 1900 4166 2081 4834 
L 2481 4691 
Q 2250 3997 1994 3397 
L 1625 3559 
z
M 150 4709 
L 519 4841 
Q 744 4209 944 3572 
L 550 3409 
Q 338 4172 150 4709 
z
" id="MicrosoftYaHei-7cbe" transform="scale(0.015625)"/>
       <path d="M 2075 3453 
Q 2956 4334 3456 5359 
L 3931 5272 
Q 3781 4991 3619 4722 
L 5438 4722 
L 5438 4328 
L 4909 3666 
L 6063 3666 
L 6063 -53 
Q 6063 -728 5475 -728 
Q 5144 -728 4906 -716 
Q 4869 -497 4813 -259 
Q 5156 -291 5331 -291 
Q 5619 -291 5619 16 
L 5619 734 
L 4588 734 
L 4588 -659 
L 4144 -659 
L 4144 734 
L 3113 734 
Q 2944 -263 2444 -884 
Q 2288 -703 2081 -509 
Q 2756 291 2756 1841 
L 2756 3506 
Q 2597 3316 2431 3134 
Q 2281 3278 2075 3453 
z
M 31 1691 
Q 741 2834 1066 4291 
L 231 4291 
L 231 4716 
L 2469 4716 
L 2469 4291 
L 1509 4291 
Q 1356 3613 1128 2991 
L 2200 2991 
L 2200 128 
L 1150 128 
L 1150 -347 
L 738 -347 
L 738 2059 
Q 559 1691 350 1347 
Q 225 1497 31 1691 
z
M 1788 541 
L 1788 2578 
L 1150 2578 
L 1150 541 
L 1788 541 
z
M 4875 4322 
L 3366 4322 
Q 3138 3981 2884 3666 
L 4384 3666 
L 4875 4322 
z
M 4588 1134 
L 5619 1134 
L 5619 1991 
L 4588 1991 
L 4588 1134 
z
M 5619 3241 
L 4588 3241 
L 4588 2391 
L 5619 2391 
L 5619 3241 
z
M 3166 1134 
L 4144 1134 
L 4144 1991 
L 3200 1991 
Q 3200 1841 3166 1134 
z
M 3200 2391 
L 4144 2391 
L 4144 3241 
L 3200 3241 
L 3200 2391 
z
" id="MicrosoftYaHei-786e" transform="scale(0.015625)"/>
      </defs>
      <use xlink:href="#MicrosoftYaHei-7cbe"/>
      <use x="100" xlink:href="#MicrosoftYaHei-786e"/>
      <use x="200" xlink:href="#MicrosoftYaHei-7387"/>
     </g>
    </g>
   </g>
   <g id="line2d_25">
    <path clip-path="url(#p916a4fefeb)" d="M 33.346406 6.505169 
L 40.553906 8.242907 
L 47.761406 9.643457 
L 54.968906 10.777884 
L 62.176406 11.717249 
L 69.383906 12.532616 
L 76.591406 13.295048 
L 83.798906 14.075608 
L 91.006406 14.945359 
L 98.213906 15.975364 
L 105.421406 17.236686 
L 112.628906 18.800388 
L 119.836406 20.737533 
L 127.043906 23.119185 
L 134.251406 26.016406 
L 141.458906 29.500259 
L 148.666406 33.641807 
L 155.873906 38.512114 
L 163.081406 44.182242 
L 170.288906 50.723255 
L 177.496406 58.206215 
L 184.703906 66.702186 
L 191.911406 76.282231 
L 199.118906 87.017412 
L 206.326406 98.978793 
" style="fill:none;stroke:#ff0000;stroke-linecap:square;stroke-width:0.7;"/>
   </g>
   <g id="line2d_26">
    <path clip-path="url(#p916a4fefeb)" d="M 33.346406 6.329543 
L 40.553906 9.870789 
L 47.761406 12.662849 
L 54.968906 14.813621 
L 62.176406 16.431 
L 69.383906 17.622884 
L 76.591406 18.497168 
L 83.798906 19.161749 
L 91.006406 19.724524 
L 98.213906 20.293389 
L 105.421406 20.97624 
L 112.628906 21.880975 
L 119.836406 23.115489 
L 127.043906 24.787679 
L 134.251406 27.005441 
L 141.458906 29.876673 
L 148.666406 33.50927 
L 155.873906 38.011128 
L 163.081406 43.490146 
L 170.288906 50.054218 
L 177.496406 57.811241 
L 184.703906 66.869113 
L 191.911406 77.335728 
L 199.118906 89.318985 
L 206.326406 102.926779 
" style="fill:none;stroke:#696969;stroke-linecap:square;stroke-width:0.7;"/>
   </g>
   <g id="line2d_27">
    <path clip-path="url(#p916a4fefeb)" d="M 33.346406 6.634018 
L 40.553906 10.995729 
L 47.761406 14.131174 
L 54.968906 16.203851 
L 62.176406 17.377258 
L 69.383906 17.814894 
L 76.591406 17.680257 
L 83.798906 17.136846 
L 91.006406 16.348161 
L 98.213906 15.477698 
L 105.421406 14.688957 
L 112.628906 14.145437 
L 119.836406 14.010635 
L 127.043906 14.448051 
L 134.251406 15.621184 
L 141.458906 17.693531 
L 148.666406 20.828591 
L 155.873906 25.189863 
L 163.081406 30.940846 
L 170.288906 38.245037 
L 177.496406 47.265937 
L 184.703906 58.167042 
L 191.911406 71.111852 
L 199.118906 86.263866 
L 206.326406 103.786582 
" style="fill:none;stroke:#ffa500;stroke-linecap:square;stroke-width:0.7;"/>
   </g>
   <g id="line2d_28">
    <path clip-path="url(#p916a4fefeb)" d="M 33.346406 5.871583 
L 40.553906 9.529106 
L 47.761406 12.177354 
L 54.968906 13.956141 
L 62.176406 15.005284 
L 69.383906 15.464599 
L 76.591406 15.473902 
L 83.798906 15.173011 
L 91.006406 14.70174 
L 98.213906 14.199906 
L 105.421406 13.807326 
L 112.628906 13.663815 
L 119.836406 13.90919 
L 127.043906 14.683267 
L 134.251406 16.125863 
L 141.458906 18.376793 
L 148.666406 21.575873 
L 155.873906 25.862921 
L 163.081406 31.377752 
L 170.288906 38.260183 
L 177.496406 46.650029 
L 184.703906 56.687107 
L 191.911406 68.511233 
L 199.118906 82.262224 
L 206.326406 98.079895 
" style="fill:none;stroke:#0000ff;stroke-linecap:square;stroke-width:0.7;"/>
   </g>
   <g id="line2d_29">
    <path clip-path="url(#p916a4fefeb)" d="M 33.346406 24.524361 
L 40.553906 21.918548 
L 47.761406 19.71816 
L 54.968906 17.939204 
L 62.176406 16.597687 
L 69.383906 15.709615 
L 76.591406 15.290993 
L 83.798906 15.35783 
L 91.006406 15.92613 
L 98.213906 17.0119 
L 105.421406 18.631148 
L 112.628906 20.799878 
L 119.836406 23.534098 
L 127.043906 26.849813 
L 134.251406 30.763031 
L 141.458906 35.289758 
L 148.666406 40.445999 
L 155.873906 46.247762 
L 163.081406 52.711053 
L 170.288906 59.851878 
L 177.496406 67.686243 
L 184.703906 76.230155 
L 191.911406 85.499621 
L 199.118906 95.510646 
L 206.326406 106.279237 
" style="fill:none;stroke:#008000;stroke-linecap:square;stroke-width:0.7;"/>
   </g>
   <g id="patch_3">
    <path d="M 33.346406 133.056 
L 33.346406 0 
" style="fill:none;stroke:#000000;stroke-linecap:square;stroke-linejoin:miter;stroke-width:0.8;"/>
   </g>
   <g id="patch_4">
    <path d="M 206.326406 133.056 
L 206.326406 0 
" style="fill:none;stroke:#000000;stroke-linecap:square;stroke-linejoin:miter;stroke-width:0.8;"/>
   </g>
   <g id="patch_5">
    <path d="M 33.346406 133.056 
L 206.326406 133.056 
" style="fill:none;stroke:#000000;stroke-linecap:square;stroke-linejoin:miter;stroke-width:0.8;"/>
   </g>
   <g id="patch_6">
    <path d="M 33.346406 0 
L 206.326406 0 
" style="fill:none;stroke:#000000;stroke-linecap:square;stroke-linejoin:miter;stroke-width:0.8;"/>
   </g>
   <g id="legend_1">
    <g id="patch_7">
     <path d="M 38.596406 129.306 
L 159.223359 129.306 
Q 160.723359 129.306 160.723359 127.806 
L 160.723359 70.255219 
Q 160.723359 68.755219 159.223359 68.755219 
L 38.596406 68.755219 
Q 37.096406 68.755219 37.096406 70.255219 
L 37.096406 127.806 
Q 37.096406 129.306 38.596406 129.306 
z
" style="fill:#ffffff;opacity:0.8;stroke:#cccccc;stroke-linejoin:miter;"/>
    </g>
    <g id="line2d_30">
     <path d="M 40.096406 75.125531 
L 55.096406 75.125531 
" style="fill:none;stroke:#ff0000;stroke-linecap:square;stroke-width:0.7;"/>
    </g>
    <g id="line2d_31"/>
    <g id="text_15">
     <!-- RF_PR_AUC = 0.8146 -->
     <g transform="translate(61.096406 77.750531)scale(0.075 -0.075)">
      <defs>
       <path d="M 4159 0 
L 3422 0 
L 2619 1344 
Q 2378 1747 2178 1892 
Q 1978 2038 1700 2038 
L 1250 2038 
L 1250 0 
L 625 0 
L 625 4841 
L 2100 4841 
Q 2806 4841 3206 4500 
Q 3606 4159 3606 3547 
Q 3606 2541 2531 2241 
L 2531 2225 
Q 2731 2141 2876 1984 
Q 3022 1828 3253 1450 
L 4159 0 
z
M 1250 4294 
L 1250 2584 
L 1988 2584 
Q 2416 2584 2683 2834 
Q 2950 3084 2950 3491 
Q 2950 3869 2706 4081 
Q 2463 4294 1997 4294 
L 1250 4294 
z
" id="MicrosoftYaHei-52" transform="scale(0.015625)"/>
       <path d="M 3119 4284 
L 1250 4284 
L 1250 2666 
L 2981 2666 
L 2981 2116 
L 1250 2116 
L 1250 0 
L 625 0 
L 625 4841 
L 3119 4841 
L 3119 4284 
z
" id="MicrosoftYaHei-46" transform="scale(0.015625)"/>
       <path d="M 2869 -1634 
L 0 -1634 
L 0 -1231 
L 2869 -1231 
L 2869 -1634 
z
" id="MicrosoftYaHei-5f" transform="scale(0.015625)"/>
       <path d="M 1250 1809 
L 1250 0 
L 625 0 
L 625 4841 
L 2000 4841 
Q 2784 4841 3217 4462 
Q 3650 4084 3650 3381 
Q 3650 2669 3144 2226 
Q 2638 1784 1878 1809 
L 1250 1809 
z
M 1250 4291 
L 1250 2359 
L 1828 2359 
Q 2400 2359 2697 2617 
Q 2994 2875 2994 3356 
Q 2994 4291 1888 4291 
L 1250 4291 
z
" id="MicrosoftYaHei-50" transform="scale(0.015625)"/>
       <path d="M 4428 0 
L 3738 0 
L 3244 1325 
L 1228 1325 
L 763 0 
L 72 0 
L 1916 4841 
L 2584 4841 
L 4428 0 
z
M 3050 1872 
L 2319 3884 
Q 2284 3981 2244 4222 
L 2228 4222 
Q 2194 4003 2150 3884 
L 1425 1872 
L 3050 1872 
z
" id="MicrosoftYaHei-41" transform="scale(0.015625)"/>
       <path d="M 4213 1972 
Q 4213 -81 2350 -81 
Q 566 -81 566 1900 
L 566 4841 
L 1191 4841 
L 1191 1928 
Q 1191 475 2409 475 
Q 3588 475 3588 1881 
L 3588 4841 
L 4213 4841 
L 4213 1972 
z
" id="MicrosoftYaHei-55" transform="scale(0.015625)"/>
       <path d="M 3938 200 
Q 3403 -81 2597 -81 
Q 1556 -81 934 580 
Q 313 1241 313 2328 
Q 313 3497 1013 4209 
Q 1713 4922 2791 4922 
Q 3484 4922 3938 4725 
L 3938 4072 
Q 3419 4359 2797 4359 
Q 1988 4359 1478 3820 
Q 969 3281 969 2366 
Q 969 1497 1444 986 
Q 1919 475 2688 475 
Q 3406 475 3938 800 
L 3938 200 
z
" id="MicrosoftYaHei-43" transform="scale(0.015625)"/>
       <path id="MicrosoftYaHei-20" transform="scale(0.015625)"/>
       <path d="M 3972 2497 
L 788 2497 
L 788 2969 
L 3972 2969 
L 3972 2497 
z
M 3972 1053 
L 788 1053 
L 788 1525 
L 3972 1525 
L 3972 1053 
z
" id="MicrosoftYaHei-3d" transform="scale(0.015625)"/>
      </defs>
      <use xlink:href="#MicrosoftYaHei-52"/>
      <use x="65.283203" xlink:href="#MicrosoftYaHei-46"/>
      <use x="118.408203" xlink:href="#MicrosoftYaHei-5f"/>
      <use x="163.232422" xlink:href="#MicrosoftYaHei-50"/>
      <use x="224.414062" xlink:href="#MicrosoftYaHei-52"/>
      <use x="289.697266" xlink:href="#MicrosoftYaHei-5f"/>
      <use x="334.521484" xlink:href="#MicrosoftYaHei-41"/>
      <use x="403.507812" xlink:href="#MicrosoftYaHei-55"/>
      <use x="478.166016" xlink:href="#MicrosoftYaHei-43"/>
      <use x="545.060547" xlink:href="#MicrosoftYaHei-20"/>
      <use x="574.650391" xlink:href="#MicrosoftYaHei-3d"/>
      <use x="648.820312" xlink:href="#MicrosoftYaHei-20"/>
      <use x="678.410156" xlink:href="#MicrosoftYaHei-30"/>
      <use x="737.052734" xlink:href="#MicrosoftYaHei-2e"/>
      <use x="761.125" xlink:href="#MicrosoftYaHei-38"/>
      <use x="819.767578" xlink:href="#MicrosoftYaHei-31"/>
      <use x="878.410156" xlink:href="#MicrosoftYaHei-34"/>
      <use x="937.052734" xlink:href="#MicrosoftYaHei-36"/>
     </g>
    </g>
    <g id="line2d_32">
     <path d="M 40.096406 86.785687 
L 55.096406 86.785687 
" style="fill:none;stroke:#696969;stroke-linecap:square;stroke-width:0.7;"/>
    </g>
    <g id="line2d_33"/>
    <g id="text_16">
     <!-- DT_PR_AUC = 0.7701 -->
     <g transform="translate(61.096406 89.410687)scale(0.075 -0.075)">
      <defs>
       <path d="M 625 0 
L 625 4841 
L 2006 4841 
Q 3106 4841 3836 4200 
Q 4566 3559 4566 2481 
Q 4566 1356 3836 678 
Q 3106 0 1956 0 
L 625 0 
z
M 1250 4284 
L 1250 553 
L 1953 553 
Q 2875 553 3392 1056 
Q 3909 1559 3909 2466 
Q 3909 3372 3378 3828 
Q 2847 4284 1981 4284 
L 1250 4284 
z
" id="MicrosoftYaHei-44" transform="scale(0.015625)"/>
       <path d="M 3550 4284 
L 2153 4284 
L 2153 0 
L 1525 0 
L 1525 4284 
L 134 4284 
L 134 4841 
L 3550 4841 
L 3550 4284 
z
" id="MicrosoftYaHei-54" transform="scale(0.015625)"/>
       <path d="M 3422 4463 
Q 2659 3131 2223 1998 
Q 1788 866 1684 0 
L 1047 0 
Q 1163 853 1594 1947 
Q 2025 3041 2747 4300 
L 347 4300 
L 347 4841 
L 3422 4841 
L 3422 4463 
z
" id="MicrosoftYaHei-37" transform="scale(0.015625)"/>
      </defs>
      <use xlink:href="#MicrosoftYaHei-44"/>
      <use x="71.296875" xlink:href="#MicrosoftYaHei-54"/>
      <use x="128.621094" xlink:href="#MicrosoftYaHei-5f"/>
      <use x="173.445312" xlink:href="#MicrosoftYaHei-50"/>
      <use x="234.626953" xlink:href="#MicrosoftYaHei-52"/>
      <use x="299.910156" xlink:href="#MicrosoftYaHei-5f"/>
      <use x="344.734375" xlink:href="#MicrosoftYaHei-41"/>
      <use x="413.720703" xlink:href="#MicrosoftYaHei-55"/>
      <use x="488.378906" xlink:href="#MicrosoftYaHei-43"/>
      <use x="555.273438" xlink:href="#MicrosoftYaHei-20"/>
      <use x="584.863281" xlink:href="#MicrosoftYaHei-3d"/>
      <use x="659.033203" xlink:href="#MicrosoftYaHei-20"/>
      <use x="688.623047" xlink:href="#MicrosoftYaHei-30"/>
      <use x="747.265625" xlink:href="#MicrosoftYaHei-2e"/>
      <use x="771.337891" xlink:href="#MicrosoftYaHei-37"/>
      <use x="829.980469" xlink:href="#MicrosoftYaHei-37"/>
      <use x="888.623047" xlink:href="#MicrosoftYaHei-30"/>
      <use x="947.265625" xlink:href="#MicrosoftYaHei-31"/>
     </g>
    </g>
    <g id="line2d_34">
     <path d="M 40.096406 98.445844 
L 55.096406 98.445844 
" style="fill:none;stroke:#ffa500;stroke-linecap:square;stroke-width:0.7;"/>
    </g>
    <g id="line2d_35"/>
    <g id="text_17">
     <!-- GBDT_PR_AUC = 0.8317 -->
     <g transform="translate(61.096406 101.070844)scale(0.075 -0.075)">
      <defs>
       <path d="M 4284 331 
Q 3559 -81 2647 -81 
Q 1597 -81 955 583 
Q 313 1247 313 2356 
Q 313 3478 1022 4200 
Q 1731 4922 2841 4922 
Q 3625 4922 4169 4672 
L 4169 3997 
Q 3588 4363 2784 4363 
Q 1994 4363 1481 3822 
Q 969 3281 969 2397 
Q 969 1488 1441 981 
Q 1913 475 2716 475 
Q 3269 475 3656 688 
L 3656 1997 
L 2606 1997 
L 2606 2550 
L 4284 2550 
L 4284 331 
z
" id="MicrosoftYaHei-47" transform="scale(0.015625)"/>
       <path d="M 625 0 
L 625 4841 
L 2047 4841 
Q 2684 4841 3065 4536 
Q 3447 4231 3447 3728 
Q 3447 3328 3220 3022 
Q 2994 2716 2597 2588 
L 2597 2575 
Q 3091 2519 3386 2201 
Q 3681 1884 3681 1397 
Q 3681 772 3232 386 
Q 2784 0 2084 0 
L 625 0 
z
M 1250 4294 
L 1250 2778 
L 1819 2778 
Q 2272 2778 2530 2998 
Q 2788 3219 2788 3609 
Q 2788 4294 1875 4294 
L 1250 4294 
z
M 1250 2234 
L 1250 547 
L 2000 547 
Q 2491 547 2758 773 
Q 3025 1000 3025 1403 
Q 3025 2234 1897 2234 
L 1250 2234 
z
" id="MicrosoftYaHei-42" transform="scale(0.015625)"/>
       <path d="M 447 809 
Q 944 425 1569 425 
Q 2069 425 2361 670 
Q 2653 916 2653 1328 
Q 2653 2247 1338 2247 
L 934 2247 
L 934 2753 
L 1319 2753 
Q 2484 2753 2484 3616 
Q 2484 4413 1594 4413 
Q 1084 4413 634 4069 
L 634 4647 
Q 1109 4922 1744 4922 
Q 2363 4922 2738 4598 
Q 3113 4275 3113 3759 
Q 3113 2809 2144 2538 
L 2144 2525 
Q 2669 2469 2973 2155 
Q 3278 1841 3278 1372 
Q 3278 719 2808 319 
Q 2338 -81 1556 -81 
Q 869 -81 447 175 
L 447 809 
z
" id="MicrosoftYaHei-33" transform="scale(0.015625)"/>
      </defs>
      <use xlink:href="#MicrosoftYaHei-47"/>
      <use x="74.365234" xlink:href="#MicrosoftYaHei-42"/>
      <use x="137.109375" xlink:href="#MicrosoftYaHei-44"/>
      <use x="208.40625" xlink:href="#MicrosoftYaHei-54"/>
      <use x="265.730469" xlink:href="#MicrosoftYaHei-5f"/>
      <use x="310.554688" xlink:href="#MicrosoftYaHei-50"/>
      <use x="371.736328" xlink:href="#MicrosoftYaHei-52"/>
      <use x="437.019531" xlink:href="#MicrosoftYaHei-5f"/>
      <use x="481.84375" xlink:href="#MicrosoftYaHei-41"/>
      <use x="550.830078" xlink:href="#MicrosoftYaHei-55"/>
      <use x="625.488281" xlink:href="#MicrosoftYaHei-43"/>
      <use x="692.382812" xlink:href="#MicrosoftYaHei-20"/>
      <use x="721.972656" xlink:href="#MicrosoftYaHei-3d"/>
      <use x="796.142578" xlink:href="#MicrosoftYaHei-20"/>
      <use x="825.732422" xlink:href="#MicrosoftYaHei-30"/>
      <use x="884.375" xlink:href="#MicrosoftYaHei-2e"/>
      <use x="908.447266" xlink:href="#MicrosoftYaHei-38"/>
      <use x="967.089844" xlink:href="#MicrosoftYaHei-33"/>
      <use x="1025.732422" xlink:href="#MicrosoftYaHei-31"/>
      <use x="1084.375" xlink:href="#MicrosoftYaHei-37"/>
     </g>
    </g>
    <g id="line2d_36">
     <path d="M 40.096406 110.106 
L 55.096406 110.106 
" style="fill:none;stroke:#0000ff;stroke-linecap:square;stroke-width:0.7;"/>
    </g>
    <g id="line2d_37"/>
    <g id="text_18">
     <!-- XGBoost_PR_AUC = 0.8459 -->
     <g transform="translate(61.096406 112.731)scale(0.075 -0.075)">
      <defs>
       <path d="M 4034 0 
L 3275 0 
L 2194 1822 
Q 2156 1884 2084 2072 
L 2069 2072 
Q 2063 2047 1956 1819 
L 844 0 
L 81 0 
L 1691 2431 
L 209 4841 
L 975 4841 
L 1931 3166 
Q 2016 3019 2100 2822 
L 2113 2822 
Q 2188 2991 2297 3181 
L 3297 4841 
L 4013 4841 
L 2500 2441 
L 4034 0 
z
" id="MicrosoftYaHei-58" transform="scale(0.015625)"/>
       <path d="M 316 1691 
Q 316 2547 794 3042 
Q 1272 3538 2091 3538 
Q 2869 3538 3311 3061 
Q 3753 2584 3753 1744 
Q 3753 925 3281 422 
Q 2809 -81 2016 -81 
Q 1241 -81 778 406 
Q 316 894 316 1691 
z
M 941 1709 
Q 941 1113 1242 769 
Q 1544 425 2053 425 
Q 2578 425 2853 761 
Q 3128 1097 3128 1725 
Q 3128 2356 2853 2693 
Q 2578 3031 2053 3031 
Q 1538 3031 1239 2678 
Q 941 2325 941 1709 
z
" id="MicrosoftYaHei-6f" transform="scale(0.015625)"/>
       <path d="M 353 747 
Q 816 413 1350 413 
Q 2066 413 2066 881 
Q 2066 1081 1909 1211 
Q 1753 1341 1275 1519 
Q 700 1750 528 1976 
Q 356 2203 356 2525 
Q 356 2984 745 3261 
Q 1134 3538 1703 3538 
Q 2144 3538 2522 3384 
L 2522 2794 
Q 2134 3044 1644 3044 
Q 1350 3044 1165 2916 
Q 981 2788 981 2578 
Q 981 2372 1114 2256 
Q 1247 2141 1703 1959 
Q 2281 1744 2484 1512 
Q 2688 1281 2688 941 
Q 2688 466 2298 192 
Q 1909 -81 1291 -81 
Q 753 -81 353 122 
L 353 747 
z
" id="MicrosoftYaHei-73" transform="scale(0.015625)"/>
       <path d="M 2206 34 
Q 2006 -75 1666 -75 
Q 738 -75 738 953 
L 738 2950 
L 144 2950 
L 144 3456 
L 738 3456 
L 738 4288 
L 1347 4481 
L 1347 3456 
L 2206 3456 
L 2206 2950 
L 1347 2950 
L 1347 1063 
Q 1347 722 1462 575 
Q 1578 428 1847 428 
Q 2053 428 2206 544 
L 2206 34 
z
" id="MicrosoftYaHei-74" transform="scale(0.015625)"/>
       <path d="M 3294 1494 
Q 3294 784 2823 350 
Q 2353 -84 1559 -84 
Q 878 -84 544 119 
L 544 744 
Q 1034 425 1544 425 
Q 2050 425 2361 704 
Q 2672 984 2672 1447 
Q 2672 1909 2348 2167 
Q 2025 2425 1434 2425 
Q 978 2425 613 2384 
L 791 4841 
L 3053 4841 
L 3053 4303 
L 1306 4303 
L 1206 2931 
L 1647 2950 
Q 2416 2950 2855 2567 
Q 3294 2184 3294 1494 
z
" id="MicrosoftYaHei-35" transform="scale(0.015625)"/>
       <path d="M 578 656 
Q 978 425 1441 425 
Q 2091 425 2448 937 
Q 2806 1450 2806 2394 
Q 2800 2388 2794 2394 
Q 2475 1788 1722 1788 
Q 1113 1788 713 2206 
Q 313 2625 313 3294 
Q 313 4006 750 4464 
Q 1188 4922 1884 4922 
Q 2606 4922 3012 4355 
Q 3419 3788 3419 2703 
Q 3419 1363 2894 641 
Q 2369 -81 1441 -81 
Q 931 -81 578 84 
L 578 656 
z
M 931 3372 
Q 931 2884 1181 2598 
Q 1431 2313 1872 2313 
Q 2253 2313 2512 2573 
Q 2772 2834 2772 3206 
Q 2772 3728 2514 4070 
Q 2256 4413 1834 4413 
Q 1444 4413 1187 4116 
Q 931 3819 931 3372 
z
" id="MicrosoftYaHei-39" transform="scale(0.015625)"/>
      </defs>
      <use xlink:href="#MicrosoftYaHei-58"/>
      <use x="63.251953" xlink:href="#MicrosoftYaHei-47"/>
      <use x="137.617188" xlink:href="#MicrosoftYaHei-42"/>
      <use x="200.361328" xlink:href="#MicrosoftYaHei-6f"/>
      <use x="263.935547" xlink:href="#MicrosoftYaHei-6f"/>
      <use x="327.509766" xlink:href="#MicrosoftYaHei-73"/>
      <use x="373.798828" xlink:href="#MicrosoftYaHei-74"/>
      <use x="411.054688" xlink:href="#MicrosoftYaHei-5f"/>
      <use x="455.878906" xlink:href="#MicrosoftYaHei-50"/>
      <use x="517.060547" xlink:href="#MicrosoftYaHei-52"/>
      <use x="582.34375" xlink:href="#MicrosoftYaHei-5f"/>
      <use x="627.167969" xlink:href="#MicrosoftYaHei-41"/>
      <use x="696.154297" xlink:href="#MicrosoftYaHei-55"/>
      <use x="770.8125" xlink:href="#MicrosoftYaHei-43"/>
      <use x="837.707031" xlink:href="#MicrosoftYaHei-20"/>
      <use x="867.296875" xlink:href="#MicrosoftYaHei-3d"/>
      <use x="941.466797" xlink:href="#MicrosoftYaHei-20"/>
      <use x="971.056641" xlink:href="#MicrosoftYaHei-30"/>
      <use x="1029.699219" xlink:href="#MicrosoftYaHei-2e"/>
      <use x="1053.771484" xlink:href="#MicrosoftYaHei-38"/>
      <use x="1112.414062" xlink:href="#MicrosoftYaHei-34"/>
      <use x="1171.056641" xlink:href="#MicrosoftYaHei-35"/>
      <use x="1229.699219" xlink:href="#MicrosoftYaHei-39"/>
     </g>
    </g>
    <g id="line2d_38">
     <path d="M 40.096406 121.766156 
L 55.096406 121.766156 
" style="fill:none;stroke:#008000;stroke-linecap:square;stroke-width:0.7;"/>
    </g>
    <g id="line2d_39"/>
    <g id="text_19">
     <!-- LR_PR_AUC = 0.7579 -->
     <g transform="translate(61.096406 124.391156)scale(0.075 -0.075)">
      <defs>
       <path d="M 3178 0 
L 625 0 
L 625 4841 
L 1250 4841 
L 1250 553 
L 3178 553 
L 3178 0 
z
" id="MicrosoftYaHei-4c" transform="scale(0.015625)"/>
      </defs>
      <use xlink:href="#MicrosoftYaHei-4c"/>
      <use x="51.318359" xlink:href="#MicrosoftYaHei-52"/>
      <use x="116.601562" xlink:href="#MicrosoftYaHei-5f"/>
      <use x="161.425781" xlink:href="#MicrosoftYaHei-50"/>
      <use x="222.607422" xlink:href="#MicrosoftYaHei-52"/>
      <use x="287.890625" xlink:href="#MicrosoftYaHei-5f"/>
      <use x="332.714844" xlink:href="#MicrosoftYaHei-41"/>
      <use x="401.701172" xlink:href="#MicrosoftYaHei-55"/>
      <use x="476.359375" xlink:href="#MicrosoftYaHei-43"/>
      <use x="543.253906" xlink:href="#MicrosoftYaHei-20"/>
      <use x="572.84375" xlink:href="#MicrosoftYaHei-3d"/>
      <use x="647.013672" xlink:href="#MicrosoftYaHei-20"/>
      <use x="676.603516" xlink:href="#MicrosoftYaHei-30"/>
      <use x="735.246094" xlink:href="#MicrosoftYaHei-2e"/>
      <use x="759.318359" xlink:href="#MicrosoftYaHei-37"/>
      <use x="817.960938" xlink:href="#MicrosoftYaHei-35"/>
      <use x="876.603516" xlink:href="#MicrosoftYaHei-37"/>
      <use x="935.246094" xlink:href="#MicrosoftYaHei-39"/>
     </g>
    </g>
   </g>
  </g>
 </g>
 <defs>
  <clipPath id="p916a4fefeb">
   <rect height="133.056" width="172.98" x="33.346406" y="-0"/>
  </clipPath>
 </defs>
</svg>
